SplineFontDB: 1.0
FontName: THKoHo-BoldItalic
FullName: THKoHo-BoldItalic
FamilyName: TH KoHo
Weight: Bold
Copyright: Copyright (c) 2006¢y Department of Intellectual Property (DIP), Ministry of Commerce and Software Industry Promotion Agency (Public Organization) (SIPA). All rights reserved.
Version: 1.1
ItalicAngle: -12
UnderlinePosition: -35
UnderlineWidth: 30
Ascent: 800
Descent: 200
Order2: 1
XUID: [1021 375 425136265 10630497]
FSType: 0
OS2Version: 3
OS2_WeightWidthSlopeOnly: 0
OS2_UseTypoMetrics: 1
CreationTime: 1158666900
ModificationTime: 1174462553
PfmFamily: 17
TTFWeight: 700
TTFWidth: 5
LineGap: 60
VLineGap: 0
Panose: 2 0 8 6 0 0 0 2 0 4
OS2TypoAscent: 0
OS2TypoAOffset: 1
OS2TypoDescent: 0
OS2TypoDOffset: 1
OS2TypoLinegap: 0
OS2WinAscent: -14
OS2WinAOffset: 1
OS2WinDescent: -6066
OS2WinDOffset: 1
HheadAscent: -14
HheadAOffset: 1
HheadDescent: 6066
HheadDOffset: 1
OS2SubXSize: 700
OS2SubYSize: 650
OS2SubXOff: 0
OS2SubYOff: 140
OS2SupXSize: 700
OS2SupYSize: 650
OS2SupXOff: 0
OS2SupYOff: 477
OS2StrikeYSize: 30
OS2StrikeYPos: 250
OS2FamilyClass: 773
OS2Vendor: 'IPTH'
ScriptLang: 2
 1 latn 1 dflt 
 0 
ChainSub: coverage 0 0 'liga' 0 0 0 1
 1 0 1
  Coverage: 64 uni0E48.alt2 uni0E49.alt2 uni0E4A.alt2 uni0E4B.alt2 uni0E4C.alt2
  FCoverage: 7 uni0E33
 1
  SeqLookup: 0 'L027'
EndFPST
ChainSub: coverage 0 0 'liga' 0 0 0 1
 1 1 0
  Coverage: 7 uni0E47
  BCoverage: 12 uni0E2C.alt1
 1
  SeqLookup: 0 'L026'
EndFPST
ChainSub: coverage 0 0 'liga' 0 0 0 1
 1 0 1
  Coverage: 7 uni0E2C
  FCoverage: 39 uni0E34 uni0E35 uni0E36 uni0E37 uni0E47
 1
  SeqLookup: 0 'L026'
EndFPST
ChainSub: coverage 0 0 'liga' 0 0 0 1
 1 0 1
  Coverage: 15 uni0E0E uni0E0F
  FCoverage: 38 uni0E38.alt1 uni0E39.alt1 uni0E3A.alt1
 1
  SeqLookup: 0 'L026'
EndFPST
ChainSub: coverage 0 0 'liga' 0 0 0 1
 1 1 0
  Coverage: 5 a b c
  BCoverage: 23 uni0E1B uni0E1D uni0E1F
 1
  SeqLookup: 0 'L026'
EndFPST
ChainSub: coverage 0 0 'liga' 0 0 0 1
 1 0 1
  Coverage: 5 a b c

StartChar: .notdef
Encoding: 65536 -1 0
Width: 500
Flags: W
Fore
407 35 m 1,0,-1
 540 660 l 1,1,-1
 236 660 l 1,2,-1
 102 35 l 1,3,-1
 407 35 l 1,0,-1
436 0 m 1,4,-1
 63 0 l 1,5,-1
 209 695 l 1,6,-1
 581 695 l 1,7,-1
 436 0 l 1,4,-1
EndSplineSet
EndChar
StartChar: numbersign
Encoding: 35 35 4
Width: 509
Flags: W
Fore
426 290 m 1,0,1
 417 262 417 262 408 233 c 128,-1,2
 399 204 399 204 390 179 c 1,3,-1
 493 179 l 1,4,-1
 479 148 l 1,5,-1
 381 148 l 1,6,-1
 331 -1 l 1,7,-1
 279 -1 l 1,8,-1
 328 148 l 1,9,-1
 213 148 l 1,10,-1
 165 -1 l 1,11,-1
 113 -1 l 1,12,-1
 161 148 l 1,13,-1
 74 148 l 1,14,-1
 88 179 l 1,15,-1
 171 179 l 1,16,17
 179 208 179 208 188.5 235 c 128,-1,18
 198 262 198 262 207 290 c 1,19,-1
 116 290 l 1,20,-1
 131 321 l 1,21,-1
 218 321 l 1,22,-1
 265 465 l 1,23,-1
 315 465 l 1,24,-1
 269 321 l 1,25,-1
 385 321 l 1,26,27
 397 356 397 356 408.5 393 c 128,-1,28
 420 430 420 430 430 465 c 1,29,-1
 483 465 l 1,30,-1
 437 321 l 1,31,-1
 534 321 l 1,32,-1
 519 290 l 1,33,-1
 426 290 l 1,0,1
258 290 m 1,34,35
 250 262 250 262 240.5 235 c 128,-1,36
 231 208 231 208 223 179 c 1,37,-1
 338 179 l 1,38,-1
 374 290 l 1,39,-1
 258 290 l 1,34,35
EndSplineSet
EndChar
StartChar: dollar
Encoding: 36 36 5
Width: 476
Flags: W
Fore
454 131 m 0,0,1
 448 97 448 97 428.5 72 c 128,-1,2
 409 47 409 47 382 30 c 128,-1,3
 355 13 355 13 323 3.5 c 128,-1,4
 291 -6 291 -6 260 -9 c 1,5,-1
 242 -97 l 1,6,-1
 192 -97 l 1,7,-1
 210 -9 l 1,8,9
 186 -7 186 -7 162.5 -1 c 128,-1,10
 139 5 139 5 119 17.5 c 128,-1,11
 99 30 99 30 85 49 c 128,-1,12
 71 68 71 68 66 96 c 1,13,-1
 120 96 l 1,14,15
 124 80 124 80 134.5 70 c 128,-1,16
 145 60 145 60 159.5 53.5 c 128,-1,17
 174 47 174 47 190 43.5 c 128,-1,18
 206 40 206 40 220 38 c 1,19,-1
 260 227 l 1,20,21
 233 232 233 232 208.5 240 c 128,-1,22
 184 248 184 248 166 261.5 c 128,-1,23
 148 275 148 275 139 296.5 c 128,-1,24
 130 318 130 318 136 351 c 0,25,26
 141 382 141 382 159 405.5 c 128,-1,27
 177 429 177 429 202 446 c 128,-1,28
 227 463 227 463 256.5 473 c 128,-1,29
 286 483 286 483 315 486 c 1,30,-1
 332 565 l 1,31,-1
 381 565 l 1,32,-1
 365 487 l 1,33,34
 387 485 387 485 409.5 478 c 128,-1,35
 432 471 432 471 449.5 459 c 128,-1,36
 467 447 467 447 478 429.5 c 128,-1,37
 489 412 489 412 489 388 c 1,38,-1
 437 388 l 1,39,40
 426 416 426 416 403 426 c 128,-1,41
 380 436 380 436 355 441 c 1,42,-1
 317 259 l 1,43,44
 345 255 345 255 372.5 248.5 c 128,-1,45
 400 242 400 242 420.5 228.5 c 128,-1,46
 441 215 441 215 451 192 c 128,-1,47
 461 169 461 169 454 131 c 0,0,1
190 351 m 0,48,49
 187 330 187 330 191.5 315.5 c 128,-1,50
 196 301 196 301 206.5 292 c 128,-1,51
 217 283 217 283 233 278 c 128,-1,52
 249 273 249 273 269 269 c 1,53,-1
 305 440 l 1,54,55
 288 437 288 437 270 431.5 c 128,-1,56
 252 426 252 426 236 416 c 128,-1,57
 220 406 220 406 207.5 390 c 128,-1,58
 195 374 195 374 190 351 c 0,48,49
269 37 m 1,59,60
 291 38 291 38 311.5 43 c 128,-1,61
 332 48 332 48 349.5 58.5 c 128,-1,62
 367 69 367 69 379.5 86.5 c 128,-1,63
 392 104 392 104 398 131 c 0,64,65
 403 151 403 151 397 165 c 128,-1,66
 391 179 391 179 378 188.5 c 128,-1,67
 365 198 365 198 346.5 204.5 c 128,-1,68
 328 211 328 211 308 217 c 1,69,-1
 269 37 l 1,59,60
EndSplineSet
EndChar
StartChar: percent
Encoding: 37 37 6
Width: 694
Flags: W
Fore
611 482 m 1,0,-1
 218 -3 l 1,1,-1
 155 -3 l 1,2,-1
 548 482 l 1,3,-1
 611 482 l 1,0,-1
346 342 m 0,4,5
 340 313 340 313 325.5 287.5 c 128,-1,6
 311 262 311 262 291 242.5 c 128,-1,7
 271 223 271 223 246 212 c 128,-1,8
 221 201 221 201 193 201 c 0,9,10
 169 201 169 201 150 212.5 c 128,-1,11
 131 224 131 224 119.5 243.5 c 128,-1,12
 108 263 108 263 104.5 288.5 c 128,-1,13
 101 314 101 314 107 342 c 256,14,15
 113 370 113 370 127.5 395.5 c 128,-1,16
 142 421 142 421 162.5 439.5 c 128,-1,17
 183 458 183 458 206.5 469 c 128,-1,18
 230 480 230 480 254 480 c 0,19,20
 279 481 279 481 298.5 470 c 128,-1,21
 318 459 318 459 330.5 440 c 128,-1,22
 343 421 343 421 347.5 395.5 c 128,-1,23
 352 370 352 370 346 342 c 0,4,5
203 243 m 0,24,25
 218 242 218 242 232 249.5 c 128,-1,26
 246 257 246 257 257.5 270.5 c 128,-1,27
 269 284 269 284 277 303 c 128,-1,28
 285 322 285 322 289 343 c 0,29,30
 297 383 297 383 284.5 411.5 c 128,-1,31
 272 440 272 440 242 437 c 0,32,33
 227 435 227 435 214 426.5 c 128,-1,34
 201 418 201 418 190.5 405 c 128,-1,35
 180 392 180 392 172.5 376 c 128,-1,36
 165 360 165 360 162 344 c 2,37,38
 155 324 155 324 155.5 306 c 128,-1,39
 156 288 156 288 162 274.5 c 128,-1,40
 168 261 168 261 178.5 252.5 c 128,-1,41
 189 244 189 244 203 243 c 0,24,25
583 289 m 0,42,43
 607 290 607 290 628 280 c 128,-1,44
 649 270 649 270 663 251.5 c 128,-1,45
 677 233 677 233 681.5 207.5 c 128,-1,46
 686 182 686 182 679 151 c 0,47,48
 671 122 671 122 657 96.5 c 128,-1,49
 643 71 643 71 623.5 51.5 c 128,-1,50
 604 32 604 32 578.5 20.5 c 128,-1,51
 553 9 553 9 523 10 c 0,52,53
 496 11 496 11 475.5 22.5 c 128,-1,54
 455 34 455 34 442.5 53 c 128,-1,55
 430 72 430 72 426.5 97.5 c 128,-1,56
 423 123 423 123 429 151 c 256,57,58
 435 179 435 179 451 205 c 128,-1,59
 467 231 467 231 488.5 250.5 c 128,-1,60
 510 270 510 270 535 280.5 c 128,-1,61
 560 291 560 291 583 289 c 0,42,43
533 52 m 0,62,63
 548 51 548 51 562 58.5 c 128,-1,64
 576 66 576 66 588 79.5 c 128,-1,65
 600 93 600 93 608.5 112 c 128,-1,66
 617 131 617 131 621 152 c 0,67,68
 628 192 628 192 616 218.5 c 128,-1,69
 604 245 604 245 572 246 c 0,70,71
 557 246 557 246 543.5 237.5 c 128,-1,72
 530 229 530 229 518.5 215.5 c 128,-1,73
 507 202 507 202 499 185.5 c 128,-1,74
 491 169 491 169 488 153 c 0,75,76
 482 133 482 133 482.5 115 c 128,-1,77
 483 97 483 97 489.5 83.5 c 128,-1,78
 496 70 496 70 507.5 61.5 c 128,-1,79
 519 53 519 53 533 52 c 0,62,63
EndSplineSet
EndChar
StartChar: ampersand
Encoding: 38 38 7
Width: 476
Flags: W
Fore
392 -1 m 1,0,-1
 347 53 l 1,1,2
 322 35 322 35 301 24 c 128,-1,3
 280 13 280 13 260 7 c 128,-1,4
 240 1 240 1 220.5 -1.5 c 128,-1,5
 201 -4 201 -4 180 -4 c 0,6,7
 150 -4 150 -4 122 6.5 c 128,-1,8
 94 17 94 17 73.5 35 c 128,-1,9
 53 53 53 53 43 78 c 128,-1,10
 33 103 33 103 40 132 c 0,11,12
 46 159 46 159 60.5 181.5 c 128,-1,13
 75 204 75 204 94.5 222 c 128,-1,14
 114 240 114 240 137 254 c 128,-1,15
 160 268 160 268 183 278 c 1,16,17
 167 306 167 306 160.5 331 c 128,-1,18
 154 356 154 356 160 380 c 0,19,20
 170 425 170 425 208.5 460 c 128,-1,21
 247 495 247 495 313 498 c 0,22,23
 336 499 336 499 356.5 492 c 128,-1,24
 377 485 377 485 391 472 c 128,-1,25
 405 459 405 459 412 440.5 c 128,-1,26
 419 422 419 422 415 400 c 0,27,28
 410 374 410 374 395.5 354 c 128,-1,29
 381 334 381 334 359 318.5 c 128,-1,30
 337 303 337 303 309.5 290.5 c 128,-1,31
 282 278 282 278 251 268 c 1,32,33
 286 219 286 219 311.5 182 c 128,-1,34
 337 145 337 145 357 122 c 1,35,36
 368 134 368 134 378.5 144.5 c 128,-1,37
 389 155 389 155 399 170 c 128,-1,38
 409 185 409 185 420 206.5 c 128,-1,39
 431 228 431 228 444 261 c 1,40,-1
 501 261 l 1,41,42
 475 196 475 196 446 155 c 128,-1,43
 417 114 417 114 389 88 c 1,44,45
 406 67 406 67 430.5 41.5 c 128,-1,46
 455 16 455 16 471 0 c 1,47,-1
 392 -1 l 1,48,-1
 392 -1 l 1,0,-1
362 396 m 0,49,50
 369 425 369 425 352 442.5 c 128,-1,51
 335 460 335 460 303 458 c 0,52,53
 265 456 265 456 242.5 436 c 128,-1,54
 220 416 220 416 213 384 c 0,55,56
 207 354 207 354 217.5 333.5 c 128,-1,57
 228 313 228 313 236 301 c 1,58,59
 261 312 261 312 282.5 321.5 c 128,-1,60
 304 331 304 331 320 341.5 c 128,-1,61
 336 352 336 352 347 365 c 128,-1,62
 358 378 358 378 362 396 c 0,49,50
192 43 m 0,63,64
 234 43 234 43 261 55.5 c 128,-1,65
 288 68 288 68 314 86 c 1,66,67
 301 102 301 102 273 143.5 c 128,-1,68
 245 185 245 185 205 245 c 1,69,70
 191 239 191 239 175 230 c 128,-1,71
 159 221 159 221 144 208.5 c 128,-1,72
 129 196 129 196 117.5 179 c 128,-1,73
 106 162 106 162 101 138 c 0,74,75
 96 113 96 113 103.5 95 c 128,-1,76
 111 77 111 77 125 65.5 c 128,-1,77
 139 54 139 54 157.5 48.5 c 128,-1,78
 176 43 176 43 192 43 c 0,63,64
EndSplineSet
EndChar
StartChar: quotesingle
Encoding: 39 39 8
Width: 137
Flags: W
Fore
155 339 m 1,0,-1
 120 339 l 1,1,-1
 139 480 l 1,2,-1
 197 480 l 1,3,-1
 155 339 l 1,0,-1
EndSplineSet
EndChar
StartChar: parenleft
Encoding: 40 40 9
Width: 221
Flags: W
Fore
154 -58 m 1,0,1
 138 -35 138 -35 124 -6 c 128,-1,2
 110 23 110 23 102.5 59.5 c 128,-1,3
 95 96 95 96 94.5 139.5 c 128,-1,4
 94 183 94 183 105 234 c 0,5,6
 117 288 117 288 136 331.5 c 128,-1,7
 155 375 155 375 178 411 c 128,-1,8
 201 447 201 447 227 476.5 c 128,-1,9
 253 506 253 506 279 532 c 1,10,-1
 333 532 l 1,11,12
 268 472 268 472 223 402 c 128,-1,13
 178 332 178 332 157 234 c 0,14,15
 147 186 147 186 146.5 145 c 128,-1,16
 146 104 146 104 153.5 69 c 128,-1,17
 161 34 161 34 174.5 2.5 c 128,-1,18
 188 -29 188 -29 206 -58 c 1,19,-1
 154 -58 l 1,0,1
EndSplineSet
EndChar
StartChar: parenright
Encoding: 41 41 10
Width: 222
Flags: W
Fore
165 532 m 1,0,1
 181 509 181 509 194.5 480 c 128,-1,2
 208 451 208 451 215.5 414.5 c 128,-1,3
 223 378 223 378 223.5 334.5 c 128,-1,4
 224 291 224 291 213 240 c 0,5,6
 201 186 201 186 182.5 142 c 128,-1,7
 164 98 164 98 140.5 62 c 128,-1,8
 117 26 117 26 91 -3.5 c 128,-1,9
 65 -33 65 -33 39 -58 c 1,10,-1
 -12 -58 l 1,11,12
 19 -28 19 -28 46 4 c 128,-1,13
 73 36 73 36 95 72 c 128,-1,14
 117 108 117 108 133.5 149.5 c 128,-1,15
 150 191 150 191 161 240 c 0,16,17
 171 288 171 288 171.5 329 c 128,-1,18
 172 370 172 370 165 405 c 128,-1,19
 158 440 158 440 144.5 471.5 c 128,-1,20
 131 503 131 503 113 532 c 1,21,-1
 165 532 l 1,0,1
EndSplineSet
EndChar
StartChar: asterisk
Encoding: 42 42 11
Width: 318
Flags: W
Fore
374 404 m 1,0,-1
 362 348 l 1,1,-1
 263 357 l 1,2,-1
 307 280 l 1,3,-1
 254 252 l 1,4,-1
 228 337 l 1,5,-1
 172 246 l 1,6,-1
 127 269 l 1,7,-1
 201 357 l 1,8,-1
 97 347 l 1,9,-1
 109 403 l 1,10,-1
 203 395 l 1,11,-1
 159 475 l 1,12,-1
 212 503 l 1,13,-1
 240 411 l 1,14,-1
 298 506 l 1,15,-1
 342 482 l 1,16,-1
 269 394 l 1,17,-1
 374 404 l 1,18,-1
 374 404 l 1,0,-1
EndSplineSet
EndChar
StartChar: plus
Encoding: 43 43 12
Width: 437
Flags: W
Fore
280 162 m 1,0,-1
 248 0 l 1,1,-1
 188 0 l 1,2,-1
 220 162 l 1,3,-1
 62 162 l 1,4,-1
 74 217 l 1,5,-1
 232 217 l 1,6,-1
 267 383 l 1,7,-1
 327 383 l 1,8,-1
 292 217 l 1,9,-1
 453 217 l 1,10,-1
 441 162 l 1,11,-1
 280 162 l 1,12,-1
 280 162 l 1,0,-1
EndSplineSet
EndChar
StartChar: comma
Encoding: 44 44 13
Width: 141
Flags: W
Fore
111 67 m 0,0,1
 119 62 119 62 122 52 c 128,-1,2
 125 42 125 42 123 31 c 0,3,4
 119 11 119 11 109 -5.5 c 128,-1,5
 99 -22 99 -22 85.5 -35 c 128,-1,6
 72 -48 72 -48 57.5 -58 c 128,-1,7
 43 -68 43 -68 30 -74 c 1,8,-1
 0 -74 l 1,9,10
 25 -61 25 -61 48 -42 c 128,-1,11
 71 -23 71 -23 82 0 c 1,12,13
 53 -16 53 -16 36 -2 c 1,14,15
 29 7 29 7 33 23.5 c 128,-1,16
 37 40 37 40 54 56 c 0,17,18
 70 70 70 70 87 71 c 128,-1,19
 104 72 104 72 111 67 c 0,0,1
EndSplineSet
EndChar
StartChar: hyphen
Encoding: 45 45 14
Width: 253
Flags: W
Fore
70 160 m 1,0,-1
 83 217 l 1,1,-1
 257 217 l 1,2,-1
 245 160 l 1,3,-1
 70 160 l 1,0,-1
EndSplineSet
EndChar
StartChar: period
Encoding: 46 46 15
Width: 141
Flags: W
Fore
85 79 m 1,0,1
 101 81 101 81 108 68 c 128,-1,2
 115 55 115 55 111 35 c 0,3,4
 107 16 107 16 94 2.5 c 128,-1,5
 81 -11 81 -11 66 -11 c 0,6,7
 49 -11 49 -11 41.5 2.5 c 128,-1,8
 34 16 34 16 39 35 c 0,9,10
 43 55 43 55 57 68 c 128,-1,11
 71 81 71 81 85 79 c 1,0,1
EndSplineSet
EndChar
StartChar: slash
Encoding: 47 47 16
Width: 306
Flags: W
Fore
43 -29 m 1,0,-1
 -13 -29 l 1,1,-1
 348 493 l 1,2,-1
 408 493 l 1,3,-1
 43 -29 l 1,4,-1
 43 -29 l 1,0,-1
EndSplineSet
EndChar
StartChar: zero
Encoding: 48 48 17
Width: 438
Flags: W
Fore
314 476 m 2,0,-1
 322 476 l 2,1,2
 369 476 369 476 395.5 456.5 c 128,-1,3
 422 437 422 437 433.5 406 c 128,-1,4
 445 375 445 375 444.5 337.5 c 128,-1,5
 444 300 444 300 438 263 c 0,6,7
 430 221 430 221 415 176 c 128,-1,8
 400 131 400 131 371 89 c 0,9,10
 346 53 346 53 311 28.5 c 128,-1,11
 276 4 276 4 225 2 c 2,12,-1
 218 2 l 2,13,14
 184 2 184 2 160 11.5 c 128,-1,15
 136 21 136 21 121 37.5 c 128,-1,16
 106 54 106 54 98.5 76.5 c 128,-1,17
 91 99 91 99 89 124 c 0,18,19
 88 134 88 134 87.5 143.5 c 128,-1,20
 87 153 87 153 88 163 c 256,21,22
 89 173 89 173 90 182.5 c 128,-1,23
 91 192 91 192 92 202 c 1,24,-1
 93 203 l 1,25,26
 94 209 94 209 95 214.5 c 128,-1,27
 96 220 96 220 97 225 c 0,28,29
 106 263 106 263 121.5 305.5 c 128,-1,30
 137 348 137 348 162 386 c 0,31,32
 188 424 188 424 225 449 c 128,-1,33
 262 474 262 474 314 476 c 2,0,-1
312 436 m 2,34,-1
 311 436 l 2,35,36
 273 436 273 436 244 411.5 c 128,-1,37
 215 387 215 387 197 352 c 0,38,39
 177 316 177 316 166.5 275.5 c 128,-1,40
 156 235 156 235 150 205 c 0,41,42
 147 186 147 186 145 165.5 c 128,-1,43
 143 145 143 145 145 126 c 128,-1,44
 147 107 147 107 153.5 90 c 128,-1,45
 160 73 160 73 172 62 c 1,46,47
 181 51 181 51 196 47 c 128,-1,48
 211 43 211 43 226 42 c 2,49,-1
 227 42 l 1,50,-1
 230 42 l 2,51,52
 264 44 264 44 290 65 c 128,-1,53
 316 86 316 86 333 116 c 0,54,55
 353 152 353 152 364 191.5 c 128,-1,56
 375 231 375 231 383 265 c 0,57,58
 386 283 386 283 387.5 304 c 128,-1,59
 389 325 389 325 387 345 c 128,-1,60
 385 365 385 365 379 383.5 c 128,-1,61
 373 402 373 402 362 414 c 0,62,63
 357 419 357 419 352.5 423.5 c 128,-1,64
 348 428 348 428 342 430 c 2,65,66
 330 436 330 436 312 436 c 2,34,-1
EndSplineSet
EndChar
StartChar: one
Encoding: 49 49 18
Width: 438
Flags: W
Fore
197 4 m 1,0,-1
 284 410 l 1,1,-1
 247 391 l 1,2,-1
 234 385 l 1,3,-1
 238 397 l 1,4,-1
 248 438 l 1,5,-1
 248 442 l 1,6,-1
 252 443 l 1,7,-1
 307 472 l 1,8,-1
 311 473 l 1,9,-1
 342 473 l 1,10,-1
 349 473 l 1,11,-1
 348 466 l 1,12,-1
 250 4 l 1,13,-1
 249 -3 l 1,14,-1
 242 -3 l 1,15,-1
 203 -3 l 1,16,-1
 196 -3 l 1,17,-1
 197 4 l 1,0,-1
EndSplineSet
EndChar
StartChar: two
Encoding: 50 50 19
Width: 438
Flags: W
Fore
359 2 m 1,0,-1
 68 2 l 1,1,-1
 61 2 l 1,2,-1
 63 10 l 1,3,-1
 69 33 l 1,4,-1
 71 37 l 1,5,6
 111 69 111 69 148.5 101 c 128,-1,7
 186 133 186 133 224 167 c 0,8,9
 261 199 261 199 299.5 233.5 c 128,-1,10
 338 268 338 268 372 304 c 0,11,12
 380 313 380 313 385.5 320.5 c 128,-1,13
 391 328 391 328 396 335 c 0,14,15
 397 337 397 337 400 340 c 1,16,17
 408 358 408 358 411 369 c 0,18,19
 415 389 415 389 406 402 c 1,20,21
 396 412 396 412 373 421 c 0,22,23
 337 435 337 435 293 430.5 c 128,-1,24
 249 426 249 426 207 416 c 0,25,26
 195 414 195 414 182 410 c 1,27,-1
 172 409 l 1,28,-1
 176 418 l 1,29,-1
 188 459 l 1,30,-1
 194 460 l 2,31,32
 219 465 219 465 249 469 c 128,-1,33
 279 473 279 473 308 475 c 0,34,35
 340 476 340 476 368.5 472 c 128,-1,36
 397 468 397 468 419 457 c 0,37,38
 433 450 433 450 443.5 440 c 128,-1,39
 454 430 454 430 459 417 c 0,40,41
 460 415 460 415 461 412 c 128,-1,42
 462 409 462 409 463 407 c 1,43,44
 467 389 467 389 463 370 c 0,45,46
 460 354 460 354 451 338 c 0,47,48
 446 330 446 330 440.5 321.5 c 128,-1,49
 435 313 435 313 427 303 c 0,50,51
 398 267 398 267 364.5 233 c 128,-1,52
 331 199 331 199 296 167 c 0,53,54
 264 137 264 137 228 107 c 128,-1,55
 192 77 192 77 158 49 c 1,56,-1
 185 49 l 2,57,58
 209 49 209 49 230 49 c 128,-1,59
 251 49 251 49 273 49.5 c 128,-1,60
 295 50 295 50 318 50.5 c 128,-1,61
 341 51 341 51 369 53 c 2,62,-1
 376 54 l 1,63,-1
 374 46 l 1,64,-1
 367 9 l 1,65,-1
 366 2 l 1,66,-1
 359 2 l 1,0,-1
EndSplineSet
EndChar
StartChar: three
Encoding: 51 51 20
Width: 438
Flags: W
Fore
198 227 m 1,0,-1
 206 263 l 1,1,-1
 208 269 l 1,2,-1
 213 268 l 1,3,4
 222 268 222 268 230 267.5 c 128,-1,5
 238 267 238 267 246 267 c 0,6,7
 269 267 269 267 291 271 c 128,-1,8
 313 275 313 275 333 284 c 0,9,10
 352 294 352 294 370.5 309.5 c 128,-1,11
 389 325 389 325 395 348 c 2,12,13
 397 351 397 351 399 360 c 1,14,15
 400 383 400 383 393 397 c 128,-1,16
 386 411 386 411 373.5 419.5 c 128,-1,17
 361 428 361 428 343.5 431.5 c 128,-1,18
 326 435 326 435 306 437 c 0,19,20
 291 437 291 437 277 436 c 128,-1,21
 263 435 263 435 249 433 c 0,22,23
 234 431 234 431 220.5 429 c 128,-1,24
 207 427 207 427 193 422 c 1,25,-1
 183 420 l 1,26,-1
 186 429 l 1,27,-1
 195 460 l 1,28,-1
 197 465 l 1,29,-1
 203 466 l 2,30,31
 236 472 236 472 264 474.5 c 128,-1,32
 292 477 292 477 312 477 c 0,33,34
 339 477 339 477 367 472 c 128,-1,35
 395 467 395 467 415 455 c 0,36,37
 438 442 438 442 449.5 421.5 c 128,-1,38
 461 401 461 401 454 370 c 0,39,40
 442 315 442 315 405 284 c 0,41,42
 375 257 375 257 333 247 c 1,43,44
 370 236 370 236 383.5 226.5 c 128,-1,45
 397 217 397 217 406 208 c 1,46,47
 427 173 427 173 411 131 c 0,48,49
 394 81 394 81 360.5 53 c 128,-1,50
 327 25 327 25 288 12.5 c 128,-1,51
 249 0 249 0 209 -1 c 128,-1,52
 169 -2 169 -2 138 1 c 0,53,54
 129 3 129 3 120 4.5 c 128,-1,55
 111 6 111 6 101 8 c 0,56,57
 93 10 93 10 83.5 12 c 128,-1,58
 74 14 74 14 66 16 c 2,59,-1
 61 18 l 1,60,-1
 62 22 l 1,61,-1
 67 59 l 1,62,-1
 68 69 l 1,63,-1
 77 65 l 2,64,65
 116 48 116 48 165.5 41.5 c 128,-1,66
 215 35 215 35 261 50 c 0,67,68
 291 61 291 61 310.5 73.5 c 128,-1,69
 330 86 330 86 341 99.5 c 128,-1,70
 352 113 352 113 356 126 c 128,-1,71
 360 139 360 139 361 150 c 0,72,73
 361 172 361 172 349 189 c 1,74,75
 324 212 324 212 290.5 217 c 128,-1,76
 257 222 257 222 224 220 c 2,77,-1
 202 220 l 1,78,-1
 195 220 l 1,79,-1
 198 227 l 1,0,-1
EndSplineSet
EndChar
StartChar: four
Encoding: 52 52 21
Width: 438
Flags: W
Fore
272 2 m 1,0,-1
 308 163 l 1,1,-1
 93 163 l 1,2,-1
 86 163 l 1,3,-1
 88 170 l 1,4,-1
 96 208 l 1,5,-1
 98 212 l 1,6,-1
 355 475 l 1,7,-1
 358 478 l 1,8,-1
 362 478 l 1,9,-1
 421 478 l 1,10,-1
 428 478 l 1,11,-1
 427 471 l 1,12,-1
 370 208 l 1,13,-1
 441 208 l 1,14,-1
 439 201 l 1,15,-1
 433 170 l 1,16,-1
 431 163 l 1,17,-1
 360 163 l 1,18,-1
 332 3 l 1,19,-1
 332 -4 l 1,20,-1
 325 -4 l 1,21,-1
 277 -4 l 1,22,-1
 271 -4 l 1,23,-1
 272 2 l 1,24,-1
 272 2 l 1,25,-1
 272 2 l 1,0,-1
159 208 m 1,26,-1
 317 208 l 1,27,-1
 358 423 l 1,28,-1
 159 208 l 1,29,-1
 159 208 l 1,26,-1
EndSplineSet
EndChar
StartChar: five
Encoding: 53 53 22
Width: 438
Flags: W
Fore
123 240 m 1,0,-1
 198 468 l 1,1,-1
 199 475 l 1,2,-1
 203 475 l 1,3,-1
 468 475 l 1,4,-1
 474 475 l 1,5,-1
 473 468 l 1,6,-1
 466 434 l 1,7,-1
 464 428 l 1,8,-1
 458 428 l 2,9,10
 429 430 429 430 402 431.5 c 128,-1,11
 375 433 375 433 348 433 c 2,12,-1
 237 433 l 1,13,-1
 184 279 l 1,14,-1
 187 279 l 2,15,16
 214 282 214 282 242.5 284.5 c 128,-1,17
 271 287 271 287 298 285.5 c 128,-1,18
 325 284 325 284 349 276.5 c 128,-1,19
 373 269 373 269 390 252 c 0,20,21
 414 231 414 231 417 203 c 0,22,23
 421 186 421 186 417.5 167 c 128,-1,24
 414 148 414 148 406 130 c 256,25,26
 398 112 398 112 386 94 c 128,-1,27
 374 76 374 76 358 61 c 0,28,29
 340 43 340 43 318 28 c 128,-1,30
 296 13 296 13 273 5 c 0,31,32
 235 -9 235 -9 195.5 -12.5 c 128,-1,33
 156 -16 156 -16 118 -12 c 0,34,35
 110 -11 110 -11 103.5 -10 c 128,-1,36
 97 -9 97 -9 90 -8 c 0,37,38
 82 -6 82 -6 75.5 -5 c 128,-1,39
 69 -4 69 -4 62 -2 c 1,40,-1
 61 -2 l 1,41,-1
 58 -1 l 1,42,-1
 58 4 l 1,43,-1
 60 30 l 1,44,-1
 61 40 l 1,45,-1
 68 37 l 1,46,47
 96 30 96 30 123.5 25.5 c 128,-1,48
 151 21 151 21 178 23 c 256,49,50
 205 25 205 25 232 32.5 c 128,-1,51
 259 40 259 40 288 58 c 0,52,53
 307 70 307 70 325 90 c 0,54,55
 347 115 347 115 353 140 c 0,56,57
 357 152 357 152 357 168 c 128,-1,58
 357 184 357 184 352 195 c 0,59,60
 345 208 345 208 335 217 c 0,61,62
 316 231 316 231 291.5 236 c 128,-1,63
 267 241 267 241 239 242 c 256,64,65
 211 243 211 243 182.5 240 c 128,-1,66
 154 237 154 237 129 233 c 2,67,-1
 120 232 l 1,68,-1
 123 240 l 1,0,-1
EndSplineSet
EndChar
StartChar: six
Encoding: 54 54 23
Width: 438
Flags: W
Fore
194 341 m 0,0,1
 225 376 225 376 258.5 408.5 c 128,-1,2
 292 441 292 441 324 473 c 2,3,-1
 326 475 l 1,4,-1
 330 475 l 1,5,-1
 365 475 l 1,6,-1
 378 475 l 1,7,-1
 369 465 l 2,8,9
 364 460 364 460 358.5 453.5 c 128,-1,10
 353 447 353 447 346 439 c 0,11,12
 332 423 332 423 312 403 c 128,-1,13
 292 383 292 383 270 360.5 c 128,-1,14
 248 338 248 338 226.5 313 c 128,-1,15
 205 288 205 288 187 263 c 1,16,17
 208 268 208 268 237 270.5 c 128,-1,18
 266 273 266 273 286 273 c 0,19,20
 315 273 315 273 339 267.5 c 128,-1,21
 363 262 363 262 381 249 c 0,22,23
 421 223 421 223 422 170 c 0,24,25
 422 155 422 155 418 139 c 0,26,27
 411 106 411 106 392 78 c 128,-1,28
 373 50 373 50 345 29 c 0,29,30
 290 -14 290 -14 214 -14 c 0,31,32
 180 -14 180 -14 155 -8 c 0,33,34
 128 -1 128 -1 109.5 12.5 c 128,-1,35
 91 26 91 26 81 44 c 0,36,37
 70 64 70 64 68.5 87 c 128,-1,38
 67 110 67 110 72 136 c 0,39,40
 78 163 78 163 90 192 c 0,41,42
 108 230 108 230 135 267.5 c 128,-1,43
 162 305 162 305 194 341 c 0,0,1
159 208 m 1,44,45
 151 195 151 195 144.5 182 c 128,-1,46
 138 169 138 169 134 156 c 0,47,48
 125 133 125 133 125 111.5 c 128,-1,49
 125 90 125 90 134 72.5 c 128,-1,50
 143 55 143 55 162.5 42.5 c 128,-1,51
 182 30 182 30 212 26 c 0,52,53
 238 23 238 23 263 31 c 128,-1,54
 288 39 288 39 308.5 54.5 c 128,-1,55
 329 70 329 70 344 92.5 c 128,-1,56
 359 115 359 115 365 142 c 0,57,58
 368 155 368 155 366 169 c 0,59,60
 365 185 365 185 355.5 196 c 128,-1,61
 346 207 346 207 334 215 c 0,62,63
 310 230 310 230 269 230 c 0,64,65
 245 230 245 230 219 227.5 c 128,-1,66
 193 225 193 225 170 214 c 2,67,-1
 159 208 l 1,44,45
EndSplineSet
EndChar
StartChar: seven
Encoding: 55 55 24
Width: 438
Flags: W
Fore
191 147 m 0,0,1
 241 213 241 213 293.5 282 c 128,-1,2
 346 351 346 351 401 428 c 1,3,-1
 370 428 l 2,4,5
 318 428 318 428 268 428 c 128,-1,6
 218 428 218 428 161 426 c 2,7,-1
 155 426 l 1,8,-1
 156 432 l 1,9,-1
 164 468 l 1,10,-1
 165 475 l 1,11,-1
 171 475 l 1,12,-1
 462 475 l 1,13,-1
 469 475 l 1,14,-1
 468 468 l 1,15,-1
 459 429 l 1,16,-1
 457 427 l 1,17,18
 424 381 424 381 391 336 c 128,-1,19
 358 291 358 291 324 246 c 0,20,21
 277 184 277 184 232 123 c 128,-1,22
 187 62 187 62 141 -4 c 2,23,-1
 138 -8 l 1,24,-1
 134 -8 l 1,25,-1
 85 -8 l 1,26,-1
 74 -8 l 1,27,-1
 81 2 l 2,28,29
 109 39 109 39 135.5 74.5 c 128,-1,30
 162 110 162 110 191 147 c 0,0,1
-1299 -6111 m 0,31,32
 -1251 -6045 -1251 -6045 -1198.5 -5976 c 128,-1,33
 -1146 -5907 -1146 -5907 -1091 -5830 c 1,34,-1
 -1122 -5830 l 2,35,36
 -1174 -5830 -1174 -5830 -1219 -5830 c 128,-1,37
 -1264 -5830 -1264 -5830 -1321 -5832 c 2,38,-1
 -1327 -5832 l 1,39,-1
 -1326 -5826 l 1,40,-1
 -1318 -5790 l 1,41,-1
 -1317 -5783 l 1,42,-1
 -1311 -5783 l 1,43,-1
 -1021 -5783 l 1,44,-1
 -1014 -5783 l 1,45,-1
 -1015 -5790 l 1,46,-1
 -1024 -5829 l 1,47,-1
 -1026 -5831 l 1,48,49
 -1059 -5877 -1059 -5877 -1092.5 -5922 c 128,-1,50
 -1126 -5967 -1126 -5967 -1159 -6012 c 0,51,52
 -1206 -6074 -1206 -6074 -1251 -6135 c 128,-1,53
 -1296 -6196 -1296 -6196 -1341 -6262 c 2,54,-1
 -1343 -6266 l 1,55,-1
 -1347 -6266 l 1,56,-1
 -1405 -6266 l 1,57,-1
 -1416 -6266 l 1,58,-1
 -1409 -6256 l 2,59,60
 -1381 -6219 -1381 -6219 -1354.5 -6183.5 c 128,-1,61
 -1328 -6148 -1328 -6148 -1299 -6111 c 0,31,32
EndSplineSet
EndChar
StartChar: eight
Encoding: 56 56 25
Width: 438
Flags: W
Fore
389 365 m 0,0,1
 397 400 397 400 374.5 422.5 c 128,-1,2
 352 445 352 445 312 445 c 0,3,4
 271 445 271 445 239 422.5 c 128,-1,5
 207 400 207 400 199 365 c 0,6,7
 192 331 192 331 215 306 c 128,-1,8
 238 281 238 281 277 281 c 0,9,10
 315 281 315 281 348.5 306 c 128,-1,11
 382 331 382 331 389 365 c 0,0,1
351 125 m 0,12,13
 360 167 360 167 335 194.5 c 128,-1,14
 310 222 310 222 265 222 c 256,15,16
 220 222 220 222 182.5 194 c 128,-1,17
 145 166 145 166 136 125 c 0,18,19
 127 83 127 83 151.5 57 c 128,-1,20
 176 31 176 31 224 31 c 0,21,22
 268 31 268 31 305.5 58 c 128,-1,23
 343 85 343 85 351 125 c 0,12,13
441 369 m 0,24,25
 426 299 426 299 337 255 c 1,26,27
 382 240 382 240 399 206 c 128,-1,28
 416 172 416 172 407 130 c 0,29,30
 394 67 394 67 339 28 c 128,-1,31
 284 -11 284 -11 217 -11 c 0,32,33
 143 -11 143 -11 107 27.5 c 128,-1,34
 71 66 71 66 84 130 c 0,35,36
 93 170 93 170 125 205 c 128,-1,37
 157 240 157 240 205 256 c 1,38,39
 135 299 135 299 151 363 c 0,40,41
 163 421 163 421 206 454 c 128,-1,42
 249 487 249 487 321 487 c 0,43,44
 389 487 389 487 420.5 455 c 128,-1,45
 452 423 452 423 441 369 c 0,24,25
EndSplineSet
EndChar
StartChar: nine
Encoding: 57 57 26
Width: 438
Flags: W
Fore
325 133 m 0,0,1
 294 98 294 98 266.5 65.5 c 128,-1,2
 239 33 239 33 207 3 c 1,3,-1
 205 2 l 1,4,-1
 202 2 l 1,5,-1
 168 2 l 1,6,-1
 155 2 l 1,7,-1
 164 12 l 2,8,9
 169 18 169 18 174.5 23.5 c 128,-1,10
 180 29 180 29 186 37 c 0,11,12
 215 68 215 68 255 113 c 128,-1,13
 295 158 295 158 331 209 c 1,14,15
 292 198 292 198 250.5 198.5 c 128,-1,16
 209 199 209 199 177.5 213 c 128,-1,17
 146 227 146 227 129 255.5 c 128,-1,18
 112 284 112 284 121 329 c 1,19,-1
 122 330 l 1,20,21
 130 362 130 362 148 389 c 128,-1,22
 166 416 166 416 192 436 c 0,23,24
 220 456 220 456 252.5 467.5 c 128,-1,25
 285 479 285 479 320 478 c 2,26,-1
 321 478 l 2,27,28
 354 478 354 478 378 472 c 0,29,30
 404 465 404 465 418 452 c 128,-1,31
 432 439 432 439 442 420 c 0,32,33
 450 405 450 405 451 387 c 128,-1,34
 452 369 452 369 449 350 c 128,-1,35
 446 331 446 331 439.5 312.5 c 128,-1,36
 433 294 433 294 426 277 c 0,37,38
 408 239 408 239 381.5 203 c 128,-1,39
 355 167 355 167 325 133 c 0,0,1
363 261 m 1,40,41
 371 275 371 275 377 284.5 c 128,-1,42
 383 294 383 294 388 306 c 0,43,44
 399 330 399 330 398.5 353.5 c 128,-1,45
 398 377 398 377 386.5 395.5 c 128,-1,46
 375 414 375 414 352.5 424.5 c 128,-1,47
 330 435 330 435 297 432 c 0,48,49
 256 432 256 432 226 408 c 0,50,51
 198 385 198 385 183.5 357.5 c 128,-1,52
 169 330 169 330 170 301 c 0,53,54
 171 286 171 286 181 275 c 128,-1,55
 191 264 191 264 202 256 c 0,56,57
 226 241 226 241 265 241 c 0,58,59
 288 241 288 241 314 246 c 128,-1,60
 340 251 340 251 363 261 c 1,40,41
EndSplineSet
EndChar
StartChar: colon
Encoding: 58 58 27
Width: 137
Flags: W
Fore
85 79 m 1,0,1
 101 81 101 81 108 68 c 128,-1,2
 115 55 115 55 111 35 c 0,3,4
 107 16 107 16 94 2.5 c 128,-1,5
 81 -11 81 -11 66 -11 c 0,6,7
 49 -11 49 -11 41.5 2.5 c 128,-1,8
 34 16 34 16 39 35 c 0,9,10
 43 55 43 55 57 68 c 128,-1,11
 71 81 71 81 85 79 c 1,0,1
140 330 m 1,12,13
 154 332 154 332 161.5 319 c 128,-1,14
 169 306 169 306 164 286 c 0,15,16
 160 267 160 267 147.5 253.5 c 128,-1,17
 135 240 135 240 120 240 c 0,18,19
 104 240 104 240 96 253.5 c 128,-1,20
 88 267 88 267 93 286 c 0,21,22
 98 306 98 306 111.5 319 c 128,-1,23
 125 332 125 332 140 330 c 1,12,13
EndSplineSet
EndChar
StartChar: semicolon
Encoding: 59 59 28
Width: 147
Flags: W
Fore
111 67 m 0,0,1
 119 62 119 62 122 52 c 128,-1,2
 125 42 125 42 123 31 c 0,3,4
 119 11 119 11 109 -5.5 c 128,-1,5
 99 -22 99 -22 85.5 -35 c 128,-1,6
 72 -48 72 -48 57.5 -58 c 128,-1,7
 43 -68 43 -68 30 -74 c 1,8,-1
 0 -74 l 1,9,10
 25 -61 25 -61 48 -42 c 128,-1,11
 71 -23 71 -23 82 0 c 1,12,13
 53 -16 53 -16 36 -2 c 1,14,15
 29 7 29 7 33 23.5 c 128,-1,16
 37 40 37 40 54 56 c 0,17,18
 70 70 70 70 87 71 c 128,-1,19
 104 72 104 72 111 67 c 0,0,1
140 330 m 1,20,21
 154 332 154 332 161.5 319 c 128,-1,22
 169 306 169 306 164 286 c 0,23,24
 160 267 160 267 147.5 253.5 c 128,-1,25
 135 240 135 240 120 240 c 0,26,27
 104 240 104 240 96 253.5 c 128,-1,28
 88 267 88 267 93 286 c 0,29,30
 98 306 98 306 111.5 319 c 128,-1,31
 125 332 125 332 140 330 c 1,20,21
EndSplineSet
EndChar
StartChar: less
Encoding: 60 60 29
Width: 431
Flags: W
Fore
374 -1 m 1,0,1
 356 34 356 34 322 66 c 128,-1,2
 288 98 288 98 247.5 124 c 128,-1,3
 207 150 207 150 166 169.5 c 128,-1,4
 125 189 125 189 93 199 c 1,5,6
 130 211 130 211 178 230.5 c 128,-1,7
 226 250 226 250 276.5 276 c 128,-1,8
 327 302 327 302 375.5 334 c 128,-1,9
 424 366 424 366 460 403 c 1,10,-1
 445 330 l 1,11,12
 418 307 418 307 386.5 287.5 c 128,-1,13
 355 268 355 268 321.5 251.5 c 128,-1,14
 288 235 288 235 254 222 c 128,-1,15
 220 209 220 209 188 199 c 1,16,17
 215 190 215 190 243.5 178.5 c 128,-1,18
 272 167 272 167 299 151.5 c 128,-1,19
 326 136 326 136 349.5 116 c 128,-1,20
 373 96 373 96 390 71 c 1,21,-1
 374 -1 l 1,0,1
EndSplineSet
EndChar
StartChar: equal
Encoding: 61 61 30
Width: 448
Flags: W
Fore
57 100 m 1,0,-1
 69 157 l 1,1,-1
 441 157 l 1,2,-1
 429 100 l 1,3,-1
 57 100 l 1,0,-1
86 234 m 1,4,-1
 98 291 l 1,5,-1
 469 291 l 1,6,-1
 457 234 l 1,7,-1
 86 234 l 1,4,-1
EndSplineSet
EndChar
StartChar: greater
Encoding: 62 62 31
Width: 429
Flags: W
Fore
134 403 m 1,0,1
 152 368 152 368 186 336 c 128,-1,2
 220 304 220 304 260 278 c 128,-1,3
 300 252 300 252 341.5 232.5 c 128,-1,4
 383 213 383 213 415 203 c 1,5,6
 378 191 378 191 329.5 171.5 c 128,-1,7
 281 152 281 152 230.5 126 c 128,-1,8
 180 100 180 100 131.5 68 c 128,-1,9
 83 36 83 36 47 -1 c 1,10,-1
 63 72 l 1,11,12
 117 118 117 118 186 150.5 c 128,-1,13
 255 183 255 183 320 203 c 1,14,15
 293 212 293 212 264.5 223.5 c 128,-1,16
 236 235 236 235 209 250.5 c 128,-1,17
 182 266 182 266 158.5 285.5 c 128,-1,18
 135 305 135 305 119 331 c 1,19,-1
 134 403 l 1,0,1
EndSplineSet
EndChar
StartChar: question
Encoding: 63 63 32
Width: 375
Flags: W
Fore
255 363 m 0,0,1
 247 347 247 347 234.5 332.5 c 128,-1,2
 222 318 222 318 207.5 307 c 128,-1,3
 193 296 193 296 176.5 290.5 c 128,-1,4
 160 285 160 285 145 288 c 0,5,6
 132 290 132 290 123.5 301 c 128,-1,7
 115 312 115 312 112 327 c 128,-1,8
 109 342 109 342 110.5 359.5 c 128,-1,9
 112 377 112 377 120 394 c 0,10,11
 125 406 125 406 128.5 413.5 c 128,-1,12
 132 421 132 421 140 429 c 0,13,14
 162 455 162 455 186 469.5 c 128,-1,15
 210 484 210 484 248 493 c 0,16,17
 303 502 303 502 343 485.5 c 128,-1,18
 383 469 383 469 401 437.5 c 128,-1,19
 419 406 419 406 411.5 365 c 128,-1,20
 404 324 404 324 364 284 c 0,21,22
 352 272 352 272 338 262.5 c 128,-1,23
 324 253 324 253 309.5 243 c 128,-1,24
 295 233 295 233 282.5 222 c 128,-1,25
 270 211 270 211 262 197 c 0,26,27
 253 181 253 181 248 168 c 128,-1,28
 243 155 243 155 240 145 c 0,29,30
 236 134 236 134 236 124 c 1,31,-1
 177 123 l 1,32,33
 176 133 176 133 179 145 c 0,34,35
 181 156 181 156 187 171 c 128,-1,36
 193 186 193 186 205 206 c 0,37,38
 214 221 214 221 230.5 236 c 128,-1,39
 247 251 247 251 264 263 c 0,40,41
 283 277 283 277 304 289 c 1,42,43
 340 317 340 317 352 348 c 128,-1,44
 364 379 364 379 358.5 404.5 c 128,-1,45
 353 430 353 430 332.5 446.5 c 128,-1,46
 312 463 312 463 283 463 c 0,47,48
 274 463 274 463 259 461.5 c 128,-1,49
 244 460 244 460 231 454 c 1,50,51
 241 449 241 449 249 443 c 128,-1,52
 257 437 257 437 261 426.5 c 128,-1,53
 265 416 265 416 264 400.5 c 128,-1,54
 263 385 263 385 255 363 c 0,0,1
161 387 m 0,55,56
 157 378 157 378 153.5 367 c 128,-1,57
 150 356 150 356 149 346 c 128,-1,58
 148 336 148 336 150 328.5 c 128,-1,59
 152 321 152 321 159 320 c 1,60,61
 165 318 165 318 173 322.5 c 128,-1,62
 181 327 181 327 188.5 334 c 128,-1,63
 196 341 196 341 203 350 c 128,-1,64
 210 359 210 359 214 368 c 0,65,66
 223 386 223 386 224.5 405 c 128,-1,67
 226 424 226 424 213 429 c 0,68,69
 199 433 199 433 184.5 418.5 c 128,-1,70
 170 404 170 404 161 387 c 0,55,56
197 79 m 1,71,72
 213 81 213 81 220 68 c 128,-1,73
 227 55 227 55 223 35 c 0,74,75
 219 16 219 16 206 2.5 c 128,-1,76
 193 -11 193 -11 178 -11 c 0,77,78
 161 -11 161 -11 153.5 2.5 c 128,-1,79
 146 16 146 16 151 35 c 0,80,81
 155 55 155 55 169 68 c 128,-1,82
 183 81 183 81 197 79 c 1,71,72
EndSplineSet
EndChar
StartChar: at
Encoding: 64 64 33
Width: 637
Flags: W
Fore
419 400 m 0,0,1
 476 400 476 400 519.5 383.5 c 128,-1,2
 563 367 563 367 591 337 c 128,-1,3
 619 307 619 307 629 264.5 c 128,-1,4
 639 222 639 222 627 171 c 0,5,6
 619 135 619 135 601.5 105.5 c 128,-1,7
 584 76 584 76 561 53 c 128,-1,8
 538 30 538 30 512.5 14 c 128,-1,9
 487 -2 487 -2 464 -10 c 0,10,11
 443 -15 443 -15 434.5 -10 c 128,-1,12
 426 -5 426 -5 424 -3 c 1,13,14
 420 5 420 5 418 14 c 128,-1,15
 416 23 416 23 416 31 c 1,16,17
 407 25 407 25 390.5 15 c 128,-1,18
 374 5 374 5 352.5 -3 c 128,-1,19
 331 -11 331 -11 307 -15.5 c 128,-1,20
 283 -20 283 -20 259 -16 c 0,21,22
 225 -11 225 -11 206 11 c 128,-1,23
 187 33 187 33 194 68 c 0,24,25
 200 98 200 98 221 115 c 128,-1,26
 242 132 242 132 269 141 c 128,-1,27
 296 150 296 150 325.5 154.5 c 128,-1,28
 355 159 355 159 379 164 c 0,29,30
 387 166 387 166 398.5 169.5 c 128,-1,31
 410 173 410 173 421 178 c 128,-1,32
 432 183 432 183 441 190.5 c 128,-1,33
 450 198 450 198 452 208 c 0,34,35
 454 221 454 221 452.5 230.5 c 128,-1,36
 451 240 451 240 440 250 c 0,37,38
 427 262 427 262 403 265 c 128,-1,39
 379 268 379 268 351 265 c 128,-1,40
 323 262 323 262 294.5 254 c 128,-1,41
 266 246 266 246 245 236 c 1,42,-1
 258 273 l 1,43,44
 281 284 281 284 310.5 290 c 128,-1,45
 340 296 340 296 369.5 296.5 c 128,-1,46
 399 297 399 297 425.5 293 c 128,-1,47
 452 289 452 289 470 279 c 0,48,49
 487 271 487 271 494 251 c 128,-1,50
 501 231 501 231 496 207 c 2,51,-1
 463 51 l 2,52,53
 462 45 462 45 461 39.5 c 128,-1,54
 460 34 460 34 461 29 c 1,55,56
 478 36 478 36 496 49 c 128,-1,57
 514 62 514 62 529.5 80 c 128,-1,58
 545 98 545 98 556.5 120 c 128,-1,59
 568 142 568 142 574 167 c 0,60,61
 583 209 583 209 575 244 c 128,-1,62
 567 279 567 279 544.5 304 c 128,-1,63
 522 329 522 329 486 342 c 128,-1,64
 450 355 450 355 404 354 c 0,65,66
 351 352 351 352 304 337 c 128,-1,67
 257 322 257 322 219.5 293.5 c 128,-1,68
 182 265 182 265 156 223.5 c 128,-1,69
 130 182 130 182 118 127 c 0,70,71
 109 82 109 82 118.5 45.5 c 128,-1,72
 128 9 128 9 151 -17 c 128,-1,73
 174 -43 174 -43 208.5 -57 c 128,-1,74
 243 -71 243 -71 284 -71 c 0,75,76
 319 -71 319 -71 347.5 -66.5 c 128,-1,77
 376 -62 376 -62 404 -50 c 1,78,-1
 430 -72 l 1,79,80
 395 -90 395 -90 352.5 -100 c 128,-1,81
 310 -110 310 -110 274 -111 c 0,82,83
 222 -112 222 -112 179 -95 c 128,-1,84
 136 -78 136 -78 107 -46.5 c 128,-1,85
 78 -15 78 -15 66 29 c 128,-1,86
 54 73 54 73 65 124 c 0,87,88
 77 177 77 177 103 226.5 c 128,-1,89
 129 276 129 276 171.5 314 c 128,-1,90
 214 352 214 352 275.5 375.5 c 128,-1,91
 337 399 337 399 419 400 c 0,0,1
443 158 m 1,92,93
 407 134 407 134 368 128 c 0,94,95
 349 125 349 125 327.5 121.5 c 128,-1,96
 306 118 306 118 287 111.5 c 128,-1,97
 268 105 268 105 255 95 c 128,-1,98
 242 85 242 85 239 68 c 0,99,100
 234 45 234 45 247 31.5 c 128,-1,101
 260 18 260 18 282 17 c 0,102,103
 313 15 313 15 339.5 24 c 128,-1,104
 366 33 366 33 385 44 c 0,105,106
 407 57 407 57 425 75 c 1,107,-1
 443 158 l 1,92,93
EndSplineSet
EndChar
StartChar: A
Encoding: 65 65 34
Width: 476
Flags: W
Fore
375 145 m 1,0,-1
 155 145 l 1,1,-1
 88 1 l 1,2,-1
 36 1 l 1,3,-1
 204 364 l 2,4,5
 217 388 217 388 229.5 410 c 128,-1,6
 242 432 242 432 257.5 448.5 c 128,-1,7
 273 465 273 465 292.5 474.5 c 128,-1,8
 312 484 312 484 339 483 c 0,9,10
 362 482 362 482 376 473 c 128,-1,11
 390 464 390 464 398 450.5 c 128,-1,12
 406 437 406 437 409 420 c 128,-1,13
 412 403 412 403 413 386 c 0,14,15
 420 289 420 289 424 193 c 128,-1,16
 428 97 428 97 434 1 c 1,17,-1
 383 1 l 1,18,-1
 375 145 l 1,0,-1
374 185 m 1,19,-1
 366 347 l 2,20,21
 364 366 364 366 363 381 c 128,-1,22
 362 396 362 396 358 409 c 0,23,24
 355 426 355 426 346 434 c 128,-1,25
 337 442 337 442 326 441.5 c 128,-1,26
 315 441 315 441 303.5 433 c 128,-1,27
 292 425 292 425 284 411 c 0,28,29
 278 401 278 401 274 393.5 c 128,-1,30
 270 386 270 386 266.5 379 c 128,-1,31
 263 372 263 372 259.5 364.5 c 128,-1,32
 256 357 256 357 251 347 c 2,33,-1
 175 185 l 1,34,-1
 374 185 l 1,19,-1
EndSplineSet
EndChar
StartChar: B
Encoding: 66 66 35
Width: 502
Flags: W
Fore
357 285 m 1,0,1
 374 281 374 281 396 272 c 128,-1,2
 418 263 418 263 436 246.5 c 128,-1,3
 454 230 454 230 463.5 204.5 c 128,-1,4
 473 179 473 179 465 143 c 0,5,6
 456 101 456 101 436.5 74.5 c 128,-1,7
 417 48 417 48 392.5 32 c 128,-1,8
 368 16 368 16 342 9 c 128,-1,9
 316 2 316 2 293 1 c 1,10,-1
 295 0 l 1,11,-1
 71 0 l 1,12,-1
 170 475 l 1,13,-1
 387 475 l 2,14,15
 405 473 405 473 421.5 468 c 128,-1,16
 438 463 438 463 449 452 c 128,-1,17
 460 441 460 441 465 423.5 c 128,-1,18
 470 406 470 406 464 380 c 0,19,20
 461 363 461 363 452 349 c 128,-1,21
 443 335 443 335 430 321 c 0,22,23
 418 308 418 308 396.5 299 c 128,-1,24
 375 290 375 290 357 285 c 1,0,1
286 41 m 2,25,26
 305 41 305 41 325 45 c 128,-1,27
 345 49 345 49 363 60.5 c 128,-1,28
 381 72 381 72 395.5 92.5 c 128,-1,29
 410 113 410 113 417 146 c 0,30,31
 423 175 423 175 414.5 197 c 128,-1,32
 406 219 406 219 390 233.5 c 128,-1,33
 374 248 374 248 353.5 255.5 c 128,-1,34
 333 263 333 263 315 265 c 2,35,-1
 266 265 l 1,36,-1
 275 310 l 1,37,-1
 332 311 l 2,38,39
 359 313 359 313 385 331 c 128,-1,40
 411 349 411 349 417 378 c 0,41,42
 423 406 423 406 408.5 420.5 c 128,-1,43
 394 435 394 435 368 437 c 2,44,-1
 212 437 l 1,45,46
 202 391 202 391 191.5 339.5 c 128,-1,47
 181 288 181 288 170 236 c 128,-1,48
 159 184 159 184 148.5 134 c 128,-1,49
 138 84 138 84 129 41 c 1,50,-1
 286 41 l 2,25,26
EndSplineSet
EndChar
StartChar: C
Encoding: 67 67 36
Width: 446
Flags: W
Fore
100 144 m 0,0,1
 103 157 103 157 108 181 c 128,-1,2
 113 205 113 205 119 233 c 128,-1,3
 125 261 125 261 131.5 291 c 128,-1,4
 138 321 138 321 144 347 c 0,5,6
 148 367 148 367 159 384.5 c 128,-1,7
 170 402 170 402 184 416 c 128,-1,8
 198 430 198 430 213 441 c 128,-1,9
 228 452 228 452 240 458 c 0,10,11
 268 473 268 473 307.5 478.5 c 128,-1,12
 347 484 347 484 384.5 479 c 128,-1,13
 422 474 422 474 451.5 457.5 c 128,-1,14
 481 441 481 441 490 411 c 1,15,-1
 457 382 l 1,16,17
 451 407 451 407 427.5 421 c 128,-1,18
 404 435 404 435 373 439 c 128,-1,19
 342 443 342 443 310 438 c 128,-1,20
 278 433 278 433 256 421 c 0,21,22
 233 409 233 409 215.5 390 c 128,-1,23
 198 371 198 371 193 349 c 0,24,25
 186 317 186 317 180.5 290.5 c 128,-1,26
 175 264 175 264 169.5 239 c 128,-1,27
 164 214 164 214 158.5 187.5 c 128,-1,28
 153 161 153 161 146 129 c 0,29,30
 141 107 141 107 151 88 c 128,-1,31
 161 69 161 69 179 57 c 0,32,33
 196 45 196 45 226 40 c 128,-1,34
 256 35 256 35 288 39 c 128,-1,35
 320 43 320 43 349.5 56.5 c 128,-1,36
 379 70 379 70 396 96 c 1,37,-1
 417 67 l 1,38,39
 395 37 395 37 358.5 20.5 c 128,-1,40
 322 4 322 4 282 -1 c 128,-1,41
 242 -6 242 -6 205.5 -0.5 c 128,-1,42
 169 5 169 5 147 20 c 0,43,44
 137 26 137 26 126.5 37.5 c 128,-1,45
 116 49 116 49 108.5 64.5 c 128,-1,46
 101 80 101 80 98 100 c 128,-1,47
 95 120 95 120 100 144 c 0,0,1
EndSplineSet
EndChar
StartChar: D
Encoding: 68 68 37
Width: 465
Flags: W
Fore
413 428 m 1,0,1
 462 384 462 384 467.5 323 c 128,-1,2
 473 262 473 262 451 196 c 0,3,4
 440 162 440 162 422 127 c 128,-1,5
 404 92 404 92 373.5 64 c 128,-1,6
 343 36 343 36 298 18.5 c 128,-1,7
 253 1 253 1 189 3 c 2,8,9
 178.5 3 l 130,-1,10
 168 3 168 3 153 3 c 128,-1,11
 138 3 138 3 121 2.5 c 128,-1,12
 104 2 104 2 90.5 2 c 128,-1,13
 77 2 77 2 70.5 2 c 128,-1,14
 64 2 64 2 69 2 c 1,15,-1
 172 480 l 1,16,-1
 202 480 l 2,17,18
 263 477 263 477 301 470.5 c 128,-1,19
 339 464 339 464 361.5 456.5 c 128,-1,20
 384 449 384 449 394.5 441 c 128,-1,21
 405 433 405 433 413 428 c 1,0,1
359 115 m 0,22,23
 396 171 396 171 408 219 c 128,-1,24
 420 267 420 267 415.5 304.5 c 128,-1,25
 411 342 411 342 396 367.5 c 128,-1,26
 381 393 381 393 365 404 c 0,27,28
 345 417 345 417 321 424.5 c 128,-1,29
 297 432 297 432 274.5 435.5 c 128,-1,30
 252 439 252 439 234 440 c 128,-1,31
 216 441 216 441 209 441 c 1,32,-1
 124 41 l 1,33,34
 160 40 160 40 194.5 41.5 c 128,-1,35
 229 43 229 43 260 51 c 128,-1,36
 291 59 291 59 316 74 c 128,-1,37
 341 89 341 89 359 115 c 0,22,23
EndSplineSet
EndChar
StartChar: E
Encoding: 69 69 38
Width: 453
Flags: W
Fore
362 436 m 1,0,1
 334 436 334 436 306 432.5 c 128,-1,2
 278 429 278 429 253.5 415.5 c 128,-1,3
 229 402 229 402 210 375 c 128,-1,4
 191 348 191 348 182 302 c 2,5,-1
 172 255 l 1,6,-1
 383 255 l 1,7,-1
 374 215 l 1,8,-1
 163 215 l 1,9,-1
 154 170 l 2,10,11
 143 123 143 123 150.5 96.5 c 128,-1,12
 158 70 158 70 177 56.5 c 128,-1,13
 196 43 196 43 222.5 39.5 c 128,-1,14
 249 36 249 36 277 36 c 2,15,-1
 412 36 l 1,16,-1
 404 -3 l 1,17,-1
 270 -3 l 2,18,19
 234 -2 234 -2 199 3.5 c 128,-1,20
 164 9 164 9 139 27.5 c 128,-1,21
 114 46 114 46 103.5 80 c 128,-1,22
 93 114 93 114 105 172 c 2,23,-1
 132 300 l 2,24,25
 145 358 145 358 170 392 c 128,-1,26
 195 426 195 426 227.5 444.5 c 128,-1,27
 260 463 260 463 297.5 468.5 c 128,-1,28
 335 474 335 474 371 475 c 0,29,30
 376 475 376 475 396 475.5 c 128,-1,31
 416 476 416 476 438.5 476 c 128,-1,32
 461 476 461 476 480.5 475.5 c 128,-1,33
 500 475 500 475 505 475 c 1,34,-1
 497 436 l 1,35,-1
 362 436 l 1,36,-1
 362 436 l 1,0,1
EndSplineSet
EndChar
StartChar: F
Encoding: 70 70 39
Width: 450
Flags: W
Fore
363 437 m 1,0,1
 335 437 335 437 307 433.5 c 128,-1,2
 279 430 279 430 254.5 416.5 c 128,-1,3
 230 403 230 403 211 376 c 128,-1,4
 192 349 192 349 183 303 c 2,5,-1
 173 256 l 1,6,-1
 384 256 l 1,7,-1
 375 216 l 1,8,-1
 164 216 l 1,9,-1
 119 1 l 1,10,-1
 70 1 l 1,11,-1
 133 301 l 2,12,13
 146 359 146 359 171 393 c 128,-1,14
 196 427 196 427 229 445.5 c 128,-1,15
 262 464 262 464 299 469.5 c 128,-1,16
 336 475 336 475 373 476 c 0,17,18
 378 476 378 476 397.5 476.5 c 128,-1,19
 417 477 417 477 439.5 477 c 128,-1,20
 462 477 462 477 482 476.5 c 128,-1,21
 502 476 502 476 507 476 c 1,22,-1
 498 437 l 1,23,-1
 363 437 l 1,24,-1
 363 437 l 1,0,1
EndSplineSet
EndChar
StartChar: G
Encoding: 71 71 40
Width: 476
Flags: W
Fore
267 41 m 0,0,1
 328 40 328 40 360.5 66.5 c 128,-1,2
 393 93 393 93 407 147 c 0,3,4
 414 176 414 176 408 191.5 c 128,-1,5
 402 207 402 207 388.5 214 c 128,-1,6
 375 221 375 221 356.5 222.5 c 128,-1,7
 338 224 338 224 320 226 c 1,8,-1
 328 267 l 1,9,10
 362 271 362 271 390 267 c 128,-1,11
 418 263 418 263 436 248 c 128,-1,12
 454 233 454 233 460 207 c 128,-1,13
 466 181 466 181 456 143 c 0,14,15
 444 100 444 100 424.5 71.5 c 128,-1,16
 405 43 405 43 379.5 26 c 128,-1,17
 354 9 354 9 323.5 2.5 c 128,-1,18
 293 -4 293 -4 259 -4 c 0,19,20
 223 -3 223 -3 189.5 3 c 128,-1,21
 156 9 156 9 133.5 28 c 128,-1,22
 111 47 111 47 102 81.5 c 128,-1,23
 93 116 93 116 105 173 c 2,24,-1
 145 357 l 2,25,26
 149 376 149 376 159.5 392 c 128,-1,27
 170 408 170 408 183.5 420 c 128,-1,28
 197 432 197 432 212 441.5 c 128,-1,29
 227 451 227 451 240 457 c 0,30,31
 268 472 268 472 307.5 477.5 c 128,-1,32
 347 483 347 483 385 478 c 128,-1,33
 423 473 423 473 453 456.5 c 128,-1,34
 483 440 483 440 492 410 c 1,35,-1
 457 372 l 1,36,37
 452 397 452 397 429.5 412.5 c 128,-1,38
 407 428 407 428 377.5 433.5 c 128,-1,39
 348 439 348 439 316.5 435.5 c 128,-1,40
 285 432 285 432 263 420 c 0,41,42
 240 408 240 408 221 385.5 c 128,-1,43
 202 363 202 363 197 341 c 0,44,45
 194 324 194 324 190.5 310 c 128,-1,46
 187 296 187 296 183 277.5 c 128,-1,47
 179 259 179 259 173.5 233.5 c 128,-1,48
 168 208 168 208 160 169 c 0,49,50
 152 124 152 124 159 99 c 128,-1,51
 166 74 166 74 182 61.5 c 128,-1,52
 198 49 198 49 220.5 45.5 c 128,-1,53
 243 42 243 42 267 41 c 0,0,1
EndSplineSet
EndChar
StartChar: H
Encoding: 72 72 41
Width: 501
Flags: W
Fore
482 476 m 1,0,-1
 532 476 l 1,1,-1
 431 1 l 1,2,-1
 381 1 l 1,3,-1
 426 216 l 1,4,-1
 166 216 l 1,5,-1
 121 1 l 1,6,-1
 71 1 l 1,7,-1
 172 476 l 1,8,-1
 222 476 l 1,9,-1
 175 256 l 1,10,-1
 435 256 l 1,11,-1
 482 476 l 1,12,-1
 482 476 l 1,0,-1
EndSplineSet
EndChar
StartChar: I
Encoding: 73 73 42
Width: 191
Flags: W
Fore
170 476 m 1,0,-1
 220 476 l 1,1,-1
 119 1 l 1,2,-1
 68 1 l 1,3,-1
 170 476 l 1,4,-1
 170 476 l 1,0,-1
EndSplineSet
EndChar
StartChar: J
Encoding: 74 74 43
Width: 321
Flags: W
Fore
84 98 m 1,0,1
 80 61 80 61 98.5 44 c 128,-1,2
 117 27 117 27 142.5 29 c 128,-1,3
 168 31 168 31 192.5 53 c 128,-1,4
 217 75 217 75 226 116 c 0,5,6
 233 150 233 150 243 197.5 c 128,-1,7
 253 245 253 245 264 295.5 c 128,-1,8
 275 346 275 346 285 393.5 c 128,-1,9
 295 441 295 441 302 475 c 1,10,-1
 351 475 l 1,11,12
 343 437 343 437 333 388 c 128,-1,13
 323 339 323 339 312 288 c 128,-1,14
 301 237 301 237 290.5 187.5 c 128,-1,15
 280 138 280 138 272 100 c 0,16,17
 264 65 264 65 241.5 41.5 c 128,-1,18
 219 18 219 18 190.5 6 c 128,-1,19
 162 -6 162 -6 131.5 -6.5 c 128,-1,20
 101 -7 101 -7 77.5 4.5 c 128,-1,21
 54 16 54 16 41.5 39 c 128,-1,22
 29 62 29 62 37 98 c 1,23,-1
 84 98 l 1,0,1
EndSplineSet
EndChar
StartChar: K
Encoding: 75 75 44
Width: 491
Flags: W
Fore
395 279 m 0,0,1
 379 293 379 293 356.5 300 c 128,-1,2
 334 307 334 307 309 309 c 1,3,-1
 160 191 l 1,4,-1
 121 3 l 1,5,-1
 68 2 l 1,6,-1
 68 3 l 1,7,-1
 172 488 l 1,8,-1
 224 488 l 1,9,-1
 177 258 l 1,10,-1
 474 488 l 1,11,-1
 532 488 l 1,12,-1
 351 348 l 1,13,14
 380 346 380 346 404.5 334 c 128,-1,15
 429 322 429 322 445 306 c 0,16,17
 465 283 465 283 464 247.5 c 128,-1,18
 463 212 463 212 452 158 c 2,19,-1
 419 2 l 1,20,-1
 369 2 l 1,21,-1
 402 156 l 2,22,23
 411 195 411 195 411.5 230 c 128,-1,24
 412 265 412 265 395 279 c 0,0,1
EndSplineSet
EndChar
StartChar: L
Encoding: 76 76 45
Width: 423
Flags: W
Fore
375 -1 m 1,0,-1
 241 -1 l 2,1,2
 205 0 205 0 174.5 6 c 128,-1,3
 144 12 144 12 124.5 30 c 128,-1,4
 105 48 105 48 98.5 82.5 c 128,-1,5
 92 117 92 117 104 174 c 2,6,-1
 170 476 l 1,7,-1
 218 476 l 1,8,-1
 154 173 l 2,9,10
 143 126 143 126 149 99.5 c 128,-1,11
 155 73 155 73 172 59.5 c 128,-1,12
 189 46 189 46 214 42.5 c 128,-1,13
 239 39 239 39 267 39 c 2,14,-1
 384 39 l 1,15,-1
 375 -1 l 1,0,-1
EndSplineSet
EndChar
StartChar: M
Encoding: 77 77 46
Width: 596
Flags: W
Fore
229 486 m 1,0,-1
 230 486 l 1,1,-1
 229 486 l 1,0,-1
219 476 m 1,2,3
 237 466 237 466 257 448.5 c 128,-1,4
 277 431 277 431 296.5 408.5 c 128,-1,5
 316 386 316 386 333 360.5 c 128,-1,6
 350 335 350 335 361 310 c 1,7,8
 387 340 387 340 416.5 366 c 128,-1,9
 446 392 446 392 474.5 413.5 c 128,-1,10
 503 435 503 435 529 451 c 128,-1,11
 555 467 555 467 575 476 c 1,12,-1
 626 476 l 1,13,-1
 527 0 l 1,14,-1
 479 0 l 1,15,16
 482 16 482 16 488.5 49.5 c 128,-1,17
 495 83 495 83 504 125 c 128,-1,18
 513 167 513 167 522.5 214 c 128,-1,19
 532 261 532 261 541 303 c 128,-1,20
 550 345 550 345 557 378 c 128,-1,21
 564 411 564 411 567 427 c 1,22,23
 557 424 557 424 539 412.5 c 128,-1,24
 521 401 521 401 499 384.5 c 128,-1,25
 477 368 477 368 453.5 348 c 128,-1,26
 430 328 430 328 408.5 308 c 128,-1,27
 387 288 387 288 370.5 270 c 128,-1,28
 354 252 354 252 346 240 c 1,29,30
 335 272 335 272 318.5 302 c 128,-1,31
 302 332 302 332 283 357 c 128,-1,32
 264 382 264 382 244.5 400.5 c 128,-1,33
 225 419 225 419 208 427 c 1,34,35
 205 413 205 413 198 380.5 c 128,-1,36
 191 348 191 348 182.5 305.5 c 128,-1,37
 174 263 174 263 164 216 c 128,-1,38
 154 169 154 169 145 126 c 128,-1,39
 136 83 136 83 129 49 c 128,-1,40
 122 15 122 15 120 0 c 1,41,-1
 70 0 l 1,42,-1
 170 476 l 1,43,-1
 219 476 l 1,2,3
EndSplineSet
EndChar
StartChar: N
Encoding: 78 78 47
Width: 518
Flags: W
Fore
424 111 m 0,0,1
 431 145 431 145 441.5 193.5 c 128,-1,2
 452 242 452 242 463 293.5 c 128,-1,3
 474 345 474 345 484 393.5 c 128,-1,4
 494 442 494 442 502 477 c 1,5,-1
 553 477 l 1,6,-1
 470 89 l 2,7,8
 465 64 465 64 451.5 46.5 c 128,-1,9
 438 29 438 29 421 18 c 128,-1,10
 404 7 404 7 386 1.5 c 128,-1,11
 368 -4 368 -4 355 -4 c 1,12,13
 352 3 352 3 340 33 c 128,-1,14
 328 63 328 63 311.5 104 c 128,-1,15
 295 145 295 145 276 192 c 128,-1,16
 257 239 257 239 240.5 280 c 128,-1,17
 224 321 224 321 212.5 351 c 128,-1,18
 201 381 201 381 199 388 c 1,19,-1
 116 1 l 1,20,-1
 62 1 l 1,21,-1
 165 477 l 1,22,-1
 213 477 l 1,23,-1
 389 43 l 1,24,25
 404 48 404 48 411 64.5 c 128,-1,26
 418 81 418 81 424 111 c 0,0,1
EndSplineSet
EndChar
StartChar: O
Encoding: 79 79 48
Width: 494
Flags: W
Fore
364 485 m 0,0,1
 395 483 395 483 422.5 474.5 c 128,-1,2
 450 466 450 466 469.5 450.5 c 128,-1,3
 489 435 489 435 498 412.5 c 128,-1,4
 507 390 507 390 501 360 c 2,5,-1
 449 114 l 2,6,7
 443 84 443 84 423 61 c 128,-1,8
 403 38 403 38 374 22.5 c 128,-1,9
 345 7 345 7 310 -1 c 128,-1,10
 275 -9 275 -9 238 -10 c 0,11,12
 196 -10 196 -10 166.5 1 c 128,-1,13
 137 12 137 12 118.5 29 c 128,-1,14
 100 46 100 46 93.5 68.5 c 128,-1,15
 87 91 87 91 92 114 c 2,16,-1
 145 360 l 2,17,18
 152 393 152 393 174.5 417.5 c 128,-1,19
 197 442 197 442 228 457.5 c 128,-1,20
 259 473 259 473 295 480 c 128,-1,21
 331 487 331 487 364 485 c 0,0,1
449 347 m 2,22,23
 455 375 455 375 448 394 c 128,-1,24
 441 413 441 413 425 423.5 c 128,-1,25
 409 434 409 434 386.5 438 c 128,-1,26
 364 442 364 442 339 442 c 0,27,28
 315 442 315 442 291 437.5 c 128,-1,29
 267 433 267 433 246.5 422 c 128,-1,30
 226 411 226 411 211 393 c 128,-1,31
 196 375 196 375 190 347 c 2,32,-1
 143 127 l 2,33,34
 137 99 137 99 144.5 80.5 c 128,-1,35
 152 62 152 62 168 51.5 c 128,-1,36
 184 41 184 41 206 36.5 c 128,-1,37
 228 32 228 32 252 32 c 256,38,39
 276 32 276 32 300.5 36.5 c 128,-1,40
 325 41 325 41 345.5 51.5 c 128,-1,41
 366 62 366 62 381 80.5 c 128,-1,42
 396 99 396 99 402 127 c 2,43,-1
 449 347 l 2,22,23
EndSplineSet
EndChar
StartChar: P
Encoding: 80 80 49
Width: 456
Flags: W
Fore
357 474 m 2,0,1
 380 474 380 474 405 466.5 c 128,-1,2
 430 459 430 459 448.5 440.5 c 128,-1,3
 467 422 467 422 476.5 392 c 128,-1,4
 486 362 486 362 477 317 c 0,5,6
 471 288 471 288 454.5 263.5 c 128,-1,7
 438 239 438 239 413 221 c 128,-1,8
 388 203 388 203 357.5 192.5 c 128,-1,9
 327 182 327 182 293 182 c 2,10,-1
 155 182 l 1,11,12
 144 133 144 133 133.5 84.5 c 128,-1,13
 123 36 123 36 115 -1 c 1,14,-1
 64 -1 l 1,15,-1
 166 474 l 1,16,-1
 357 474 l 2,0,1
293 221 m 2,17,18
 314 222 314 222 336.5 226.5 c 128,-1,19
 359 231 359 231 378 241 c 128,-1,20
 397 251 397 251 411.5 268.5 c 128,-1,21
 426 286 426 286 432 314 c 0,22,23
 439 350 439 350 433 373.5 c 128,-1,24
 427 397 427 397 412.5 411.5 c 128,-1,25
 398 426 398 426 378 432 c 128,-1,26
 358 438 358 438 339 438 c 2,27,-1
 210 438 l 1,28,29
 199 388 199 388 188 337.5 c 128,-1,30
 177 287 177 287 163 220 c 1,31,-1
 293 221 l 2,17,18
EndSplineSet
EndChar
StartChar: Q
Encoding: 81 81 50
Width: 493
Flags: W
Fore
410 -68 m 1,0,1
 393 -68 393 -68 375 -65.5 c 128,-1,2
 357 -63 357 -63 340 -56.5 c 128,-1,3
 323 -50 323 -50 309 -38 c 128,-1,4
 295 -26 295 -26 288 -7 c 1,5,6
 281 -9 281 -9 271 -9.5 c 128,-1,7
 261 -10 261 -10 251 -10 c 2,8,-1
 227 -10 l 2,9,10
 196 -8 196 -8 168.5 0.5 c 128,-1,11
 141 9 141 9 122 24.5 c 128,-1,12
 103 40 103 40 94.5 62.5 c 128,-1,13
 86 85 86 85 92 114 c 2,14,-1
 145 360 l 2,15,16
 151 390 151 390 170.5 412.5 c 128,-1,17
 190 435 190 435 217 451 c 128,-1,18
 244 467 244 467 276 475 c 128,-1,19
 308 483 308 483 341 485 c 0,20,21
 358 485 358 485 376.5 483 c 128,-1,22
 395 481 395 481 412 476.5 c 128,-1,23
 429 472 429 472 443.5 465.5 c 128,-1,24
 458 459 458 459 468 452 c 0,25,26
 488 436 488 436 498 413 c 128,-1,27
 508 390 508 390 501 360 c 2,28,-1
 449 114 l 2,29,30
 440 72 440 72 406.5 44 c 128,-1,31
 373 16 373 16 329 2 c 1,32,33
 341 -7 341 -7 355 -15 c 0,34,35
 367 -22 367 -22 383 -27.5 c 128,-1,36
 399 -33 399 -33 418 -32 c 1,37,-1
 410 -68 l 1,0,1
249 32 m 0,38,39
 266 32 266 32 290 36 c 128,-1,40
 314 40 314 40 337 51 c 128,-1,41
 360 62 360 62 378 80.5 c 128,-1,42
 396 99 396 99 402 127 c 2,43,-1
 449 347 l 2,44,45
 455 375 455 375 444 394 c 128,-1,46
 433 413 433 413 414 424 c 128,-1,47
 395 435 395 435 372.5 439 c 128,-1,48
 350 443 350 443 333 442 c 0,49,50
 310 440 310 440 287 435.5 c 128,-1,51
 264 431 264 431 244.5 420.5 c 128,-1,52
 225 410 225 410 210.5 392 c 128,-1,53
 196 374 196 374 190 347 c 2,54,-1
 143 127 l 2,55,56
 137 99 137 99 144.5 81 c 128,-1,57
 152 63 152 63 167.5 52 c 128,-1,58
 183 41 183 41 204.5 36.5 c 128,-1,59
 226 32 226 32 249 32 c 0,38,39
EndSplineSet
EndChar
StartChar: R
Encoding: 82 82 51
Width: 466
Flags: W
Fore
348 239 m 1,0,1
 366 231 366 231 384 219 c 128,-1,2
 402 207 402 207 414.5 188.5 c 128,-1,3
 427 170 427 170 431.5 144.5 c 128,-1,4
 436 119 436 119 429 84 c 2,5,-1
 414 0 l 1,6,-1
 362 0 l 1,7,-1
 377 82 l 2,8,9
 385 119 385 119 379.5 143.5 c 128,-1,10
 374 168 374 168 359.5 183 c 128,-1,11
 345 198 345 198 324.5 205 c 128,-1,12
 304 212 304 212 281 215 c 0,13,14
 274 216 274 216 265.5 217 c 128,-1,15
 257 218 257 218 244 218.5 c 128,-1,16
 231 219 231 219 211.5 219 c 128,-1,17
 192 219 192 219 162 219 c 1,18,19
 157 195 157 195 150.5 164.5 c 128,-1,20
 144 134 144 134 138 103.5 c 128,-1,21
 132 73 132 73 126.5 45.5 c 128,-1,22
 121 18 121 18 118 0 c 1,23,-1
 68 0 l 1,24,-1
 167 475 l 1,25,-1
 336 475 l 2,26,27
 359 475 359 475 387 470.5 c 128,-1,28
 415 466 415 466 438.5 452.5 c 128,-1,29
 462 439 462 439 474.5 413 c 128,-1,30
 487 387 487 387 479 344 c 0,31,32
 474 323 474 323 461 306 c 128,-1,33
 448 289 448 289 430 276 c 128,-1,34
 412 263 412 263 390.5 254 c 128,-1,35
 369 245 369 245 348 239 c 1,0,1
290 257 m 2,36,37
 311 259 311 259 333 261.5 c 128,-1,38
 355 264 355 264 373.5 272 c 128,-1,39
 392 280 392 280 406.5 296 c 128,-1,40
 421 312 421 312 427 340 c 0,41,42
 434 376 434 376 427 395.5 c 128,-1,43
 420 415 420 415 404.5 424.5 c 128,-1,44
 389 434 389 434 368.5 436.5 c 128,-1,45
 348 439 348 439 329 439 c 2,46,-1
 210 439 l 1,47,48
 205 414 205 414 201 395 c 128,-1,49
 197 376 197 376 192.5 356.5 c 128,-1,50
 188 337 188 337 182.5 313.5 c 128,-1,51
 177 290 177 290 170 257 c 1,52,-1
 290 257 l 2,36,37
EndSplineSet
EndChar
StartChar: S
Encoding: 83 83 52
Width: 476
Flags: W
Fore
395 130 m 0,0,1
 400 163 400 163 379.5 179 c 128,-1,2
 359 195 359 195 326.5 203.5 c 128,-1,3
 294 212 294 212 256 218 c 128,-1,4
 218 224 218 224 187.5 237.5 c 128,-1,5
 157 251 157 251 140.5 276.5 c 128,-1,6
 124 302 124 302 135 350 c 0,7,8
 142 384 142 384 164 410 c 128,-1,9
 186 436 186 436 215.5 453 c 128,-1,10
 245 470 245 470 278.5 478.5 c 128,-1,11
 312 487 312 487 342 487 c 0,12,13
 367 487 367 487 393 481 c 128,-1,14
 419 475 419 475 440 463 c 128,-1,15
 461 451 461 451 474.5 432 c 128,-1,16
 488 413 488 413 488 387 c 1,17,-1
 439 387 l 1,18,19
 431 408 431 408 419 419.5 c 128,-1,20
 407 431 407 431 392.5 437 c 128,-1,21
 378 443 378 443 362.5 445 c 128,-1,22
 347 447 347 447 333 447 c 0,23,24
 314 447 314 447 291.5 442.5 c 128,-1,25
 269 438 269 438 248.5 427 c 128,-1,26
 228 416 228 416 212 397 c 128,-1,27
 196 378 196 378 192 350 c 0,28,29
 186 312 186 312 205 294.5 c 128,-1,30
 224 277 224 277 256 269 c 128,-1,31
 288 261 288 261 326 256.5 c 128,-1,32
 364 252 364 252 395 240.5 c 128,-1,33
 426 229 426 229 443.5 204 c 128,-1,34
 461 179 461 179 453 130 c 0,35,36
 447 93 447 93 424 66.5 c 128,-1,37
 401 40 401 40 369.5 22.5 c 128,-1,38
 338 5 338 5 302 -3 c 128,-1,39
 266 -11 266 -11 234 -11 c 0,40,41
 207 -11 207 -11 179.5 -6.5 c 128,-1,42
 152 -2 152 -2 128.5 10 c 128,-1,43
 105 22 105 22 88 42.5 c 128,-1,44
 71 63 71 63 65 95 c 1,45,-1
 116 95 l 1,46,47
 121 74 121 74 138 61 c 128,-1,48
 155 48 155 48 175.5 40.5 c 128,-1,49
 196 33 196 33 216 30.5 c 128,-1,50
 236 28 236 28 248 30 c 0,51,52
 274 34 274 34 298.5 40.5 c 128,-1,53
 323 47 323 47 343 58.5 c 128,-1,54
 363 70 363 70 376.5 87.5 c 128,-1,55
 390 105 390 105 395 130 c 0,0,1
EndSplineSet
EndChar
StartChar: T
Encoding: 84 84 53
Width: 446
Flags: W
Fore
498 475 m 1,0,-1
 490 435 l 1,1,-1
 337 435 l 1,2,-1
 244 -1 l 1,3,-1
 193 -1 l 1,4,-1
 286 435 l 1,5,-1
 138 435 l 1,6,-1
 146 475 l 1,7,-1
 498 475 l 1,8,-1
 498 475 l 1,0,-1
EndSplineSet
EndChar
StartChar: U
Encoding: 85 85 54
Width: 511
Flags: W
Fore
543 475 m 1,0,1
 540 459 540 459 534 431 c 128,-1,2
 528 403 528 403 521 369.5 c 128,-1,3
 514 336 514 336 506 299 c 128,-1,4
 498 262 498 262 491 227 c 128,-1,5
 484 192 484 192 477.5 162.5 c 128,-1,6
 471 133 471 133 467 115 c 0,7,8
 458 73 458 73 424.5 45.5 c 128,-1,9
 391 18 391 18 346.5 4 c 128,-1,10
 302 -10 302 -10 253 -10 c 128,-1,11
 204 -10 204 -10 165.5 4 c 128,-1,12
 127 18 127 18 105 45.5 c 128,-1,13
 83 73 83 73 92 115 c 0,14,15
 96 133 96 133 102.5 162.5 c 128,-1,16
 109 192 109 192 116.5 227 c 128,-1,17
 124 262 124 262 132 299 c 128,-1,18
 140 336 140 336 147 370 c 128,-1,19
 154 404 154 404 160 432 c 128,-1,20
 166 460 166 460 170 476 c 1,21,-1
 218 476 l 1,22,23
 214 460 214 460 208.5 433.5 c 128,-1,24
 203 407 203 407 196 374 c 128,-1,25
 189 341 189 341 181.5 305 c 128,-1,26
 174 269 174 269 167 235.5 c 128,-1,27
 160 202 160 202 154 173.5 c 128,-1,28
 148 145 148 145 144 128 c 0,29,30
 138 101 138 101 145 82.5 c 128,-1,31
 152 64 152 64 168 52.5 c 128,-1,32
 184 41 184 41 207 36 c 128,-1,33
 230 31 230 31 255 30 c 0,34,35
 281 29 281 29 308 33.5 c 128,-1,36
 335 38 335 38 358 49 c 128,-1,37
 381 60 381 60 398 79.5 c 128,-1,38
 415 99 415 99 421 128 c 0,39,40
 427 154 427 154 437 203 c 128,-1,41
 447 252 447 252 458 305 c 128,-1,42
 469 358 469 358 479 405 c 128,-1,43
 489 452 489 452 494 475 c 1,44,-1
 543 475 l 1,0,1
EndSplineSet
EndChar
StartChar: V
Encoding: 86 86 55
Width: 483
Flags: W
Fore
349 88 m 0,0,1
 341 71 341 71 330 53.5 c 128,-1,2
 319 36 319 36 304.5 21.5 c 128,-1,3
 290 7 290 7 272.5 -2 c 128,-1,4
 255 -11 255 -11 233 -9 c 1,5,6
 198 -14 198 -14 176.5 11.5 c 128,-1,7
 155 37 155 37 153 76 c 2,8,-1
 140 475 l 1,9,-1
 188 475 l 1,10,-1
 204 129 l 2,11,12
 205 109 205 109 207 95 c 128,-1,13
 209 81 209 81 212 62 c 0,14,15
 215 48 215 48 222.5 39.5 c 128,-1,16
 230 31 230 31 240.5 30 c 128,-1,17
 251 29 251 29 262.5 36.5 c 128,-1,18
 274 44 274 44 285 61 c 2,19,-1
 321 130 l 1,20,-1
 489 475 l 1,21,-1
 541 475 l 1,22,23
 518 429 518 429 493.5 378.5 c 128,-1,24
 469 328 469 328 444.5 277 c 128,-1,25
 420 226 420 226 395.5 178 c 128,-1,26
 371 130 371 130 349 88 c 0,0,1
EndSplineSet
EndChar
StartChar: W
Encoding: 87 87 56
Width: 599
Flags: W
Fore
121 0 m 1,0,-1
 140 475 l 1,1,-1
 187 475 l 1,2,-1
 176 52 l 1,3,4
 216 86 216 86 246.5 130 c 128,-1,5
 277 174 277 174 301 219.5 c 128,-1,6
 325 265 325 265 343 309 c 128,-1,7
 361 353 361 353 378 387 c 1,8,9
 383 354 383 354 385 312 c 128,-1,10
 387 270 387 270 391 225.5 c 128,-1,11
 395 181 395 181 404.5 136.5 c 128,-1,12
 414 92 414 92 435 53 c 1,13,14
 453 99 453 99 476.5 153.5 c 128,-1,15
 500 208 500 208 524 264 c 128,-1,16
 548 320 548 320 570.5 374.5 c 128,-1,17
 593 429 593 429 610 475 c 1,18,-1
 658 475 l 1,19,-1
 473 0 l 1,20,-1
 427 0 l 1,21,22
 407 8 407 8 392 33.5 c 128,-1,23
 377 59 377 59 367 94 c 128,-1,24
 357 129 357 129 352.5 170 c 128,-1,25
 348 211 348 211 351 250 c 1,26,27
 337 204 337 204 315 163 c 128,-1,28
 293 122 293 122 267.5 89 c 128,-1,29
 242 56 242 56 215.5 33 c 128,-1,30
 189 10 189 10 168 0 c 1,31,-1
 121 0 l 1,0,-1
EndSplineSet
EndChar
StartChar: X
Encoding: 88 88 57
Width: 480
Flags: W
Fore
193 478 m 1,0,-1
 306 275 l 1,1,-1
 505 478 l 1,2,-1
 561 478 l 1,3,-1
 325 239 l 1,4,-1
 460 1 l 1,5,-1
 405 1 l 1,6,-1
 291 203 l 1,7,-1
 91 1 l 1,8,-1
 36 1 l 1,9,-1
 270 239 l 1,10,-1
 138 478 l 1,11,-1
 193 478 l 1,12,-1
 193 478 l 1,0,-1
EndSplineSet
EndChar
StartChar: Y
Encoding: 89 89 58
Width: 471
Flags: W
Fore
248 193 m 1,0,1
 237 198 237 198 230.5 212 c 128,-1,2
 224 226 224 226 222 231 c 0,3,4
 211 256 211 256 200 287 c 128,-1,5
 189 318 189 318 178 351 c 128,-1,6
 167 384 167 384 156.5 416 c 128,-1,7
 146 448 146 448 137 475 c 1,8,-1
 187 475 l 1,9,10
 204 420 204 420 225.5 362.5 c 128,-1,11
 247 305 247 305 265 254 c 0,12,13
 273 232 273 232 280.5 231 c 128,-1,14
 288 230 288 230 305 251 c 0,15,16
 348 303 348 303 395 361.5 c 128,-1,17
 442 420 442 420 484 475 c 1,18,-1
 531 475 l 1,19,20
 509 446 509 446 485 414 c 128,-1,21
 461 382 461 382 436 350 c 128,-1,22
 411 318 411 318 386.5 286.5 c 128,-1,23
 362 255 362 255 340 228 c 0,24,25
 333 220 333 220 322.5 209.5 c 128,-1,26
 312 199 312 199 301 194 c 1,27,-1
 259 -1 l 1,28,-1
 206 -1 l 1,29,-1
 248 193 l 1,0,1
EndSplineSet
EndChar
StartChar: Z
Encoding: 90 90 59
Width: 514
Flags: W
Fore
464 51 m 1,0,-1
 454 1 l 1,1,-1
 154 1 l 2,2,3
 129 1 129 1 113 9.5 c 128,-1,4
 97 18 97 18 88.5 30.5 c 128,-1,5
 80 43 80 43 77.5 58.5 c 128,-1,6
 75 74 75 74 78 88 c 1,7,8
 85 93 85 93 114 118.5 c 128,-1,9
 143 144 143 144 183.5 180 c 128,-1,10
 224 216 224 216 269.5 256.5 c 128,-1,11
 315 297 315 297 355 333 c 128,-1,12
 395 369 395 369 423.5 394.5 c 128,-1,13
 452 420 452 420 458 426 c 1,14,-1
 156 426 l 1,15,-1
 167 477 l 1,16,-1
 555 477 l 1,17,-1
 545 430 l 1,18,-1
 150 81 l 1,19,20
 151 66 151 66 158 58.5 c 128,-1,21
 165 51 165 51 195 51 c 2,22,-1
 464 51 l 1,0,-1
EndSplineSet
EndChar
StartChar: bracketleft
Encoding: 91 91 60
Width: 220
Flags: W
Fore
44 -80 m 1,0,-1
 167 493 l 1,1,-1
 321 493 l 1,2,-1
 315 463 l 1,3,-1
 215 463 l 1,4,-1
 106 -49 l 1,5,-1
 206 -49 l 1,6,-1
 199 -80 l 1,7,-1
 44 -80 l 1,0,-1
EndSplineSet
EndChar
StartChar: backslash
Encoding: 92 92 61
Width: 316
Flags: W
Fore
105 492 m 1,0,-1
 165 492 l 1,1,-1
 308 -30 l 1,2,-1
 247 -30 l 1,3,-1
 105 492 l 1,4,-1
 105 492 l 1,0,-1
EndSplineSet
EndChar
StartChar: bracketright
Encoding: 93 93 62
Width: 220
Flags: W
Fore
-17 -80 m 1,0,-1
 -10 -49 l 1,1,-1
 87 -49 l 1,2,-1
 196 463 l 1,3,-1
 98 463 l 1,4,-1
 104 493 l 1,5,-1
 258 493 l 1,6,-1
 136 -80 l 1,7,-1
 -17 -80 l 1,0,-1
EndSplineSet
EndChar
StartChar: asciicircum
Encoding: 94 94 63
Width: 484
Flags: W
Fore
80 139 m 1,0,1
 115 170 115 170 154 213.5 c 128,-1,2
 193 257 193 257 229.5 305 c 128,-1,3
 266 353 266 353 296.5 401.5 c 128,-1,4
 327 450 327 450 344 492 c 1,5,6
 344 450 344 450 354 403 c 128,-1,7
 364 356 364 356 380 308.5 c 128,-1,8
 396 261 396 261 416.5 217 c 128,-1,9
 437 173 437 173 459 139 c 1,10,-1
 389 139 l 1,11,12
 360 194 360 194 341 257 c 128,-1,13
 322 320 322 320 324 389 c 1,14,15
 294 321 294 321 247.5 257 c 128,-1,16
 201 193 201 193 149 139 c 1,17,-1
 80 139 l 1,0,1
EndSplineSet
EndChar
StartChar: underscore
Encoding: 95 95 64
Width: 360
Flags: W
Fore
-42 -199 m 1,0,-1
 -31 -147 l 1,1,-1
 326 -147 l 1,2,-1
 315 -199 l 1,3,-1
 -42 -199 l 1,0,-1
EndSplineSet
EndChar
StartChar: grave
Encoding: 96 96 65
Width: 205
Flags: W
Fore
197 386 m 1,0,-1
 136 490 l 1,1,-1
 204 490 l 1,2,-1
 245 386 l 1,3,-1
 197 386 l 1,0,-1
EndSplineSet
EndChar
StartChar: a
Encoding: 97 97 66
Width: 436
Flags: W
Fore
355 195 m 1,0,1
 334 181 334 181 314.5 173 c 128,-1,2
 295 165 295 165 272 161 c 0,3,4
 250 157 250 157 225 153.5 c 128,-1,5
 200 150 200 150 178 142.5 c 128,-1,6
 156 135 156 135 139.5 122 c 128,-1,7
 123 109 123 109 119 88 c 0,8,9
 114 62 114 62 124.5 46 c 128,-1,10
 135 30 135 30 161 29 c 0,11,12
 200 27 200 27 231 36.5 c 128,-1,13
 262 46 262 46 285 57 c 0,14,15
 311 70 311 70 332 88 c 1,16,-1
 355 195 l 1,0,1
347 -7 m 1,17,18
 337 -2 337 -2 329.5 15 c 128,-1,19
 322 32 322 32 323 46 c 1,20,21
 313 39 313 39 294.5 28.5 c 128,-1,22
 276 18 276 18 252.5 9 c 128,-1,23
 229 0 229 0 201.5 -4.5 c 128,-1,24
 174 -9 174 -9 147 -3 c 0,25,26
 129 0 129 0 113 7.5 c 128,-1,27
 97 15 97 15 85.5 26 c 128,-1,28
 74 37 74 37 68.5 52.5 c 128,-1,29
 63 68 63 68 67 88 c 0,30,31
 74 122 74 122 98 140 c 128,-1,32
 122 158 122 158 153 167.5 c 128,-1,33
 184 177 184 177 217.5 181 c 128,-1,34
 251 185 251 185 278 191 c 0,35,36
 287 193 287 193 301 198 c 128,-1,37
 315 203 315 203 328 210 c 128,-1,38
 341 217 341 217 351.5 226 c 128,-1,39
 362 235 362 235 364 246 c 0,40,41
 369 272 369 272 342 295 c 0,42,43
 328 308 328 308 301 312.5 c 128,-1,44
 274 317 274 317 243 314.5 c 128,-1,45
 212 312 212 312 180 303.5 c 128,-1,46
 148 295 148 295 124 284 c 1,47,-1
 138 323 l 1,48,49
 165 335 165 335 199 341.5 c 128,-1,50
 233 348 233 348 267.5 348.5 c 128,-1,51
 302 349 302 349 333 343.5 c 128,-1,52
 364 338 364 338 384 327 c 0,53,54
 404 317 404 317 412.5 294.5 c 128,-1,55
 421 272 421 272 416 245 c 2,56,-1
 378 69 l 2,57,58
 375 54 375 54 375 40 c 128,-1,59
 375 26 375 26 389 13 c 1,60,61
 382 7 382 7 367 2 c 128,-1,62
 352 -3 352 -3 347 -7 c 1,17,18
EndSplineSet
Substitution: 0 65534 'L026' uni0E38
Substitution: 0 65534 'L026' uni0E38
EndChar
StartChar: b
Encoding: 98 98 67
Width: 453
Flags: W
Fore
169 246 m 1,0,1
 161 206 161 206 152 166 c 128,-1,2
 143 126 143 126 135 86 c 1,3,-1
 134 84 l 1,4,5
 143 73 143 73 153.5 63.5 c 128,-1,6
 164 54 164 54 177.5 47 c 128,-1,7
 191 40 191 40 208 36 c 128,-1,8
 225 32 225 32 247 33 c 0,9,10
 298 35 298 35 332.5 69 c 128,-1,11
 367 103 367 103 382 154 c 0,12,13
 391 182 391 182 391.5 209.5 c 128,-1,14
 392 237 392 237 382.5 259 c 128,-1,15
 373 281 373 281 352 294.5 c 128,-1,16
 331 308 331 308 297 309 c 0,17,18
 286 309 286 309 269.5 305.5 c 128,-1,19
 253 302 253 302 235 294 c 128,-1,20
 217 286 217 286 199.5 274 c 128,-1,21
 182 262 182 262 169 246 c 1,0,1
86 90 m 0,22,23
 106 187 106 187 127 283 c 128,-1,24
 148 379 148 379 169 476 c 1,25,-1
 218 476 l 1,26,-1
 180 300 l 1,27,28
 193 313 193 313 211 322 c 128,-1,29
 229 331 229 331 247.5 336.5 c 128,-1,30
 266 342 266 342 281.5 344.5 c 128,-1,31
 297 347 297 347 305 347 c 0,32,33
 350 349 350 349 380.5 332 c 128,-1,34
 411 315 411 315 427 286.5 c 128,-1,35
 443 258 443 258 444.5 222.5 c 128,-1,36
 446 187 446 187 434 151 c 0,37,38
 423 121 423 121 404 93.5 c 128,-1,39
 385 66 385 66 360.5 44.5 c 128,-1,40
 336 23 336 23 306.5 10.5 c 128,-1,41
 277 -2 277 -2 246 -2 c 0,42,43
 217 -2 217 -2 198 1.5 c 128,-1,44
 179 5 179 5 166 11 c 128,-1,45
 153 17 153 17 143.5 24.5 c 128,-1,46
 134 32 134 32 125 40 c 1,47,48
 121 42 121 42 120 43 c 1,49,50
 110 28 110 28 96.5 15.5 c 128,-1,51
 83 3 83 3 67 -2 c 1,52,53
 61 4 61 4 53.5 11 c 128,-1,54
 46 18 46 18 38 29 c 1,55,56
 61 44 61 44 71 58.5 c 128,-1,57
 81 73 81 73 86 90 c 0,22,23
EndSplineSet
Substitution: 0 65534 'L026' uni0E39
Substitution: 0 65534 'L026' uni0E39
EndChar
StartChar: c
Encoding: 99 99 68
Width: 420
Flags: W
Fore
120 245 m 0,0,1
 125 271 125 271 146 290.5 c 128,-1,2
 167 310 167 310 192 323 c 0,3,4
 220 338 220 338 258.5 343.5 c 128,-1,5
 297 349 297 349 333.5 344 c 128,-1,6
 370 339 370 339 399 322.5 c 128,-1,7
 428 306 428 306 437 276 c 1,8,-1
 398 254 l 1,9,10
 393 279 393 279 373 293 c 128,-1,11
 353 307 353 307 327.5 310.5 c 128,-1,12
 302 314 302 314 274 309.5 c 128,-1,13
 246 305 246 305 224 293 c 0,14,15
 201 281 201 281 187.5 267.5 c 128,-1,16
 174 254 174 254 169 232 c 0,17,18
 162 201 162 201 155.5 170.5 c 128,-1,19
 149 140 149 140 143 109 c 0,20,21
 138 87 138 87 148 70.5 c 128,-1,22
 158 54 158 54 175 42 c 256,23,24
 192 30 192 30 217 26 c 128,-1,25
 242 22 242 22 268.5 27 c 128,-1,26
 295 32 295 32 319 46.5 c 128,-1,27
 343 61 343 61 359 87 c 1,28,-1
 392 65 l 1,29,30
 371 35 371 35 335 18.5 c 128,-1,31
 299 2 299 2 260 -3 c 128,-1,32
 221 -8 221 -8 185 -2.5 c 128,-1,33
 149 3 149 3 127 18 c 0,34,35
 107 31 107 31 95 50.5 c 128,-1,36
 83 70 83 70 88 96 c 0,37,38
 96 134 96 134 104 170.5 c 128,-1,39
 112 207 112 207 120 245 c 0,0,1
EndSplineSet
Substitution: 0 65534 'L026' uni0E3A
Substitution: 0 65534 'L026' uni0E3A
EndChar
StartChar: d
Encoding: 100 100 69
Width: 458
Flags: W
Fore
389 245 m 1,0,1
 374 267 374 267 360 280 c 128,-1,2
 346 293 346 293 333.5 299.5 c 128,-1,3
 321 306 321 306 309.5 307 c 128,-1,4
 298 308 298 308 286 308 c 0,5,6
 251 307 251 307 225 293.5 c 128,-1,7
 199 280 199 280 180 258 c 128,-1,8
 161 236 161 236 150 208.5 c 128,-1,9
 139 181 139 181 136 153 c 0,10,11
 130 102 130 102 149.5 68 c 128,-1,12
 169 34 169 34 220 32 c 0,13,14
 262 30 262 30 294 46 c 128,-1,15
 326 62 326 62 354 83 c 1,16,-1
 355 85 l 1,17,18
 362 119 362 119 367 143 c 128,-1,19
 372 167 372 167 376 184.5 c 128,-1,20
 380 202 380 202 383 216 c 128,-1,21
 386 230 386 230 389 245 c 1,0,1
405 89 m 0,22,23
 403 72 403 72 406 57.5 c 128,-1,24
 409 43 409 43 426 28 c 1,25,26
 415 17 415 17 404.5 10 c 128,-1,27
 394 3 394 3 385 -3 c 1,28,29
 371 2 371 2 362.5 14.5 c 128,-1,30
 354 27 354 27 350 42 c 1,31,32
 312 19 312 19 279.5 8 c 128,-1,33
 247 -3 247 -3 206 -3 c 0,34,35
 175 -3 175 -3 150.5 9.5 c 128,-1,36
 126 22 126 22 110 43 c 128,-1,37
 94 64 94 64 86.5 92 c 128,-1,38
 79 120 79 120 82 150 c 0,39,40
 86 184 86 184 103.5 219 c 128,-1,41
 121 254 121 254 148.5 282.5 c 128,-1,42
 176 311 176 311 213.5 329 c 128,-1,43
 251 347 251 347 295 346 c 0,44,45
 302 346 302 346 317 343.5 c 128,-1,46
 332 341 332 341 348 336 c 128,-1,47
 364 331 364 331 378.5 321.5 c 128,-1,48
 393 312 393 312 400 299 c 1,49,-1
 437 475 l 1,50,-1
 487 475 l 1,51,52
 467 378 467 378 446.5 282 c 128,-1,53
 426 186 426 186 405 89 c 0,22,23
EndSplineSet
EndChar
StartChar: e
Encoding: 101 101 70
Width: 433
Flags: W
Fore
126 19 m 2,0,1
 118 22 118 22 110 30 c 128,-1,2
 102 38 102 38 96 51 c 128,-1,3
 90 64 90 64 88.5 83 c 128,-1,4
 87 102 87 102 93 128 c 0,5,6
 97 147 97 147 99.5 160.5 c 128,-1,7
 102 174 102 174 105 187 c 128,-1,8
 108 200 108 200 111 213.5 c 128,-1,9
 114 227 114 227 118 246 c 0,10,11
 123 272 123 272 144 291.5 c 128,-1,12
 165 311 165 311 190 324 c 0,13,14
 211 335 211 335 237.5 341 c 128,-1,15
 264 347 264 347 291 347.5 c 128,-1,16
 318 348 318 348 343.5 342.5 c 128,-1,17
 369 337 369 337 388 324 c 0,18,19
 408 311 408 311 418.5 287.5 c 128,-1,20
 429 264 429 264 424 238 c 0,21,22
 420 209 420 209 409 191.5 c 128,-1,23
 398 174 398 174 377.5 165 c 128,-1,24
 357 156 357 156 327 153 c 128,-1,25
 297 150 297 150 254 150 c 2,26,-1
 146 150 l 1,27,28
 143 137 143 137 142.5 134.5 c 128,-1,29
 142 132 142 132 142 131 c 128,-1,30
 142 130 142 130 141.5 128 c 128,-1,31
 141 126 141 126 139 114 c 0,32,33
 136 100 136 100 138.5 90 c 128,-1,34
 141 80 141 80 146 72.5 c 128,-1,35
 151 65 151 65 158.5 59.5 c 128,-1,36
 166 54 166 54 173 49 c 0,37,38
 188 39 188 39 212 34.5 c 128,-1,39
 236 30 236 30 262 33.5 c 128,-1,40
 288 37 288 37 314.5 50 c 128,-1,41
 341 63 341 63 361 88 c 1,42,-1
 387 66 l 1,43,44
 366 36 366 36 330.5 19.5 c 128,-1,45
 295 3 295 3 256.5 -2 c 128,-1,46
 218 -7 218 -7 182.5 -1.5 c 128,-1,47
 147 4 147 4 126 19 c 2,0,1
358 290 m 0,48,49
 329 313 329 313 293 312 c 128,-1,50
 257 311 257 311 225 294 c 0,51,52
 202 282 202 282 185 266.5 c 128,-1,53
 168 251 168 251 163 229 c 0,54,55
 160 215 160 215 158.5 208.5 c 128,-1,56
 157 202 157 202 154 188 c 1,57,-1
 262 188 l 2,58,59
 293 188 293 188 314 188 c 128,-1,60
 335 188 335 188 348.5 191 c 128,-1,61
 362 194 362 194 368.5 201.5 c 128,-1,62
 375 209 375 209 378 224 c 0,63,64
 381 243 381 243 376 261.5 c 128,-1,65
 371 280 371 280 358 290 c 0,48,49
EndSplineSet
EndChar
StartChar: f
Encoding: 102 102 71
Width: 281
Flags: W
Fore
276 302 m 1,0,-1
 182 302 l 1,1,-1
 137 93 l 1,2,-1
 121 15 l 1,3,4
 113 -6 113 -6 95.5 -23.5 c 128,-1,5
 78 -41 78 -41 57 -49 c 1,6,7
 51 -43 51 -43 44 -36 c 128,-1,8
 37 -29 37 -29 29 -18 c 1,9,10
 58 2 58 2 67 20.5 c 128,-1,11
 76 39 76 39 81 63 c 2,12,-1
 139 334 l 2,13,14
 156 414 156 414 197 444.5 c 128,-1,15
 238 475 238 475 313 474 c 2,16,-1
 330 474 l 1,17,-1
 323 438 l 1,18,-1
 304 438 l 2,19,20
 272 438 272 438 252 432 c 128,-1,21
 232 426 232 426 220 414 c 128,-1,22
 208 402 208 402 201 383.5 c 128,-1,23
 194 365 194 365 190 339 c 1,24,-1
 284 339 l 1,25,-1
 276 302 l 1,0,-1
EndSplineSet
EndChar
StartChar: g
Encoding: 103 103 72
Width: 448
Flags: W
Fore
220 37 m 0,0,1
 258 36 258 36 290 53.5 c 128,-1,2
 322 71 322 71 349 100 c 1,3,4
 357 141 357 141 366 181 c 128,-1,5
 375 221 375 221 383 263 c 1,6,7
 365 284 365 284 339.5 299.5 c 128,-1,8
 314 315 314 315 271 313 c 0,9,10
 220 311 220 311 185.5 277.5 c 128,-1,11
 151 244 151 244 136 193 c 0,12,13
 127 164 127 164 126 137 c 128,-1,14
 125 110 125 110 134.5 88 c 128,-1,15
 144 66 144 66 165 52 c 128,-1,16
 186 38 186 38 220 37 c 0,0,1
214 -110 m 2,17,18
 244 -110 244 -110 263.5 -105 c 128,-1,19
 283 -100 283 -100 294.5 -88.5 c 128,-1,20
 306 -77 306 -77 312.5 -59 c 128,-1,21
 319 -41 319 -41 324 -15 c 2,22,-1
 337 46 l 1,23,24
 325 33 325 33 307 24 c 128,-1,25
 289 15 289 15 271 10 c 128,-1,26
 253 5 253 5 237.5 2.5 c 128,-1,27
 222 0 222 0 215 0 c 0,28,29
 171 0 171 0 141 18 c 128,-1,30
 111 36 111 36 95 64 c 128,-1,31
 79 92 79 92 76 127 c 128,-1,32
 73 162 73 162 84 196 c 0,33,34
 94 226 94 226 112 254.5 c 128,-1,35
 130 283 130 283 154 304.5 c 128,-1,36
 178 326 178 326 208 338.5 c 128,-1,37
 238 351 238 351 272 349 c 0,38,39
 311 347 311 347 341 337.5 c 128,-1,40
 371 328 371 328 398 303 c 1,41,42
 417 336 417 336 451 349 c 1,43,44
 457 343 457 343 464.5 335.5 c 128,-1,45
 472 328 472 328 480 318 c 1,46,47
 456 303 456 303 446.5 288.5 c 128,-1,48
 437 274 437 274 432 257 c 0,49,50
 418 189 418 189 403.5 121 c 128,-1,51
 389 53 389 53 375 -14 c 0,52,53
 358 -91 358 -91 317.5 -120 c 128,-1,54
 277 -149 277 -149 205 -149 c 2,55,-1
 176 -149 l 1,56,-1
 184 -110 l 1,57,-1
 214 -110 l 2,17,18
EndSplineSet
EndChar
StartChar: h
Encoding: 104 104 73
Width: 430
Flags: W
Fore
204 407 m 0,0,1
 196 369 196 369 188 330.5 c 128,-1,2
 180 292 180 292 172 254 c 1,3,4
 198 307 198 307 234 326.5 c 128,-1,5
 270 346 270 346 326 346 c 0,6,7
 353 346 353 346 371 335 c 128,-1,8
 389 324 389 324 398 305.5 c 128,-1,9
 407 287 407 287 408 261.5 c 128,-1,10
 409 236 409 236 403 207 c 2,11,-1
 362 0 l 1,12,-1
 314 0 l 1,13,-1
 350 181 l 2,14,15
 355 206 355 206 356.5 228.5 c 128,-1,16
 358 251 358 251 352.5 268 c 128,-1,17
 347 285 347 285 332.5 294.5 c 128,-1,18
 318 304 318 304 292 304 c 0,19,20
 262 304 262 304 237.5 286.5 c 128,-1,21
 213 269 213 269 194.5 242.5 c 128,-1,22
 176 216 176 216 163 183.5 c 128,-1,23
 150 151 150 151 144 121 c 2,24,-1
 121 0 l 1,25,-1
 71 0 l 1,26,-1
 146 363 l 2,27,28
 150 387 150 387 150 405.5 c 128,-1,29
 150 424 150 424 128 444 c 1,30,-1
 169 475 l 2,31,32
 171 476 171 476 174 473 c 2,33,34
 190 465 190 465 198 446 c 128,-1,35
 206 427 206 427 204 407 c 0,0,1
EndSplineSet
EndChar
StartChar: i
Encoding: 105 105 74
Width: 190
Flags: W
Fore
138 328 m 1,0,-1
 187 328 l 1,1,-1
 137 92 l 2,2,3
 132 69 132 69 133.5 51 c 128,-1,4
 135 33 135 33 155 14 c 1,5,-1
 114 -17 l 2,6,7
 112 -18 112 -18 111 -16.5 c 128,-1,8
 110 -15 110 -15 109 -15 c 1,9,10
 94 -6 94 -6 85.5 13 c 128,-1,11
 77 32 77 32 79 52 c 2,12,-1
 138 328 l 1,0,-1
192 475 m 1,13,14
 208 477 208 477 215.5 463 c 128,-1,15
 223 449 223 449 218 428 c 0,16,17
 214 408 214 408 200.5 393.5 c 128,-1,18
 187 379 187 379 171 379 c 0,19,20
 154 379 154 379 145 393.5 c 128,-1,21
 136 408 136 408 141 428 c 0,22,23
 146 449 146 449 161 463 c 128,-1,24
 176 477 176 477 192 475 c 1,13,14
EndSplineSet
EndChar
StartChar: j
Encoding: 106 106 75
Width: 241
Flags: W
Fore
188 329 m 1,0,-1
 238 329 l 1,1,-1
 165 -16 l 2,2,3
 148 -93 148 -93 107.5 -122 c 128,-1,4
 67 -151 67 -151 -3 -151 c 2,5,-1
 -32 -151 l 1,6,-1
 -23 -112 l 1,7,-1
 5 -112 l 2,8,9
 36 -112 36 -112 55 -107 c 128,-1,10
 74 -102 74 -102 86 -90.5 c 128,-1,11
 98 -79 98 -79 104.5 -61 c 128,-1,12
 111 -43 111 -43 116 -17 c 2,13,-1
 188 329 l 1,0,-1
243 475 m 1,14,15
 260 477 260 477 267.5 463 c 128,-1,16
 275 449 275 449 270 428 c 0,17,18
 266 408 266 408 252.5 393.5 c 128,-1,19
 239 379 239 379 223 379 c 0,20,21
 205 379 205 379 196 393.5 c 128,-1,22
 187 408 187 408 192 428 c 0,23,24
 197 449 197 449 212 463 c 128,-1,25
 227 477 227 477 243 475 c 1,14,15
EndSplineSet
EndChar
StartChar: k
Encoding: 107 107 76
Width: 406
Flags: W
Fore
409 338 m 1,0,-1
 281 234 l 1,1,2
 302 231 302 231 320 223.5 c 128,-1,3
 338 216 338 216 350 201.5 c 128,-1,4
 362 187 362 187 366 164.5 c 128,-1,5
 370 142 370 142 363 109 c 2,6,-1
 340 1 l 1,7,-1
 290 1 l 1,8,-1
 312 108 l 2,9,10
 318 135 318 135 314 152 c 128,-1,11
 310 169 310 169 299.5 179.5 c 128,-1,12
 289 190 289 190 273.5 194.5 c 128,-1,13
 258 199 258 199 241 201 c 1,14,-1
 143 121 l 1,15,-1
 120 0 l 1,16,-1
 70 0 l 1,17,-1
 147 367 l 2,18,19
 152 390 152 390 150.5 408 c 128,-1,20
 149 426 149 426 128 445 c 1,21,-1
 170 476 l 1,22,23
 189 468 189 468 197 448 c 128,-1,24
 205 428 205 428 204 408 c 1,25,-1
 157 185 l 1,26,-1
 347 338 l 1,27,-1
 409 338 l 1,0,-1
EndSplineSet
EndChar
StartChar: l
Encoding: 108 108 77
Width: 190
Flags: W
Fore
135 80 m 1,0,1
 131 60 131 60 133.5 44 c 128,-1,2
 136 28 136 28 155 11 c 1,3,-1
 113 -20 l 1,4,5
 94 -12 94 -12 85 8 c 128,-1,6
 76 28 76 28 78 48 c 2,7,-1
 82 70 l 1,8,-1
 146 366 l 2,9,10
 151 389 151 389 149.5 406.5 c 128,-1,11
 148 424 148 424 128 444 c 1,12,-1
 169 474 l 1,13,14
 188 467 188 467 196.5 446.5 c 128,-1,15
 205 426 205 426 204 406 c 1,16,-1
 135 80 l 1,17,-1
 135 80 l 1,0,1
EndSplineSet
EndChar
StartChar: m
Encoding: 109 109 78
Width: 518
Flags: W
Fore
118 234 m 2,0,1
 123 257 123 257 121.5 274 c 128,-1,2
 120 291 120 291 100 310 c 1,3,-1
 142 341 l 1,4,5
 156 335 156 335 165 319.5 c 128,-1,6
 174 304 174 304 176 287 c 1,7,8
 187 303 187 303 197 313.5 c 128,-1,9
 207 324 207 324 217 331 c 0,10,11
 235 344 235 344 259 343 c 128,-1,12
 283 342 283 342 296 331 c 0,13,14
 308 322 308 322 314.5 306 c 128,-1,15
 321 290 321 290 324 270 c 1,16,17
 338 292 338 292 352 307.5 c 128,-1,18
 366 323 366 323 379 331 c 0,19,20
 388 337 388 337 402 340 c 128,-1,21
 416 343 416 343 431 342.5 c 128,-1,22
 446 342 446 342 459 339 c 128,-1,23
 472 336 472 336 479 331 c 0,24,25
 500 315 500 315 499 281.5 c 128,-1,26
 498 248 498 248 489 206 c 2,27,-1
 465 90 l 2,28,29
 462 78 462 78 460 66.5 c 128,-1,30
 458 55 458 55 459 44.5 c 128,-1,31
 460 34 460 34 465.5 25 c 128,-1,32
 471 16 471 16 483 10 c 1,33,-1
 441 -21 l 1,34,35
 422 -13 422 -13 412.5 5 c 128,-1,36
 403 23 403 23 405 47 c 2,37,-1
 436 190 l 2,38,39
 441 212 441 212 444.5 226 c 128,-1,40
 448 240 448 240 449 250 c 128,-1,41
 450 260 450 260 448.5 268.5 c 128,-1,42
 447 277 447 277 442 289 c 0,43,44
 434 307 434 307 413 305.5 c 128,-1,45
 392 304 392 304 376 286 c 0,46,47
 359 268 359 268 344.5 239 c 128,-1,48
 330 210 330 210 320 174 c 2,49,-1
 283 -1 l 1,50,-1
 231 -1 l 1,51,-1
 272 190 l 2,52,53
 281 232 281 232 281.5 253.5 c 128,-1,54
 282 275 282 275 274 289 c 0,55,56
 265 306 265 306 244 302 c 128,-1,57
 223 298 223 298 207 280 c 0,58,59
 174 244 174 244 155 173 c 0,60,61
 151 156 151 156 147.5 138.5 c 128,-1,62
 144 121 144 121 140 100.5 c 128,-1,63
 136 80 136 80 131.5 55.5 c 128,-1,64
 127 31 127 31 121 0 c 1,65,-1
 71 0 l 1,66,67
 78 42 78 42 86 83.5 c 128,-1,68
 94 125 94 125 103 167 c 2,69,-1
 118 234 l 2,0,1
EndSplineSet
EndChar
StartChar: n
Encoding: 110 110 79
Width: 423
Flags: W
Fore
118 236 m 1,0,1
 123 259 123 259 121.5 276.5 c 128,-1,2
 120 294 120 294 100 312 c 1,3,-1
 142 343 l 1,4,5
 159 335 159 335 168 315 c 128,-1,6
 177 295 177 295 177 275 c 1,7,-1
 168 233 l 1,8,9
 197 287 197 287 228 317 c 128,-1,10
 259 347 259 347 308 347 c 0,11,12
 335 347 335 347 354.5 336 c 128,-1,13
 374 325 374 325 385.5 306 c 128,-1,14
 397 287 397 287 399.5 261.5 c 128,-1,15
 402 236 402 236 396 208 c 2,16,-1
 371 92 l 2,17,18
 368 80 368 80 366 68.5 c 128,-1,19
 364 57 364 57 365 46.5 c 128,-1,20
 366 36 366 36 371.5 27 c 128,-1,21
 377 18 377 18 389 12 c 1,22,-1
 347 -19 l 1,23,24
 329 -11 329 -11 318.5 7 c 128,-1,25
 308 25 308 25 312 49 c 2,26,-1
 342 192 l 2,27,28
 354 247 354 247 341.5 278 c 128,-1,29
 329 309 329 309 289 306 c 0,30,31
 267 304 267 304 244.5 283.5 c 128,-1,32
 222 263 222 263 202 232.5 c 128,-1,33
 182 202 182 202 165.5 165 c 128,-1,34
 149 128 149 128 138 94 c 2,35,-1
 119 2 l 1,36,-1
 116 2 l 1,37,-1
 116 1 l 1,38,-1
 68 1 l 1,39,-1
 68 2 l 1,40,-1
 118 236 l 1,41,-1
 118 236 l 1,0,1
EndSplineSet
EndChar
StartChar: o
Encoding: 111 111 80
Width: 462
Flags: W
Fore
113 222 m 1,0,1
 122 264 122 264 152.5 291.5 c 128,-1,2
 183 319 183 319 222 333 c 128,-1,3
 261 347 261 347 303 347 c 128,-1,4
 345 347 345 347 378.5 333 c 128,-1,5
 412 319 412 319 430 291.5 c 128,-1,6
 448 264 448 264 439 222 c 0,7,8
 434 199 434 199 431.5 187.5 c 128,-1,9
 429 176 429 176 428 171 c 128,-1,10
 427 166 427 166 426.5 164 c 128,-1,11
 426 162 426 162 425.5 158 c 128,-1,12
 425 154 425 154 423 145 c 128,-1,13
 421 136 421 136 416 116 c 0,14,15
 407 74 407 74 377 46.5 c 128,-1,16
 347 19 347 19 308.5 5 c 128,-1,17
 270 -9 270 -9 228.5 -8.5 c 128,-1,18
 187 -8 187 -8 154 5.5 c 128,-1,19
 121 19 121 19 102.5 47 c 128,-1,20
 84 75 84 75 92 116 c 0,21,22
 94 127 94 127 98.5 149.5 c 128,-1,23
 103 172 103 172 107 192.5 c 128,-1,24
 111 213 111 213 113.5 223.5 c 128,-1,25
 116 234 116 234 113 222 c 1,0,1
159 200 m 0,26,27
 157 190 157 190 152.5 169 c 128,-1,28
 148 148 148 148 145 136 c 0,29,30
 137 98 137 98 148.5 73 c 128,-1,31
 160 48 160 48 182 35.5 c 128,-1,32
 204 23 204 23 233 23.5 c 128,-1,33
 262 24 262 24 290 36.5 c 128,-1,34
 318 49 318 49 340 74 c 128,-1,35
 362 99 362 99 371 136 c 0,36,37
 374 151 374 151 375 154 c 128,-1,38
 376 157 376 157 376.5 159 c 128,-1,39
 377 161 377 161 378 168.5 c 128,-1,40
 379 176 379 176 384 199 c 0,41,42
 392 237 392 237 380.5 262 c 128,-1,43
 369 287 369 287 346.5 299.5 c 128,-1,44
 324 312 324 312 295 312 c 128,-1,45
 266 312 266 312 238.5 299.5 c 128,-1,46
 211 287 211 287 189 262 c 128,-1,47
 167 237 167 237 159 200 c 0,26,27
EndSplineSet
EndChar
StartChar: p
Encoding: 112 112 81
Width: 466
Flags: W
Fore
241 39 m 0,0,1
 275 40 275 40 301 53 c 128,-1,2
 327 66 327 66 345 86.5 c 128,-1,3
 363 107 363 107 373.5 133.5 c 128,-1,4
 384 160 384 160 387 189 c 0,5,6
 393 240 393 240 374 271 c 128,-1,7
 355 302 355 302 305 304 c 0,8,9
 263 306 263 306 230.5 290 c 128,-1,10
 198 274 198 274 171 253 c 1,11,12
 167 232 167 232 163.5 215 c 128,-1,13
 160 198 160 198 156.5 181.5 c 128,-1,14
 153 165 153 165 149 148.5 c 128,-1,15
 145 132 145 132 141 112 c 1,16,17
 149 81 149 81 174.5 61.5 c 128,-1,18
 200 42 200 42 241 39 c 0,0,1
121 253 m 0,19,20
 124 270 124 270 121 284.5 c 128,-1,21
 118 299 118 299 100 314 c 1,22,23
 112 325 112 325 123 332 c 128,-1,24
 134 339 134 339 143 345 c 1,25,26
 155 339 155 339 164 327 c 128,-1,27
 173 315 173 315 175 300 c 1,28,29
 189 309 189 309 202 317.5 c 128,-1,30
 215 326 215 326 231 332 c 128,-1,31
 247 338 247 338 268.5 341.5 c 128,-1,32
 290 345 290 345 321 345 c 256,33,34
 352 345 352 345 376.5 332.5 c 128,-1,35
 401 320 401 320 417 299 c 128,-1,36
 433 278 433 278 440 250 c 128,-1,37
 447 222 447 222 443 192 c 0,38,39
 439 158 439 158 421 123.5 c 128,-1,40
 403 89 403 89 375 60.5 c 128,-1,41
 347 32 347 32 310.5 14 c 128,-1,42
 274 -4 274 -4 232 -4 c 0,43,44
 224 -4 224 -4 209.5 -1.5 c 128,-1,45
 195 1 195 1 179 6 c 128,-1,46
 163 11 163 11 148.5 20 c 128,-1,47
 134 29 134 29 127 43 c 1,48,-1
 91 -125 l 1,49,-1
 41 -125 l 1,50,51
 61 -28 61 -28 81 64 c 128,-1,52
 101 156 101 156 121 253 c 0,19,20
EndSplineSet
EndChar
StartChar: q
Encoding: 113 113 82
Width: 455
Flags: W
Fore
225 44 m 0,0,1
 299 44 299 44 353 102 c 1,2,3
 361 142 361 142 369 178 c 128,-1,4
 377 214 377 214 385 254 c 1,5,-1
 386 256 l 1,6,7
 377 266 377 266 366 276 c 128,-1,8
 355 286 355 286 341.5 293 c 128,-1,9
 328 300 328 300 311 302.5 c 128,-1,10
 294 305 294 305 272 301 c 0,11,12
 221 291 221 291 190 261 c 128,-1,13
 159 231 159 231 143 189 c 0,14,15
 132 161 132 161 131 135 c 128,-1,16
 130 109 130 109 139.5 89.5 c 128,-1,17
 149 70 149 70 170 57.5 c 128,-1,18
 191 45 191 45 225 44 c 0,0,1
341 43 m 1,19,20
 328 29 328 29 309.5 20.5 c 128,-1,21
 291 12 291 12 273 6.5 c 128,-1,22
 255 1 255 1 239 -1.5 c 128,-1,23
 223 -4 223 -4 216 -4 c 0,24,25
 171 -6 171 -6 140.5 11.5 c 128,-1,26
 110 29 110 29 94 57.5 c 128,-1,27
 78 86 78 86 76 121.5 c 128,-1,28
 74 157 74 157 86 192 c 0,29,30
 96 222 96 222 115.5 249.5 c 128,-1,31
 135 277 135 277 160 298.5 c 128,-1,32
 185 320 185 320 214.5 332.5 c 128,-1,33
 244 345 244 345 275 345 c 256,34,35
 306 345 306 345 327 341 c 128,-1,36
 348 337 348 337 362 330.5 c 128,-1,37
 376 324 376 324 385 316 c 128,-1,38
 394 308 394 308 401 300 c 1,39,40
 411 315 411 315 424 327 c 128,-1,41
 437 339 437 339 454 345 c 1,42,43
 460 339 460 339 467.5 332 c 128,-1,44
 475 325 475 325 482 314 c 1,45,46
 459 299 459 299 449.5 284.5 c 128,-1,47
 440 270 440 270 435 253 c 0,48,49
 426 211 426 211 419.5 180.5 c 128,-1,50
 413 150 413 150 406.5 119 c 128,-1,51
 400 88 400 88 392.5 51 c 128,-1,52
 385 14 385 14 373 -42 c 0,53,54
 368 -66 368 -66 368 -84.5 c 128,-1,55
 368 -103 368 -103 390 -123 c 1,56,-1
 349 -154 l 1,57,58
 330 -146 330 -146 320.5 -126 c 128,-1,59
 311 -106 311 -106 313 -86 c 2,60,-1
 341 43 l 1,19,20
EndSplineSet
EndChar
StartChar: r
Encoding: 114 114 83
Width: 276
Flags: W
Fore
150 150 m 0,0,1
 145 122 145 122 138.5 94.5 c 128,-1,2
 132 67 132 67 126 39 c 0,3,4
 124 31 124 31 117.5 20.5 c 128,-1,5
 111 10 111 10 102 0.5 c 128,-1,6
 93 -9 93 -9 82.5 -17.5 c 128,-1,7
 72 -26 72 -26 61 -29 c 1,8,-1
 33 1 l 1,9,10
 62 21 62 21 71 39.5 c 128,-1,11
 80 58 80 58 85 82 c 0,12,13
 99 147 99 147 112.5 210.5 c 128,-1,14
 126 274 126 274 141 339 c 1,15,-1
 190 339 l 1,16,-1
 177 282 l 1,17,18
 198 308 198 308 224.5 324 c 128,-1,19
 251 340 251 340 285 340 c 2,20,-1
 302 340 l 1,21,-1
 293 300 l 1,22,-1
 275 300 l 2,23,24
 247 300 247 300 226.5 286 c 128,-1,25
 206 272 206 272 191 250.5 c 128,-1,26
 176 229 176 229 166 202.5 c 128,-1,27
 156 176 156 176 150 150 c 0,0,1
EndSplineSet
EndChar
StartChar: s
Encoding: 115 115 84
Width: 375
Flags: W
Fore
296 91 m 0,0,1
 300 117 300 117 285.5 130.5 c 128,-1,2
 271 144 271 144 248 151 c 128,-1,3
 225 158 225 158 197 162 c 128,-1,4
 169 166 169 166 146.5 175 c 128,-1,5
 124 184 124 184 111 201 c 128,-1,6
 98 218 98 218 104 250 c 0,7,8
 108 275 108 275 124.5 293.5 c 128,-1,9
 141 312 141 312 163.5 324.5 c 128,-1,10
 186 337 186 337 211.5 343 c 128,-1,11
 237 349 237 349 259 349 c 0,12,13
 277 349 277 349 295.5 345 c 128,-1,14
 314 341 314 341 329 332 c 128,-1,15
 344 323 344 323 353 309.5 c 128,-1,16
 362 296 362 296 360 277 c 1,17,-1
 320 277 l 1,18,19
 318 289 318 289 310.5 296 c 128,-1,20
 303 303 303 303 292.5 307 c 128,-1,21
 282 311 282 311 270 312 c 128,-1,22
 258 313 258 313 248 313 c 0,23,24
 234 313 234 313 219 309.5 c 128,-1,25
 204 306 204 306 190.5 298.5 c 128,-1,26
 177 291 177 291 167.5 279 c 128,-1,27
 158 267 158 267 155 250 c 0,28,29
 151 225 151 225 165.5 213.5 c 128,-1,30
 180 202 180 202 203 195.5 c 128,-1,31
 226 189 226 189 253.5 185 c 128,-1,32
 281 181 281 181 304 171.5 c 128,-1,33
 327 162 327 162 340 143.5 c 128,-1,34
 353 125 353 125 347 91 c 0,35,36
 342 64 342 64 324.5 44.5 c 128,-1,37
 307 25 307 25 283 13 c 128,-1,38
 259 1 259 1 231.5 -5 c 128,-1,39
 204 -11 204 -11 181 -11 c 0,40,41
 161 -11 161 -11 140.5 -7.5 c 128,-1,42
 120 -4 120 -4 101.5 5 c 128,-1,43
 83 14 83 14 69.5 28.5 c 128,-1,44
 56 43 56 43 50 66 c 1,45,-1
 98 66 l 1,46,47
 106 50 106 50 118 41 c 128,-1,48
 130 32 130 32 143 28 c 128,-1,49
 156 24 156 24 169 23 c 128,-1,50
 182 22 182 22 191 23 c 0,51,52
 210 25 210 25 228 28.5 c 128,-1,53
 246 32 246 32 260 39.5 c 128,-1,54
 274 47 274 47 283.5 59.5 c 128,-1,55
 293 72 293 72 296 91 c 0,0,1
EndSplineSet
EndChar
StartChar: t
Encoding: 116 116 85
Width: 281
Flags: W
Fore
275 301 m 1,0,-1
 181 301 l 1,1,-1
 146 136 l 2,2,3
 140 109 140 109 138.5 89.5 c 128,-1,4
 137 70 137 70 144 58 c 128,-1,5
 151 46 151 46 168.5 40 c 128,-1,6
 186 34 186 34 218 34 c 2,7,-1
 237 34 l 1,8,-1
 229 -3 l 1,9,10
 224 -3 224 -3 222.5 -3 c 128,-1,11
 221 -3 221 -3 220 -2.5 c 128,-1,12
 219 -2 219 -2 218 -2 c 128,-1,13
 217 -2 217 -2 212 -2 c 0,14,15
 174 -2 174 -2 148.5 4.5 c 128,-1,16
 123 11 123 11 108.5 27.5 c 128,-1,17
 94 44 94 44 91 70.5 c 128,-1,18
 88 97 88 97 97 137 c 2,19,-1
 148 373 l 2,20,21
 151 393 151 393 149 409.5 c 128,-1,22
 147 426 147 426 128 443 c 1,23,24
 139 453 139 453 150 460.5 c 128,-1,25
 161 468 161 468 169 474 c 1,26,27
 187 466 187 466 195.5 448 c 128,-1,28
 204 430 204 430 203 409 c 1,29,-1
 197 378 l 1,30,-1
 198 378 l 1,31,-1
 189 338 l 1,32,-1
 283 338 l 1,33,-1
 275 301 l 1,0,-1
EndSplineSet
EndChar
StartChar: u
Encoding: 117 117 86
Width: 448
Flags: W
Fore
443 340 m 1,0,1
 430 279 430 279 417.5 219 c 128,-1,2
 405 159 405 159 392 99 c 0,3,4
 387 75 387 75 387.5 56 c 128,-1,5
 388 37 388 37 409 17 c 1,6,7
 397 7 397 7 386.5 -0.5 c 128,-1,8
 376 -8 376 -8 368 -13 c 1,9,10
 354 -8 354 -8 345.5 4 c 128,-1,11
 337 16 337 16 334 30 c 1,12,13
 307 10 307 10 276 0.5 c 128,-1,14
 245 -9 245 -9 217 -9 c 0,15,16
 192 -9 192 -9 167 -0.5 c 128,-1,17
 142 8 142 8 123.5 24 c 128,-1,18
 105 40 105 40 95.5 64 c 128,-1,19
 86 88 86 88 93 119 c 0,20,21
 105 175 105 175 117.5 233 c 128,-1,22
 130 291 130 291 141 340 c 1,23,-1
 189 340 l 1,24,25
 179 293 179 293 167.5 239 c 128,-1,26
 156 185 156 185 145 132 c 0,27,28
 139 103 139 103 143.5 82.5 c 128,-1,29
 148 62 148 62 160 49.5 c 128,-1,30
 172 37 172 37 189.5 31.5 c 128,-1,31
 207 26 207 26 227 26 c 0,32,33
 246 27 246 27 265 33 c 128,-1,34
 284 39 284 39 301 52 c 128,-1,35
 318 65 318 65 331 84.5 c 128,-1,36
 344 104 344 104 350 132 c 0,37,38
 361 185 361 185 372.5 239.5 c 128,-1,39
 384 294 384 294 394 340 c 1,40,-1
 443 340 l 1,0,1
EndSplineSet
EndChar
StartChar: v
Encoding: 118 118 87
Width: 355
Flags: W
Fore
284 103 m 2,0,1
 275 83 275 83 263.5 63.5 c 128,-1,2
 252 44 252 44 238 28.5 c 128,-1,3
 224 13 224 13 208.5 3 c 128,-1,4
 193 -7 193 -7 176 -7 c 0,5,6
 143 -7 143 -7 128.5 20 c 128,-1,7
 114 47 114 47 112 93 c 2,8,-1
 112 338 l 1,9,-1
 161 338 l 1,10,-1
 162 109 l 2,11,12
 162 104 162 104 162.5 91.5 c 128,-1,13
 163 79 163 79 165 66 c 128,-1,14
 167 53 167 53 171.5 43.5 c 128,-1,15
 176 34 176 34 185 34 c 256,16,17
 194 34 194 34 203 43.5 c 128,-1,18
 212 53 212 53 220 65.5 c 128,-1,19
 228 78 228 78 234 90.5 c 128,-1,20
 240 103 240 103 243 109 c 2,21,-1
 338 338 l 1,22,-1
 384 338 l 1,23,-1
 284 103 l 2,0,1
EndSplineSet
EndChar
StartChar: w
Encoding: 119 119 88
Width: 501
Flags: W
Fore
102 -2 m 1,0,-1
 116 339 l 1,1,-1
 164 339 l 1,2,-1
 159 46 l 1,3,4
 177 55 177 55 195.5 77.5 c 128,-1,5
 214 100 214 100 233 130 c 128,-1,6
 252 160 252 160 270 194.5 c 128,-1,7
 288 229 288 229 305 263 c 1,8,9
 310 230 310 230 313 195.5 c 128,-1,10
 316 161 316 161 320.5 131.5 c 128,-1,11
 325 102 325 102 332.5 79.5 c 128,-1,12
 340 57 340 57 355 47 c 1,13,14
 381 109 381 109 414 185.5 c 128,-1,15
 447 262 447 262 479 339 c 1,16,-1
 528 339 l 1,17,-1
 389 -2 l 1,18,-1
 347 -2 l 1,19,20
 329 9 329 9 317 21.5 c 128,-1,21
 305 34 305 34 298 51 c 128,-1,22
 291 68 291 68 287.5 91 c 128,-1,23
 284 114 284 114 282 146 c 1,24,25
 266 114 266 114 251 91.5 c 128,-1,26
 236 69 236 69 220.5 52 c 128,-1,27
 205 35 205 35 187.5 22 c 128,-1,28
 170 9 170 9 149 -2 c 1,29,-1
 102 -2 l 1,0,-1
EndSplineSet
EndChar
StartChar: x
Encoding: 120 120 89
Width: 411
Flags: W
Fore
165 338 m 1,0,-1
 247 203 l 1,1,-1
 385 338 l 1,2,-1
 444 338 l 1,3,-1
 277 169 l 1,4,-1
 375 0 l 1,5,-1
 316 0 l 1,6,-1
 232 136 l 1,7,-1
 96 0 l 1,8,-1
 37 0 l 1,9,-1
 204 169 l 1,10,-1
 107 338 l 1,11,-1
 165 338 l 1,12,-1
 165 338 l 1,0,-1
EndSplineSet
EndChar
StartChar: y
Encoding: 121 121 90
Width: 451
Flags: W
Fore
326 25 m 1,0,1
 300 8 300 8 271 -1 c 128,-1,2
 242 -10 242 -10 216 -10 c 0,3,4
 191 -10 191 -10 166.5 -1.5 c 128,-1,5
 142 7 142 7 123 23 c 128,-1,6
 104 39 104 39 95 63 c 128,-1,7
 86 87 86 87 93 119 c 0,8,9
 105 175 105 175 117.5 233 c 128,-1,10
 130 291 130 291 141 339 c 1,11,-1
 189 339 l 1,12,13
 179 293 179 293 167 239 c 128,-1,14
 155 185 155 185 144 131 c 0,15,16
 138 102 138 102 143 82 c 128,-1,17
 148 62 148 62 160 49.5 c 128,-1,18
 172 37 172 37 189.5 31.5 c 128,-1,19
 207 26 207 26 227 26 c 0,20,21
 246 26 246 26 265 32.5 c 128,-1,22
 284 39 284 39 300.5 51.5 c 128,-1,23
 317 64 317 64 329.5 84 c 128,-1,24
 342 104 342 104 348 131 c 0,25,26
 354 157 354 157 355.5 165.5 c 128,-1,27
 357 174 357 174 358 178.5 c 128,-1,28
 359 183 359 183 360.5 189.5 c 128,-1,29
 362 196 362 196 367 219 c 2,30,-1
 380 282 l 1,31,32
 388 303 388 303 405.5 321 c 128,-1,33
 423 339 423 339 444 347 c 1,34,35
 451 341 451 341 458 333.5 c 128,-1,36
 465 326 465 326 473 316 c 1,37,38
 458 306 458 306 448.5 296.5 c 128,-1,39
 439 287 439 287 433.5 277.5 c 128,-1,40
 428 268 428 268 425.5 257.5 c 128,-1,41
 423 247 423 247 420 235 c 2,42,-1
 364 -32 l 2,43,44
 347 -108 347 -108 306 -136.5 c 128,-1,45
 265 -165 265 -165 194 -165 c 2,46,-1
 165 -165 l 1,47,-1
 174 -126 l 1,48,-1
 204 -126 l 2,49,50
 234 -126 234 -126 253 -121.5 c 128,-1,51
 272 -117 272 -117 283 -106.5 c 128,-1,52
 294 -96 294 -96 301 -77.5 c 128,-1,53
 308 -59 308 -59 314 -31 c 2,54,-1
 321 4 l 1,55,-1
 326 25 l 1,0,1
EndSplineSet
EndChar
StartChar: z
Encoding: 122 122 91
Width: 426
Flags: W
Fore
374 43 m 1,0,-1
 364 -1 l 1,1,-1
 149 -1 l 2,2,3
 124 -1 124 -1 108.5 8 c 128,-1,4
 93 17 93 17 84.5 30.5 c 128,-1,5
 76 44 76 44 74.5 59.5 c 128,-1,6
 73 75 73 75 75 89 c 1,7,8
 82 94 82 94 103.5 110 c 128,-1,9
 125 126 125 126 154 147 c 128,-1,10
 183 168 183 168 215.5 192 c 128,-1,11
 248 216 248 216 277 237 c 128,-1,12
 306 258 306 258 327 274 c 128,-1,13
 348 290 348 290 354 296 c 1,14,-1
 124 296 l 1,15,-1
 134 338 l 1,16,-1
 436 337 l 1,17,-1
 428 297 l 1,18,-1
 125 70 l 1,19,20
 126 55 126 55 133 49 c 128,-1,21
 140 43 140 43 170 43 c 2,22,-1
 374 43 l 1,0,-1
EndSplineSet
EndChar
StartChar: braceleft
Encoding: 123 123 92
Width: 228
Flags: W
Fore
180 -83 m 1,0,1
 130 -81 130 -81 109 -32.5 c 128,-1,2
 88 16 88 16 107 104 c 2,3,-1
 122 178 l 1,4,5
 108 189 108 189 92 197.5 c 128,-1,6
 76 206 76 206 62 212 c 1,7,8
 96 224 96 224 137 248 c 1,9,-1
 155 331 l 2,10,11
 174 418 174 418 213.5 464 c 128,-1,12
 253 510 253 510 308 518 c 1,13,-1
 298 475 l 1,14,15
 259 464 259 464 239.5 430.5 c 128,-1,16
 220 397 220 397 207 332 c 2,17,-1
 190 253 l 1,18,19
 190 251 190 251 189 249 c 256,20,21
 188 247 188 247 187.5 245 c 128,-1,22
 187 243 187 243 185 241 c 256,23,24
 183 239 183 239 181 237.5 c 128,-1,25
 179 236 179 236 177 234 c 256,26,27
 175 232 175 232 173 231 c 0,28,29
 168 228 168 228 159.5 226 c 128,-1,30
 151 224 151 224 142 221.5 c 128,-1,31
 133 219 133 219 124.5 217 c 128,-1,32
 116 215 116 215 112 214 c 1,33,34
 116 212 116 212 123.5 210.5 c 128,-1,35
 131 209 131 209 139 206.5 c 128,-1,36
 147 204 147 204 154.5 202 c 128,-1,37
 162 200 162 200 165 197 c 0,38,39
 166 196 166 196 168 195 c 0,40,41
 171 194 171 194 173 189 c 0,42,43
 174 186 174 186 174 180 c 2,44,-1
 174 175 l 1,45,-1
 158 103 l 2,46,47
 144 37 144 37 150 4.5 c 128,-1,48
 156 -28 156 -28 189 -40 c 1,49,-1
 180 -83 l 1,0,1
EndSplineSet
EndChar
StartChar: bar
Encoding: 124 124 93
Width: 202
Flags: W
Fore
31 -178 m 1,0,-1
 184 539 l 1,1,-1
 244 539 l 1,2,-1
 92 -178 l 1,3,-1
 31 -178 l 1,0,-1
EndSplineSet
EndChar
StartChar: braceright
Encoding: 125 125 94
Width: 226
Flags: W
Fore
126 520 m 1,0,1
 175 518 175 518 196 469.5 c 128,-1,2
 217 421 217 421 198 333 c 2,3,-1
 183 259 l 1,4,5
 197 248 197 248 213.5 239.5 c 128,-1,6
 230 231 230 231 244 225 c 1,7,8
 227 219 227 219 207.5 209.5 c 128,-1,9
 188 200 188 200 168 189 c 1,10,-1
 150 106 l 2,11,12
 132 19 132 19 92 -27 c 128,-1,13
 52 -73 52 -73 -1 -81 c 1,14,-1
 6 -38 l 1,15,16
 46 -27 46 -27 64.5 6.5 c 128,-1,17
 83 40 83 40 97 105 c 2,18,-1
 115 184 l 1,19,20
 115 186 115 186 116 188 c 256,21,22
 117 190 117 190 117.5 192 c 128,-1,23
 118 194 118 194 120 196 c 0,24,25
 123 200 123 200 127 203 c 0,26,27
 129 205 129 205 132 206 c 2,28,29
 137 209 137 209 145.5 211 c 128,-1,30
 154 213 154 213 163 215.5 c 128,-1,31
 172 218 172 218 180 219.5 c 128,-1,32
 188 221 188 221 193 223 c 1,33,34
 189 224 189 224 181.5 226 c 128,-1,35
 174 228 174 228 166 230.5 c 128,-1,36
 158 233 158 233 150.5 235 c 128,-1,37
 143 237 143 237 140 240 c 0,38,39
 139 241 139 241 137 242 c 0,40,41
 133 244 133 244 132 248 c 1,42,43
 131 250 131 250 131 257 c 2,44,-1
 131 262 l 1,45,-1
 146 334 l 2,46,47
 162 400 162 400 156 433 c 128,-1,48
 150 466 150 466 117 478 c 1,49,-1
 126 520 l 1,0,1
EndSplineSet
EndChar
StartChar: asciitilde
Encoding: 126 126 95
Width: 501
Flags: W
Fore
504 255 m 1,0,-1
 502 248 l 2,1,2
 496 218 496 218 483.5 196.5 c 128,-1,3
 471 175 471 175 454.5 161.5 c 128,-1,4
 438 148 438 148 420 142 c 128,-1,5
 402 136 402 136 386 136 c 0,6,7
 367 136 367 136 339 140.5 c 128,-1,8
 311 145 311 145 278 169 c 0,9,10
 267 177 267 177 258 186 c 128,-1,11
 249 195 249 195 239.5 202.5 c 128,-1,12
 230 210 230 210 219.5 215 c 128,-1,13
 209 220 209 220 196 220 c 0,14,15
 172 220 172 220 153.5 203.5 c 128,-1,16
 135 187 135 187 127 155 c 1,17,-1
 80 155 l 1,18,-1
 82 162 l 2,19,20
 86 184 86 184 97.5 204 c 128,-1,21
 109 224 109 224 124.5 240 c 128,-1,22
 140 256 140 256 158 265.5 c 128,-1,23
 176 275 176 275 195 276 c 0,24,25
 211 277 211 277 223.5 275.5 c 128,-1,26
 236 274 236 274 249 269 c 128,-1,27
 262 264 262 264 276.5 255 c 128,-1,28
 291 246 291 246 310 231 c 0,29,30
 328 216 328 216 349 203 c 128,-1,31
 370 190 370 190 396 190 c 0,32,33
 442 190 442 190 456 255 c 1,34,-1
 504 255 l 1,0,-1
EndSplineSet
EndChar
StartChar: uni0E33.alt1
Encoding: 65539 -1 96
Width: 358
Flags: W
Fore
211 401 m 0,0,1
 242 401 242 401 269 391 c 128,-1,2
 296 381 296 381 314 363 c 128,-1,3
 332 345 332 345 340 321 c 128,-1,4
 348 297 348 297 342 269 c 2,5,-1
 284 -2 l 1,6,-1
 230 -2 l 1,7,-1
 284 250 l 2,8,9
 290 279 290 279 291.5 298 c 128,-1,10
 293 317 293 317 281 334 c 0,11,12
 271 350 271 350 251 358.5 c 128,-1,13
 231 367 231 367 206.5 367.5 c 128,-1,14
 182 368 182 368 155.5 361.5 c 128,-1,15
 129 355 129 355 107 342 c 1,16,-1
 118 371 l 1,17,18
 130 381 130 381 145 387 c 128,-1,19
 160 393 160 393 173.5 396 c 128,-1,20
 187 399 187 399 197.5 400 c 128,-1,21
 208 401 208 401 211 401 c 0,0,1
-210 504 m 0,22,23
 -204 533 -204 533 -179.5 552.5 c 128,-1,24
 -155 572 -155 572 -128 572 c 0,25,26
 -102 572 -102 572 -86 552 c 128,-1,27
 -70 532 -70 532 -77 503 c 0,28,29
 -81 474 -81 474 -106 454 c 128,-1,30
 -131 434 -131 434 -157 434 c 0,31,32
 -186 434 -186 434 -201 455 c 128,-1,33
 -216 476 -216 476 -210 504 c 0,22,23
-175 504 m 0,34,35
 -179 487 -179 487 -174 472.5 c 128,-1,36
 -169 458 -169 458 -152 457 c 0,37,38
 -137 457 -137 457 -126 472 c 128,-1,39
 -115 487 -115 487 -110 504 c 0,40,41
 -107 519 -107 519 -112.5 532.5 c 128,-1,42
 -118 546 -118 546 -133 547 c 0,43,44
 -150 546 -150 546 -161 532 c 128,-1,45
 -172 518 -172 518 -175 504 c 0,34,35
EndSplineSet
EndChar
StartChar: quotedbl
Encoding: 34 34 97
Width: 259
Flags: W
Fore
270 339 m 1,0,-1
 235 339 l 1,1,-1
 253 480 l 1,2,-1
 312 481 l 1,3,-1
 270 339 l 1,4,-1
 270 339 l 1,0,-1
167 339 m 1,5,-1
 132 339 l 1,6,-1
 151 480 l 1,7,-1
 208 481 l 1,8,-1
 167 339 l 1,9,-1
 167 339 l 1,5,-1
EndSplineSet
EndChar
StartChar: exclam
Encoding: 33 33 98
Width: 171
Flags: W
Fore
93 141 m 1,0,-1
 158 488 l 1,1,-1
 226 488 l 1,2,-1
 140 141 l 1,3,-1
 93 141 l 1,0,-1
110 105 m 0,4,5
 127 105 127 105 135.5 90 c 128,-1,6
 144 75 144 75 139 53 c 0,7,8
 134 30 134 30 120 15 c 128,-1,9
 106 0 106 0 87 -2 c 1,10,11
 73 0 73 0 63.5 15 c 128,-1,12
 54 30 54 30 60 53 c 0,13,14
 65 75 65 75 79.5 90 c 128,-1,15
 94 105 94 105 110 105 c 0,4,5
EndSplineSet
EndChar
StartChar: uni0E4E.alt1
Encoding: 65540 -1 99
Width: 0
Flags: W
Fore
45 662 m 1,0,-1
 31 633 l 1,1,2
 18 636 18 636 4 637 c 128,-1,3
 -10 638 -10 638 -22.5 635 c 128,-1,4
 -35 632 -35 632 -43.5 624.5 c 128,-1,5
 -52 617 -52 617 -55 604 c 0,6,7
 -59 588 -59 588 -44.5 581 c 128,-1,8
 -30 574 -30 574 -13 572 c 1,9,-1
 -28 535 l 1,10,11
 -48 533 -48 533 -63.5 531.5 c 128,-1,12
 -79 530 -79 530 -91 526 c 128,-1,13
 -103 522 -103 522 -110 515 c 128,-1,14
 -117 508 -117 508 -120 495 c 0,15,16
 -123 479 -123 479 -102 473 c 128,-1,17
 -81 467 -81 467 -46 471 c 1,18,-1
 -59 443 l 1,19,20
 -86 439 -86 439 -109.5 440.5 c 128,-1,21
 -133 442 -133 442 -150.5 447.5 c 128,-1,22
 -168 453 -168 453 -177 462.5 c 128,-1,23
 -186 472 -186 472 -183 486 c 0,24,25
 -175 527 -175 527 -142 543 c 128,-1,26
 -109 559 -109 559 -69 557 c 1,27,28
 -89 562 -89 562 -102 576.5 c 128,-1,29
 -115 591 -115 591 -112 605 c 0,30,31
 -109 627 -109 627 -94.5 640.5 c 128,-1,32
 -80 654 -80 654 -58 660.5 c 128,-1,33
 -36 667 -36 667 -9 667 c 128,-1,34
 18 667 18 667 45 662 c 1,0,-1
EndSplineSet
EndChar
StartChar: exclamdown
Encoding: 161 161 100
Width: 155
Flags: W
Fore
141 204 m 1,0,-1
 78 -143 l 1,1,-1
 8 -143 l 1,2,-1
 94 204 l 1,3,-1
 141 204 l 1,0,-1
125 240 m 0,4,5
 108 240 108 240 100 255.5 c 128,-1,6
 92 271 92 271 97 293 c 256,7,8
 102 315 102 315 116.5 330.5 c 128,-1,9
 131 346 131 346 147 347 c 0,10,11
 164 346 164 346 172 330.5 c 128,-1,12
 180 315 180 315 175 293 c 256,13,14
 170 271 170 271 155.5 255.5 c 128,-1,15
 141 240 141 240 125 240 c 0,4,5
EndSplineSet
EndChar
StartChar: cent
Encoding: 162 162 101
Width: 428
Flags: W
Fore
215 62 m 1,0,1
 168 67 168 67 142 85 c 0,2,3
 122 98 122 98 109.5 117.5 c 128,-1,4
 97 137 97 137 102 163 c 2,5,-1
 134 312 l 2,6,7
 140 338 140 338 160.5 357.5 c 128,-1,8
 181 377 181 377 206 390 c 0,9,10
 242 409 242 409 289 412 c 1,11,-1
 306 491 l 1,12,-1
 364 491 l 1,13,-1
 347 411 l 1,14,15
 384 406 384 406 413.5 389.5 c 128,-1,16
 443 373 443 373 451 343 c 1,17,-1
 413 321 l 1,18,19
 406 348 406 348 386 361.5 c 128,-1,20
 366 375 366 375 340 378 c 1,21,-1
 280 96 l 1,22,23
 306 100 306 100 331 113.5 c 128,-1,24
 356 127 356 127 373 154 c 1,25,-1
 407 132 l 1,26,27
 385 101 385 101 348.5 85 c 128,-1,28
 312 69 312 69 273 64 c 1,29,-1
 262 0 l 1,30,-1
 204 0 l 1,31,-1
 215 62 l 1,0,1
193 115 m 0,32,33
 208 105 208 105 223 101 c 1,34,-1
 281 373 l 1,35,36
 271 371 271 371 262 368 c 128,-1,37
 253 365 253 365 245 360 c 0,38,39
 222 348 222 348 205 334.5 c 128,-1,40
 188 321 188 321 183 299 c 2,41,-1
 157 176 l 2,42,43
 152 154 152 154 163.5 140.5 c 128,-1,44
 175 127 175 127 193 115 c 0,32,33
EndSplineSet
EndChar
StartChar: sterling
Encoding: 163 163 102
Width: 418
Flags: W
Fore
66 0 m 1,0,-1
 71 33 l 1,1,2
 103 45 103 45 124 59.5 c 128,-1,3
 145 74 145 74 158 89.5 c 128,-1,4
 171 105 171 105 178 123 c 128,-1,5
 185 141 185 141 190 161 c 0,6,7
 193 175 193 175 193 183.5 c 128,-1,8
 193 192 193 192 194 210 c 1,9,-1
 107 210 l 1,10,-1
 117 255 l 1,11,-1
 199 255 l 1,12,13
 199 272 199 272 199.5 293.5 c 128,-1,14
 200 315 200 315 205 338 c 0,15,16
 211 368 211 368 226.5 393.5 c 128,-1,17
 242 419 242 419 263.5 437 c 128,-1,18
 285 455 285 455 311.5 465.5 c 128,-1,19
 338 476 338 476 367 476 c 0,20,21
 398 476 398 476 416 469.5 c 128,-1,22
 434 463 434 463 447 457 c 1,23,-1
 424 419 l 1,24,25
 414 424 414 424 398 431.5 c 128,-1,26
 382 439 382 439 356 438 c 0,27,28
 325 437 325 437 299.5 412 c 128,-1,29
 274 387 274 387 263 337 c 0,30,31
 258 311 258 311 256.5 294 c 128,-1,32
 255 277 255 277 256 260 c 1,33,-1
 350 260 l 1,34,-1
 340 214 l 1,35,-1
 252 213 l 1,36,37
 252 204.5 l 130,-1,38
 252 196 252 196 250.5 183.5 c 128,-1,39
 249 171 249 171 245.5 154.5 c 128,-1,40
 242 138 242 138 235 122 c 0,41,42
 224 92 224 92 200 70 c 128,-1,43
 176 48 176 48 147 35 c 1,44,-1
 374 36 l 1,45,-1
 369 0 l 1,46,-1
 66 0 l 1,0,-1
EndSplineSet
EndChar
StartChar: currency
Encoding: 164 164 103
Width: 486
Flags: W
Fore
428 58 m 1,0,-1
 397 99 l 1,1,2
 370 78 370 78 331.5 67 c 128,-1,3
 293 56 293 56 253.5 56 c 128,-1,4
 214 56 214 56 179.5 66 c 128,-1,5
 145 76 145 76 127 96 c 1,6,-1
 75 56 l 1,7,-1
 57 84 l 1,8,-1
 106 125 l 1,9,10
 99 139 99 139 99 150.5 c 128,-1,11
 99 162 99 162 103 182 c 0,12,13
 108 205 108 205 114 234 c 128,-1,14
 120 263 120 263 125 286 c 0,15,16
 130 308 130 308 138.5 322 c 128,-1,17
 147 336 147 336 162 350 c 1,18,-1
 134 386 l 1,19,-1
 165 412 l 1,20,-1
 192 375 l 1,21,22
 219 393 219 393 255.5 401.5 c 128,-1,23
 292 410 292 410 329 409.5 c 128,-1,24
 366 409 366 409 398 399.5 c 128,-1,25
 430 390 430 390 448 371 c 1,26,-1
 495 409 l 1,27,-1
 518 381 l 1,28,-1
 467 342 l 1,29,30
 474 328 474 328 475 315 c 128,-1,31
 476 302 476 302 471 282 c 2,32,-1
 450 182 l 2,33,34
 446 163 446 163 441 152 c 128,-1,35
 436 141 436 141 425 128 c 1,36,-1
 459 83 l 1,37,-1
 428 58 l 1,0,-1
154 187 m 0,38,39
 148 159 148 159 162 140 c 128,-1,40
 176 121 176 121 201 111 c 128,-1,41
 226 101 226 101 258 100.5 c 128,-1,42
 290 100 290 100 319.5 109.5 c 128,-1,43
 349 119 349 119 372 137.5 c 128,-1,44
 395 156 395 156 402 184 c 0,45,46
 405 199 405 199 406.5 205.5 c 128,-1,47
 408 212 408 212 409 218.5 c 128,-1,48
 410 225 410 225 412.5 235.5 c 128,-1,49
 415 246 415 246 420 269 c 0,50,51
 426 301 426 301 412 322.5 c 128,-1,52
 398 344 398 344 373 354.5 c 128,-1,53
 348 365 348 365 316.5 365 c 128,-1,54
 285 365 285 365 255.5 355 c 128,-1,55
 226 345 226 345 203 324.5 c 128,-1,56
 180 304 180 304 173 274 c 1,57,58
 171 269 171 269 168.5 257.5 c 128,-1,59
 166 246 166 246 163.5 232 c 128,-1,60
 161 218 161 218 158 205.5 c 128,-1,61
 155 193 155 193 154 187 c 0,38,39
EndSplineSet
EndChar
StartChar: yen
Encoding: 165 165 104
Width: 437
Flags: W
Fore
321 229 m 0,0,1
 320 228 320 228 320 227.5 c 128,-1,2
 320 227 320 227 319 226 c 1,3,-1
 454 226 l 1,4,-1
 441 169 l 1,5,-1
 276 169 l 1,6,-1
 265 117 l 1,7,-1
 430 117 l 1,8,-1
 419 62 l 1,9,-1
 254 62 l 1,10,-1
 243 0 l 1,11,-1
 190 0 l 1,12,-1
 201 62 l 1,13,-1
 47 62 l 1,14,-1
 58 117 l 1,15,-1
 212 117 l 1,16,-1
 223 169 l 1,17,-1
 70 169 l 1,18,-1
 83 226 l 1,19,-1
 206 226 l 1,20,21
 204 228 204 228 204 229.5 c 128,-1,22
 204 231 204 231 203 232 c 1,23,24
 192 257 192 257 181 288 c 128,-1,25
 170 319 170 319 159.5 352 c 128,-1,26
 149 385 149 385 138.5 417 c 128,-1,27
 128 449 128 449 119 476 c 1,28,-1
 169 476 l 1,29,30
 185 421 185 421 206.5 363.5 c 128,-1,31
 228 306 228 306 247 255 c 0,32,33
 255 233 255 233 262 232 c 128,-1,34
 269 231 269 231 286 252 c 0,35,36
 329 304 329 304 376 362.5 c 128,-1,37
 423 421 423 421 466 476 c 1,38,-1
 513 476 l 1,39,40
 491 447 491 447 466.5 415 c 128,-1,41
 417.5 351 l 128,-1,42
 393 319 393 319 368 287.5 c 128,-1,43
 343 256 343 256 321 229 c 0,0,1
EndSplineSet
EndChar
StartChar: brokenbar
Encoding: 166 166 105
Width: 169
Flags: W
Fore
108 232 m 1,0,-1
 163 485 l 1,1,-1
 215 485 l 1,2,-1
 161 232 l 1,3,-1
 108 232 l 1,4,-1
 108 232 l 1,0,-1
32 -125 m 1,5,-1
 86 129 l 1,6,-1
 139 129 l 1,7,-1
 85 -125 l 1,8,-1
 32 -125 l 1,9,-1
 32 -125 l 1,5,-1
EndSplineSet
EndChar
StartChar: section
Encoding: 167 167 106
Width: 403
Flags: W
Fore
361 69 m 0,0,1
 356 42 356 42 338.5 22 c 128,-1,2
 321 2 321 2 296.5 -10.5 c 128,-1,3
 272 -23 272 -23 244 -29 c 128,-1,4
 216 -35 216 -35 191 -34 c 0,5,6
 171 -34 171 -34 147.5 -29.5 c 128,-1,7
 124 -25 124 -25 104 -16 c 128,-1,8
 84 -7 84 -7 70.5 7.5 c 128,-1,9
 57 22 57 22 57 44 c 1,10,-1
 120 44 l 1,11,12
 127 21 127 21 149 13 c 128,-1,13
 171 5 171 5 203 5 c 0,14,15
 241 5 241 5 267 22.5 c 128,-1,16
 293 40 293 40 300 66 c 0,17,18
 303 88 303 88 292 102.5 c 128,-1,19
 281 117 281 117 258 125 c 0,20,21
 237 132 237 132 208.5 137 c 128,-1,22
 180 142 180 142 156 152.5 c 128,-1,23
 132 163 132 163 117.5 181 c 128,-1,24
 103 199 103 199 109 231 c 0,25,26
 112 247 112 247 122.5 262 c 128,-1,27
 133 277 133 277 147 289 c 128,-1,28
 161 301 161 301 177 309 c 128,-1,29
 193 317 193 317 206 319 c 1,30,31
 195 323 195 323 182.5 329 c 128,-1,32
 170 335 170 335 160.5 344 c 128,-1,33
 151 353 151 353 145.5 365.5 c 128,-1,34
 140 378 140 378 143 395 c 0,35,36
 147 420 147 420 164 439 c 128,-1,37
 181 458 181 458 204 470.5 c 128,-1,38
 227 483 227 483 253 489 c 128,-1,39
 279 495 279 495 302 495 c 0,40,41
 320 495 320 495 341.5 491 c 128,-1,42
 363 487 363 487 381.5 478 c 128,-1,43
 400 469 400 469 412.5 455 c 128,-1,44
 425 441 425 441 425 422 c 1,45,-1
 369 422 l 1,46,47
 360 447 360 447 341 453.5 c 128,-1,48
 322 460 322 460 292 459 c 0,49,50
 257 458 257 458 228 440.5 c 128,-1,51
 199 423 199 423 196 395 c 0,52,53
 194 381 194 381 199 372 c 128,-1,54
 204 363 204 363 212.5 357 c 128,-1,55
 221 351 221 351 233 347 c 128,-1,56
 245 343 245 343 258 339 c 1,57,58
 280 336 280 336 301 331 c 128,-1,59
 322 326 322 326 340 319 c 128,-1,60
 358 312 358 312 371 302 c 128,-1,61
 384 292 384 292 390 277 c 0,62,63
 397 259 397 259 393 233 c 0,64,65
 390 217 390 217 381 204.5 c 128,-1,66
 372 192 372 192 360 182 c 128,-1,67
 348 172 348 172 333.5 164 c 128,-1,68
 319 156 319 156 306 150 c 1,69,70
 316 145 316 145 327 138.5 c 128,-1,71
 338 132 338 132 346.5 122 c 128,-1,72
 355 112 355 112 359.5 99 c 128,-1,73
 364 86 364 86 361 69 c 0,0,1
165 231 m 0,74,75
 161 212 161 212 167 201.5 c 128,-1,76
 173 191 173 191 185 185.5 c 128,-1,77
 197 180 197 180 214 177.5 c 128,-1,78
 231 175 231 175 250 172 c 1,79,80
 265 174 265 174 280 178 c 128,-1,81
 295 182 295 182 308 189.5 c 128,-1,82
 321 197 321 197 329.5 207.5 c 128,-1,83
 338 218 338 218 340 233 c 0,84,85
 342 249 342 249 338 259.5 c 128,-1,86
 334 270 334 270 325.5 277 c 128,-1,87
 317 284 317 284 305 288 c 128,-1,88
 293 292 293 292 278 296 c 1,89,-1
 260 296 l 2,90,91
 246 296 246 296 230 292 c 128,-1,92
 214 288 214 288 200.5 280.5 c 128,-1,93
 187 273 187 273 177.5 260.5 c 128,-1,94
 168 248 168 248 165 231 c 0,74,75
EndSplineSet
EndChar
StartChar: dieresis
Encoding: 168 168 107
Width: 284
Flags: W
Fore
147 369 m 0,0,1
 130 369 130 369 122 384.5 c 128,-1,2
 114 400 114 400 119 422 c 256,3,4
 124 444 124 444 138.5 459.5 c 128,-1,5
 153 475 153 475 170 476 c 0,6,7
 187 475 187 475 194 459.5 c 128,-1,8
 201 444 201 444 196 422 c 256,9,10
 191 400 191 400 176.5 384.5 c 128,-1,11
 162 369 162 369 147 369 c 0,0,1
296 369 m 0,12,13
 279 369 279 369 271 384.5 c 128,-1,14
 263 400 263 400 268 422 c 256,15,16
 273 444 273 444 287.5 459.5 c 128,-1,17
 302 475 302 475 319 476 c 0,18,19
 336 475 336 475 343.5 459.5 c 128,-1,20
 351 444 351 444 346 422 c 256,21,22
 341 400 341 400 326.5 384.5 c 128,-1,23
 312 369 312 369 296 369 c 0,12,13
EndSplineSet
EndChar
StartChar: copyright
Encoding: 169 169 108
Width: 609
Flags: W
Fore
147 364 m 2,0,1
 156 406 156 406 196.5 434.5 c 128,-1,2
 237 463 237 463 292 477 c 128,-1,3
 347 491 347 491 408 491.5 c 128,-1,4
 469 492 469 492 518 477.5 c 128,-1,5
 567 463 567 463 595.5 434.5 c 128,-1,6
 624 406 624 406 615 364 c 2,7,-1
 561 112 l 2,8,9
 552 70 552 70 511.5 41.5 c 128,-1,10
 471 13 471 13 415.5 -1.5 c 128,-1,11
 360 -16 360 -16 299.5 -15.5 c 128,-1,12
 239 -15 239 -15 189.5 -1 c 128,-1,13
 140 13 140 13 111.5 41 c 128,-1,14
 83 69 83 69 92 112 c 2,15,-1
 147 364 l 2,0,1
559 345 m 2,16,17
 567 380 567 380 544.5 403.5 c 128,-1,18
 522 427 522 427 484 438.5 c 128,-1,19
 446 450 446 450 398.5 450 c 128,-1,20
 351 450 351 450 308 438.5 c 128,-1,21
 265 427 265 427 232.5 403.5 c 128,-1,22
 200 380 200 380 193 345 c 2,23,-1
 148 133 l 2,24,25
 140 97 140 97 162 73 c 128,-1,26
 184 49 184 49 222 37 c 128,-1,27
 260 25 260 25 307.5 25 c 128,-1,28
 355 25 355 25 398.5 37 c 128,-1,29
 442 49 442 49 474 73 c 128,-1,30
 506 97 506 97 514 133 c 2,31,-1
 559 345 l 2,16,17
311 361 m 0,32,33
 289 349 289 349 281 333 c 128,-1,34
 273 317 273 317 268 296 c 2,35,-1
 243 178 l 2,36,37
 238 157 238 157 240.5 144 c 128,-1,38
 243 131 243 131 260 119 c 0,39,40
 276 108 276 108 302 103 c 128,-1,41
 328 98 328 98 355.5 101 c 128,-1,42
 383 104 383 104 408.5 117 c 128,-1,43
 434 130 434 130 449 155 c 1,44,-1
 475 136 l 1,45,46
 455 107 455 107 422 91 c 128,-1,47
 389 75 389 75 353.5 70 c 128,-1,48
 318 65 318 65 285 70 c 128,-1,49
 252 75 252 75 231 89 c 0,50,51
 212 102 212 102 200.5 121.5 c 128,-1,52
 189 141 189 141 194 165 c 2,53,-1
 224 309 l 2,54,55
 229 333 229 333 249.5 354 c 128,-1,56
 270 375 270 375 295 388 c 0,57,58
 322 402 322 402 357 406.5 c 128,-1,59
 392 411 392 411 425 405.5 c 128,-1,60
 458 400 458 400 484 383.5 c 128,-1,61
 510 367 510 367 518 338 c 1,62,-1
 480 327 l 1,63,64
 475 348 475 348 456 360 c 128,-1,65
 437 372 437 372 412 376 c 128,-1,66
 387 380 387 380 359.5 376 c 128,-1,67
 332 372 332 372 311 361 c 0,32,33
EndSplineSet
EndChar
StartChar: ordfeminine
Encoding: 170 170 109
Width: 288
Flags: W
Fore
273 316 m 1,0,1
 259 307 259 307 247 303 c 128,-1,2
 235 299 235 299 219 296 c 0,3,4
 199 292 199 292 182 289 c 128,-1,5
 165 286 165 286 152.5 281 c 128,-1,6
 140 276 140 276 132 268 c 128,-1,7
 124 260 124 260 121 246 c 0,8,9
 119 235 119 235 127 227.5 c 128,-1,10
 135 220 135 220 148 218 c 0,11,12
 170 215 170 215 188.5 218 c 128,-1,13
 207 221 207 221 221 227 c 128,-1,14
 235 233 235 233 244.5 240 c 128,-1,15
 254 247 254 247 259 251 c 1,16,-1
 259 253 l 1,17,-1
 272 315 l 1,18,-1
 273 316 l 1,0,1
270 191 m 1,19,20
 262 194 262 194 257 203 c 128,-1,21
 252 212 252 212 252 221 c 1,22,23
 246 216 246 216 233.5 209.5 c 128,-1,24
 221 203 221 203 205 197.5 c 128,-1,25
 189 192 189 192 170.5 189 c 128,-1,26
 152 186 152 186 134 190 c 0,27,28
 111 195 111 195 96 210 c 128,-1,29
 81 225 81 225 86 251 c 0,30,31
 90 272 90 272 104.5 284.5 c 128,-1,32
 119 297 119 297 139 304.5 c 128,-1,33
 159 312 159 312 182 316 c 128,-1,34
 205 320 205 320 226 325 c 0,35,36
 232 326 232 326 240.5 328 c 128,-1,37
 249 330 249 330 257 334 c 128,-1,38
 265 338 265 338 271.5 343 c 128,-1,39
 278 348 278 348 280 355 c 0,40,41
 282 364 282 364 276.5 373 c 128,-1,42
 271 382 271 382 261 389 c 0,43,44
 250 396 250 396 234.5 398 c 128,-1,45
 219 400 219 400 201 398 c 128,-1,46
 183 396 183 396 165 390.5 c 128,-1,47
 147 385 147 385 132 378 c 1,48,-1
 141 406 l 1,49,50
 158 414 158 414 178.5 418 c 128,-1,51
 199 422 199 422 219 423 c 128,-1,52
 239 424 239 424 257 420.5 c 128,-1,53
 275 417 275 417 288 410 c 0,54,55
 302 404 302 404 311 388 c 128,-1,56
 320 372 320 372 316 354 c 2,57,-1
 291 238 l 2,58,59
 289 228 289 228 289 220 c 128,-1,60
 289 212 289 212 299 204 c 1,61,62
 294 199 294 199 284 196 c 128,-1,63
 274 193 274 193 270 191 c 1,19,20
EndSplineSet
EndChar
StartChar: guillemotleft
Encoding: 171 171 110
Width: 450
Flags: W
Fore
136 169 m 1,0,1
 146 165 146 165 162 152 c 128,-1,2
 178 139 178 139 195 121.5 c 128,-1,3
 212 104 212 104 227 84 c 128,-1,4
 242 64 242 64 251 46 c 1,5,-1
 196 46 l 1,6,7
 184 66 184 66 168 85.5 c 128,-1,8
 152 105 152 105 134.5 121.5 c 128,-1,9
 117 138 117 138 98.5 150 c 128,-1,10
 80 162 80 162 62 167 c 1,11,12
 103 184 103 184 153.5 216 c 128,-1,13
 204 248 204 248 247 294 c 1,14,-1
 304 294 l 1,15,16
 284 272 284 272 259.5 251 c 128,-1,17
 235 230 235 230 211.5 213.5 c 128,-1,18
 188 197 188 197 168 185 c 128,-1,19
 148 173 148 173 136 169 c 1,0,1
296 169 m 1,20,21
 306 165 306 165 322 152 c 128,-1,22
 338 139 338 139 355 121.5 c 128,-1,23
 372 104 372 104 387 84 c 128,-1,24
 402 64 402 64 411 46 c 1,25,-1
 356 46 l 1,26,27
 344 66 344 66 328 85.5 c 128,-1,28
 312 105 312 105 294.5 121.5 c 128,-1,29
 277 138 277 138 258 150 c 128,-1,30
 239 162 239 162 221 167 c 1,31,32
 263 184 263 184 313.5 216 c 128,-1,33
 364 248 364 248 407 294 c 1,34,-1
 464 294 l 1,35,36
 444 272 444 272 419.5 251 c 128,-1,37
 395 230 395 230 371.5 213.5 c 128,-1,38
 348 197 348 197 328 185 c 128,-1,39
 308 173 308 173 296 169 c 1,20,21
EndSplineSet
EndChar
StartChar: logicalnot
Encoding: 172 172 111
Width: 473
Flags: W
Fore
403 91 m 1,0,-1
 435 241 l 1,1,-1
 90 241 l 1,2,-1
 99 286 l 1,3,-1
 489 286 l 1,4,-1
 448 91 l 1,5,-1
 403 91 l 1,6,-1
 403 91 l 1,0,-1
EndSplineSet
EndChar
StartChar: registered
Encoding: 174 174 112
Width: 484
Flags: W
Fore
147 368 m 0,0,1
 156 410 156 410 187.5 438 c 128,-1,2
 219 466 219 466 260.5 480 c 128,-1,3
 302 494 302 494 347.5 494 c 128,-1,4
 393 494 393 494 428.5 480 c 128,-1,5
 464 466 464 466 484 438 c 128,-1,6
 504 410 504 410 495 368 c 2,7,-1
 473 264 l 2,8,9
 464 222 464 222 432.5 194 c 128,-1,10
 401 166 401 166 360 152 c 128,-1,11
 319 138 319 138 274 138 c 128,-1,12
 229 138 229 138 193.5 152 c 128,-1,13
 158 166 158 166 138 194 c 128,-1,14
 118 222 118 222 126 264 c 0,15,16
 130 287 130 287 136 316 c 128,-1,17
 142 345 142 345 147 368 c 0,0,1
193 363 m 2,18,-1
 173 270 l 2,19,20
 166 239 166 239 180 217.5 c 128,-1,21
 194 196 194 196 220 185 c 128,-1,22
 246 174 246 174 279 173 c 128,-1,23
 312 172 312 172 342.5 182 c 128,-1,24
 373 192 373 192 396.5 212.5 c 128,-1,25
 420 233 420 233 427 264 c 2,26,-1
 448 364 l 2,27,28
 454 393 454 393 440 414 c 128,-1,29
 426 435 426 435 400 446 c 128,-1,30
 374 457 374 457 341 458 c 128,-1,31
 308 459 308 459 278 449 c 128,-1,32
 248 439 248 439 224 418 c 128,-1,33
 200 397 200 397 193 363 c 2,18,-1
345 317 m 1,34,35
 365 322 365 322 380.5 334 c 128,-1,36
 396 346 396 346 401 366 c 0,37,38
 405 385 405 385 399.5 397 c 128,-1,39
 394 409 394 409 383.5 416 c 128,-1,40
 373 423 373 423 360 425 c 128,-1,41
 347 427 347 427 337 427 c 2,42,-1
 269 427 l 1,43,-1
 224 213 l 1,44,-1
 255 213 l 1,45,-1
 274 303 l 1,46,-1
 285 303 l 2,47,48
 298 303 298 303 310.5 302 c 128,-1,49
 323 301 323 301 331.5 295.5 c 128,-1,50
 340 290 340 290 343 278 c 128,-1,51
 346 266 346 266 341 244 c 2,52,-1
 335 213 l 1,53,-1
 366 213 l 1,54,-1
 373 245 l 2,55,56
 377 267 377 267 376.5 279.5 c 128,-1,57
 376 292 376 292 371.5 299.5 c 128,-1,58
 367 307 367 307 360 310.5 c 128,-1,59
 353 314 353 314 345 317 c 1,34,35
295 400 m 1,60,-1
 333 400 l 2,61,62
 342 400 342 400 350.5 399.5 c 128,-1,63
 359 399 359 399 365 396 c 128,-1,64
 371 393 371 393 373.5 386 c 128,-1,65
 376 379 376 379 373 366 c 0,66,67
 368 349 368 349 353 345.5 c 128,-1,68
 338 342 338 342 318 340 c 2,69,-1
 282 340 l 1,70,71
 286 356 286 356 287.5 363 c 128,-1,72
 289 370 289 370 289.5 374.5 c 128,-1,73
 290 379 290 379 291 383.5 c 128,-1,74
 292 388 292 388 295 400 c 1,60,-1
EndSplineSet
EndChar
StartChar: macron
Encoding: 175 175 113
Width: 236
Flags: W
Fore
125 415 m 1,0,-1
 135 463 l 1,1,-1
 293 463 l 1,2,-1
 283 415 l 1,3,-1
 125 415 l 1,4,-1
 125 415 l 1,0,-1
EndSplineSet
EndChar
StartChar: degree
Encoding: 176 176 114
Width: 219
Flags: W
Fore
115 410 m 0,0,1
 122 443 122 443 150 465.5 c 128,-1,2
 178 488 178 488 209 488 c 0,3,4
 239 488 239 488 258.5 465 c 128,-1,5
 278 442 278 442 270 409 c 0,6,7
 267 392 267 392 257.5 377.5 c 128,-1,8
 248 363 248 363 234.5 352.5 c 128,-1,9
 221 342 221 342 205.5 335.5 c 128,-1,10
 190 329 190 329 175 329 c 0,11,12
 142 329 142 329 125 353.5 c 128,-1,13
 108 378 108 378 115 410 c 0,0,1
156 410 m 0,14,15
 151 391 151 391 156 374 c 128,-1,16
 161 357 161 357 181 356 c 0,17,18
 198 356 198 356 211.5 373 c 128,-1,19
 225 390 225 390 230 410 c 0,20,21
 234 427 234 427 227.5 442.5 c 128,-1,22
 221 458 221 458 203 459 c 0,23,24
 186 458 186 458 172.5 442.5 c 128,-1,25
 159 427 159 427 156 410 c 0,14,15
EndSplineSet
EndChar
StartChar: plusminus
Encoding: 177 177 115
Width: 448
Flags: W
Fore
288 223 m 1,0,-1
 261 95 l 1,1,-1
 211 95 l 1,2,-1
 238 223 l 1,3,-1
 81 223 l 1,4,-1
 92 275 l 1,5,-1
 249 275 l 1,6,-1
 277 408 l 1,7,-1
 327 408 l 1,8,-1
 299 275 l 1,9,-1
 462 275 l 1,10,-1
 451 223 l 1,11,-1
 288 223 l 1,12,-1
 288 223 l 1,0,-1
35 0 m 1,13,-1
 44 51 l 1,14,-1
 415 51 l 1,15,-1
 406 0 l 1,16,-1
 35 0 l 1,17,-1
 35 0 l 1,13,-1
EndSplineSet
EndChar
StartChar: twosuperior
Encoding: 178 178 116
Width: 297
Flags: W
Fore
87 226 m 1,0,-1
 216 324 l 2,1,2
 235 340 235 340 248 353.5 c 128,-1,3
 261 367 261 367 272 378 c 0,4,5
 296 403 296 403 295.5 420 c 128,-1,6
 295 437 295 437 284 443 c 256,7,8
 273 449 273 449 261 449 c 128,-1,9
 249 449 249 449 242 449 c 0,10,11
 224 449 224 449 193.5 436.5 c 128,-1,12
 163 424 163 424 138 407 c 1,13,-1
 145 442 l 1,14,15
 177 464 177 464 204.5 473 c 128,-1,16
 232 482 232 482 252 482 c 0,17,18
 271 482 271 482 287.5 478.5 c 128,-1,19
 304 475 304 475 316 467.5 c 128,-1,20
 328 460 328 460 333.5 448 c 128,-1,21
 339 436 339 436 336 418 c 0,22,23
 335 412 335 412 332.5 403.5 c 128,-1,24
 330 395 330 395 323.5 384.5 c 128,-1,25
 317 374 317 374 306 361 c 128,-1,26
 295 348 295 348 277 331 c 0,27,28
 269 324 269 324 248 307 c 128,-1,29
 227 290 227 290 204.5 272 c 128,-1,30
 182 254 182 254 163.5 240 c 128,-1,31
 145 226 145 226 144 226 c 1,32,33
 160 227 160 227 181.5 227 c 128,-1,34
 224.5 227 l 128,-1,35
 246 227 246 227 264 226.5 c 128,-1,36
 282 226 282 226 291 226 c 1,37,-1
 283 191 l 1,38,-1
 79 191 l 1,39,-1
 87 226 l 1,0,-1
EndSplineSet
EndChar
StartChar: threesuperior
Encoding: 179 179 117
Width: 278
Flags: W
Fore
158 373 m 1,0,1
 174 373 174 373 177 374 c 2,2,3
 189 375 189 375 206 378.5 c 128,-1,4
 223 382 223 382 235 387 c 0,5,6
 256 395 256 395 264.5 407.5 c 128,-1,7
 273 420 273 420 263 433 c 0,8,9
 255 442 255 442 239 445.5 c 128,-1,10
 223 449 223 449 205 449 c 0,11,12
 186 448 186 448 171.5 444 c 128,-1,13
 157 440 157 440 139 435 c 1,14,-1
 148 470 l 1,15,16
 168 475 168 475 181 477.5 c 128,-1,17
 194 480 194 480 207 481 c 0,18,19
 222 483 222 483 239.5 482 c 128,-1,20
 257 481 257 481 268 477 c 0,21,22
 286 471 286 471 301 459 c 128,-1,23
 316 447 316 447 314 423 c 0,24,25
 311 391 311 391 283 374.5 c 128,-1,26
 255 358 255 358 217 351 c 1,27,-1
 217 350 l 1,28,29
 235 350 235 350 254.5 343 c 128,-1,30
 274 336 274 336 282 328 c 0,31,32
 300 308 300 308 296 282.5 c 128,-1,33
 292 257 292 257 272.5 235.5 c 128,-1,34
 253 214 253 214 221 201 c 128,-1,35
 189 188 189 188 150 193 c 0,36,37
 145 193 145 193 136.5 193.5 c 128,-1,38
 128 194 128 194 118.5 195.5 c 128,-1,39
 109 197 109 197 100 199.5 c 128,-1,40
 91 202 91 202 86 205 c 1,41,-1
 92 244 l 1,42,43
 109 237 109 237 123.5 233 c 128,-1,44
 138 229 138 229 160 228 c 0,45,46
 195 227 195 227 217 241 c 128,-1,47
 239 255 239 255 244 278 c 0,48,49
 247 295 247 295 240.5 305 c 128,-1,50
 234 315 234 315 220.5 319.5 c 128,-1,51
 207 324 207 324 188 325 c 128,-1,52
 169 326 169 326 147 325 c 1,53,-1
 158 373 l 1,54,-1
 158 373 l 1,0,1
EndSplineSet
EndChar
StartChar: acute
Encoding: 180 180 118
Width: 222
Flags: W
Fore
187 350 m 1,0,-1
 143 350 l 1,1,-1
 203 491 l 1,2,-1
 267 491 l 1,3,-1
 187 350 l 1,4,-1
 187 350 l 1,0,-1
EndSplineSet
EndChar
StartChar: mu
Encoding: 956 181 119
AltUni: 956
Width: 477
Flags: W
Fore
349 1 m 1,0,-1
 362 65 l 1,1,2
 351 52 351 52 337 39.5 c 128,-1,3
 323 27 323 27 306.5 16.5 c 128,-1,4
 290 6 290 6 270.5 -0.5 c 128,-1,5
 251 -7 251 -7 228 -7 c 0,6,7
 220 -7 220 -7 208 -6 c 128,-1,8
 196 -5 196 -5 184 0.5 c 128,-1,9
 172 6 172 6 160.5 16 c 128,-1,10
 149 26 149 26 141 44 c 1,11,-1
 94 -167 l 1,12,-1
 37 -167 l 1,13,-1
 146 348 l 1,14,-1
 205 348 l 1,15,-1
 170 180 l 2,16,17
 165 156 165 156 165.5 131 c 128,-1,18
 166 106 166 106 174 85 c 128,-1,19
 182 64 182 64 200 51 c 128,-1,20
 218 38 218 38 247 38 c 0,21,22
 269 38 269 38 290.5 47 c 128,-1,23
 312 56 312 56 330 71.5 c 128,-1,24
 348 87 348 87 360 106.5 c 128,-1,25
 372 126 372 126 377 147 c 2,26,-1
 419 348 l 1,27,-1
 479 348 l 1,28,-1
 424 86 l 2,29,30
 419 65 419 65 414.5 43.5 c 128,-1,31
 410 22 410 22 406 1 c 1,32,-1
 349 1 l 1,0,-1
EndSplineSet
EndChar
StartChar: paragraph
Encoding: 182 182 120
Width: 414
Flags: W
Fore
446 484 m 1,0,-1
 336 -37 l 1,1,-1
 283 -37 l 1,2,-1
 382 430 l 1,3,-1
 306 430 l 1,4,-1
 207 -37 l 1,5,-1
 178 -37 l 1,6,-1
 155 -37 l 1,7,-1
 208 215 l 1,8,9
 183 205 183 205 160 205.5 c 128,-1,10
 137 206 137 206 120 217 c 0,11,12
 103 229 103 229 96 249.5 c 128,-1,13
 89 270 89 270 92 294.5 c 128,-1,14
 95 319 95 319 107.5 346.5 c 128,-1,15
 120 374 120 374 141 400 c 0,16,17
 173 442 173 442 213 463.5 c 128,-1,18
 253 485 253 485 288 483 c 1,19,-1
 288 484 l 1,20,-1
 446 484 l 1,0,-1
EndSplineSet
EndChar
StartChar: periodcentered
Encoding: 183 183 121
Width: 265
Flags: W
Fore
258 237 m 256,0,1
 251 204 251 204 223 181 c 128,-1,2
 195 158 195 158 161 158 c 0,3,4
 129 158 129 158 110 181 c 128,-1,5
 91 204 91 204 99 237 c 0,6,7
 102 253 102 253 111.5 268 c 128,-1,8
 121 283 121 283 134 293.5 c 128,-1,9
 147 304 147 304 163 310.5 c 128,-1,10
 179 317 179 317 195 317 c 0,11,12
 229 317 229 317 247 293.5 c 128,-1,13
 265 270 265 270 258 237 c 256,0,1
EndSplineSet
EndChar
StartChar: cedilla
Encoding: 184 184 122
Width: 268
Flags: W
Fore
194 -59 m 0,0,1
 194 -70 194 -70 187 -82 c 128,-1,2
 180 -94 180 -94 168 -104.5 c 128,-1,3
 156 -115 156 -115 140.5 -123 c 128,-1,4
 125 -131 125 -131 107 -134 c 0,5,6
 85 -138 85 -138 63.5 -135.5 c 128,-1,7
 42 -133 42 -133 31 -127 c 1,8,-1
 40 -108 l 1,9,10
 49 -113 49 -113 68.5 -112 c 128,-1,11
 88 -111 88 -111 99 -108 c 0,12,13
 114 -104 114 -104 129.5 -94 c 128,-1,14
 145 -84 145 -84 147 -70 c 1,15,16
 147 -63 147 -63 141.5 -59 c 128,-1,17
 136 -55 136 -55 127.5 -54 c 128,-1,18
 119 -53 119 -53 109.5 -54 c 128,-1,19
 100 -55 100 -55 92 -56 c 1,20,21
 87 -58 87 -58 73 -61 c 128,-1,22
 59 -64 59 -64 53 -67 c 1,23,-1
 53 -66 l 1,24,-1
 53 -67 l 1,25,-1
 53 -66 l 1,26,-1
 55 -64 l 1,27,-1
 59 -61 l 1,28,-1
 114 5 l 1,29,-1
 164 5 l 1,30,-1
 128 -32 l 1,31,32
 138 -31 138 -31 149.5 -31 c 128,-1,33
 161 -31 161 -31 170.5 -33.5 c 128,-1,34
 180 -36 180 -36 186.5 -42 c 128,-1,35
 193 -48 193 -48 194 -59 c 0,0,1
EndSplineSet
EndChar
StartChar: onesuperior
Encoding: 185 185 123
Width: 186
Flags: W
Fore
172 432 m 1,0,-1
 140 415 l 1,1,-1
 148 452 l 1,2,-1
 186 471 l 1,3,-1
 222 471 l 1,4,-1
 162 191 l 1,5,-1
 119 191 l 1,6,-1
 172 432 l 1,7,-1
 172 432 l 1,0,-1
EndSplineSet
EndChar
StartChar: ordmasculine
Encoding: 186 186 124
Width: 307
Flags: W
Fore
99 343 m 0,0,1
 105 371 105 371 127.5 390 c 128,-1,2
 150 409 150 409 179.5 418.5 c 128,-1,3
 209 428 209 428 241.5 428 c 128,-1,4
 274 428 274 428 299.5 418.5 c 128,-1,5
 325 409 325 409 339 390.5 c 128,-1,6
 353 372 353 372 347 343 c 2,7,-1
 332 272 l 2,8,9
 326 243 326 243 304 224.5 c 128,-1,10
 282 206 282 206 252.5 196 c 128,-1,11
 223 186 223 186 191 186 c 128,-1,12
 159 186 159 186 133.5 195.5 c 128,-1,13
 108 205 108 205 93 224.5 c 128,-1,14
 78 244 78 244 84 272 c 0,15,16
 87 287 87 287 91.5 307 c 128,-1,17
 96 327 96 327 99 343 c 0,0,1
140 332 m 0,18,19
 139 329 139 329 137 322 c 128,-1,20
 135 315 135 315 133.5 307.5 c 128,-1,21
 132 300 132 300 130 292.5 c 128,-1,22
 128 285 128 285 127 281 c 0,23,24
 122 260 122 260 131.5 246 c 128,-1,25
 141 232 141 232 157.5 224.5 c 128,-1,26
 174 217 174 217 195.5 217 c 128,-1,27
 217 217 217 217 236.5 224 c 128,-1,28
 256 231 256 231 271.5 245 c 128,-1,29
 287 259 287 259 291 281 c 0,30,31
 293 291 293 291 294 294.5 c 128,-1,32
 295 298 295 298 295.5 301 c 128,-1,33
 296 304 296 304 297.5 310 c 128,-1,34
 299 316 299 316 302 332 c 0,35,36
 307 355 307 355 298.5 370.5 c 128,-1,37
 290 386 290 386 273.5 393 c 128,-1,38
 257 400 257 400 236 400 c 128,-1,39
 215 400 215 400 195 392 c 128,-1,40
 175 384 175 384 160 369 c 128,-1,41
 145 354 145 354 140 332 c 0,18,19
EndSplineSet
EndChar
StartChar: guillemotright
Encoding: 187 187 125
Width: 414
Flags: W
Fore
352 182 m 1,0,1
 342 186 342 186 326 199 c 128,-1,2
 310 212 310 212 293 229.5 c 128,-1,3
 276 247 276 247 261 267 c 128,-1,4
 246 287 246 287 237 305 c 1,5,-1
 292 305 l 1,6,7
 304 285 304 285 320 265.5 c 128,-1,8
 336 246 336 246 354 229.5 c 128,-1,9
 372 213 372 213 391 201 c 128,-1,10
 410 189 410 189 428 184 c 1,11,12
 386 167 386 167 335.5 135 c 128,-1,13
 285 103 285 103 242 57 c 1,14,-1
 185 57 l 1,15,16
 205 79 205 79 229.5 100 c 128,-1,17
 254 121 254 121 277.5 137.5 c 128,-1,18
 301 154 301 154 321 166 c 128,-1,19
 341 178 341 178 352 182 c 1,0,1
192 182 m 1,20,21
 182 186 182 186 166.5 199 c 128,-1,22
 151 212 151 212 134 229.5 c 128,-1,23
 117 247 117 247 102 267 c 128,-1,24
 87 287 87 287 78 305 c 1,25,-1
 132 305 l 1,26,27
 144 285 144 285 160 265.5 c 128,-1,28
 176 246 176 246 194 229.5 c 128,-1,29
 212 213 212 213 231 201 c 128,-1,30
 250 189 250 189 268 184 c 1,31,32
 226 167 226 167 175.5 135 c 128,-1,33
 125 103 125 103 82 57 c 1,34,-1
 25 57 l 1,35,36
 45 79 45 79 69.5 100 c 128,-1,37
 94 121 94 121 117.5 137.5 c 128,-1,38
 141 154 141 154 161 166 c 128,-1,39
 181 178 181 178 192 182 c 1,20,21
EndSplineSet
EndChar
StartChar: onequarter
Encoding: 188 188 126
Width: 602
Flags: W
Fore
494 240 m 1,0,1
 495 241 495 241 495 241.5 c 128,-1,2
 495 242 495 242 496 243 c 1,3,-1
 496 245 l 1,4,5
 494 243 494 243 494 240 c 1,0,1
497 244 m 1,6,-1
 496 243 l 1,7,-1
 497 243 l 1,8,-1
 497 244 l 1,6,-1
191 439 m 1,9,-1
 159 422 l 1,10,-1
 167 459 l 1,11,-1
 204 478 l 1,12,-1
 241 478 l 1,13,-1
 182 198 l 1,14,-1
 139 198 l 1,15,-1
 191 439 l 1,9,-1
553 104 m 1,16,-1
 544 63 l 1,17,-1
 511 63 l 1,18,19
 510 58 510 58 507 44 c 128,-1,20
 504 30 504 30 499 5 c 1,21,-1
 457 5 l 1,22,23
 461 27 461 27 462.5 35.5 c 128,-1,24
 464 44 464 44 464.5 46.5 c 128,-1,25
 465 49 465 49 465.5 51 c 128,-1,26
 466 53 466 53 469 63 c 1,27,-1
 320 63 l 1,28,-1
 327 98 l 1,29,30
 372 149 372 149 414 197 c 128,-1,31
 456 245 456 245 489 285 c 1,32,-1
 559 285 l 1,33,34
 554 262 554 262 548 235.5 c 128,-1,35
 542 209 542 209 536.5 183.5 c 128,-1,36
 531 158 531 158 526.5 137 c 128,-1,37
 522 116 522 116 520 104 c 1,38,-1
 553 104 l 1,16,-1
478 104 m 1,39,40
 485 142 485 142 495 184.5 c 128,-1,41
 505 227 505 227 512 262 c 1,42,-1
 376 104 l 1,43,-1
 478 104 l 1,39,40
529 481 m 1,44,-1
 135 -4 l 1,45,-1
 90 -4 l 1,46,-1
 483 481 l 1,47,-1
 529 481 l 1,44,-1
EndSplineSet
Ligature: 0 0 'frac' one fraction four
Ligature: 0 0 'frac' one slash four
EndChar
StartChar: onehalf
Encoding: 189 189 127
Width: 602
Flags: W
Fore
400 49 m 1,0,1
 416 49 416 49 437.5 49 c 128,-1,2
 459 49 459 49 480 49 c 128,-1,3
 501 49 501 49 518.5 49 c 128,-1,4
 536 49 536 49 545 49 c 1,5,-1
 537 14 l 1,6,-1
 528 14 l 1,7,-1
 528 13 l 1,8,-1
 343 13 l 1,9,-1
 343 14 l 1,10,-1
 332 14 l 1,11,-1
 340 49 l 1,12,-1
 471 147 l 2,13,14
 489 162 489 162 502 175.5 c 128,-1,15
 515 189 515 189 526 201 c 0,16,17
 550 226 550 226 549.5 243 c 128,-1,18
 549 260 549 260 538 266 c 256,19,20
 527 272 527 272 515 272 c 128,-1,21
 503 272 503 272 496 272 c 0,22,23
 484 272 484 272 465 265.5 c 128,-1,24
 446 259 446 259 426 249 c 0,25,26
 421 246 421 246 415 242.5 c 128,-1,27
 409 239 409 239 403 235 c 1,28,-1
 404 237 l 1,29,30
 400 235 400 235 397 233.5 c 128,-1,31
 394 232 394 232 391 230 c 1,32,-1
 399 265 l 1,33,34
 430 287 430 287 458 296 c 128,-1,35
 486 305 486 305 506 305 c 0,36,37
 525 305 525 305 541.5 301.5 c 128,-1,38
 558 298 558 298 570 290.5 c 128,-1,39
 582 283 582 283 588 271 c 128,-1,40
 594 259 594 259 591 241 c 0,41,42
 590 235 590 235 587.5 226.5 c 128,-1,43
 585 218 585 218 578.5 207.5 c 128,-1,44
 572 197 572 197 560.5 184 c 128,-1,45
 549 171 549 171 531 154 c 0,46,47
 525 148 525 148 511 136.5 c 128,-1,48
 497 125 497 125 479.5 111 c 128,-1,49
 462 97 462 97 444.5 83.5 c 128,-1,50
 427 70 427 70 414 61 c 1,51,52
 410 57 410 57 407 54 c 128,-1,53
 404 51 404 51 400 49 c 1,0,1
178 431 m 1,54,-1
 145 414 l 1,55,-1
 153 451 l 1,56,-1
 191 470 l 1,57,-1
 227 470 l 1,58,-1
 168 190 l 1,59,-1
 125 190 l 1,60,-1
 178 431 l 1,54,-1
517 475 m 1,61,-1
 123 -10 l 1,62,-1
 78 -10 l 1,63,-1
 471 475 l 1,64,-1
 517 475 l 1,61,-1
EndSplineSet
Ligature: 0 0 'frac' one fraction two
Ligature: 0 0 'frac' one slash two
EndChar
StartChar: threequarters
Encoding: 190 190 128
Width: 602
Flags: W
Fore
294 323 m 0,0,1
 312 303 312 303 307.5 277.5 c 128,-1,2
 303 252 303 252 283.5 230.5 c 128,-1,3
 264 209 264 209 232 196 c 128,-1,4
 200 183 200 183 162 188 c 0,5,6
 157 188 157 188 149 188.5 c 128,-1,7
 141 189 141 189 131.5 190.5 c 128,-1,8
 122 192 122 192 113 194.5 c 128,-1,9
 104 197 104 197 98 200 c 1,10,-1
 104 239 l 1,11,12
 121 232 121 232 136 228 c 128,-1,13
 151 224 151 224 173 223 c 0,14,15
 208 222 208 222 230 236 c 128,-1,16
 252 250 252 250 257 273 c 0,17,18
 260 290 260 290 253.5 300 c 128,-1,19
 247 310 247 310 233.5 314.5 c 128,-1,20
 220 319 220 319 201 320 c 128,-1,21
 182 321 182 321 160 320 c 1,22,-1
 170 368 l 1,23,24
 187 368 187 368 190 369 c 2,25,26
 202 370 202 370 218.5 373.5 c 128,-1,27
 235 377 235 377 248 382 c 0,28,29
 268 390 268 390 277 402.5 c 128,-1,30
 286 415 286 415 275 428 c 0,31,32
 268 437 268 437 252 440.5 c 128,-1,33
 236 444 236 444 218 444 c 0,34,35
 198 443 198 443 184 439 c 128,-1,36
 170 435 170 435 152 430 c 1,37,-1
 161 465 l 1,38,39
 181 470 181 470 193 472.5 c 128,-1,40
 205 475 205 475 219 476 c 0,41,42
 234 478 234 478 252 477 c 128,-1,43
 270 476 270 476 281 472 c 0,44,45
 298 466 298 466 313.5 454 c 128,-1,46
 329 442 329 442 327 418 c 0,47,48
 324 386 324 386 296 369.5 c 128,-1,49
 268 353 268 353 230 346 c 1,50,-1
 230 345 l 1,51,52
 248 345 248 345 267 338 c 128,-1,53
 286 331 286 331 294 323 c 0,0,1
564 104 m 1,54,-1
 555 63 l 1,55,-1
 522 63 l 1,56,57
 521 58 521 58 518 44 c 128,-1,58
 515 30 515 30 510 5 c 1,59,-1
 468 5 l 1,60,61
 472 27 472 27 473.5 35.5 c 128,-1,62
 475 44 475 44 475.5 46.5 c 128,-1,63
 476 49 476 49 476.5 51 c 128,-1,64
 477 53 477 53 480 63 c 1,65,-1
 331 63 l 1,66,-1
 338 98 l 1,67,68
 383 149 383 149 425 197 c 128,-1,69
 467 245 467 245 500 285 c 1,70,-1
 570 285 l 1,71,72
 565 262 565 262 559 235.5 c 128,-1,73
 553 209 553 209 547.5 183.5 c 128,-1,74
 542 158 542 158 537.5 137 c 128,-1,75
 533 116 533 116 531 104 c 1,76,-1
 564 104 l 1,54,-1
489 104 m 1,77,78
 496 142 496 142 506 184.5 c 128,-1,79
 516 227 516 227 523 262 c 1,80,-1
 387 104 l 1,81,-1
 489 104 l 1,77,78
587 477 m 1,82,-1
 193 -8 l 1,83,-1
 148 -8 l 1,84,-1
 541 477 l 1,85,-1
 587 477 l 1,82,-1
EndSplineSet
Ligature: 0 0 'frac' three fraction four
Ligature: 0 0 'frac' three slash four
EndChar
StartChar: questiondown
Encoding: 191 191 129
Width: 420
Flags: W
Fore
209 -23 m 0,0,1
 217 -7 217 -7 229 7.5 c 128,-1,2
 241 22 241 22 256 33 c 128,-1,3
 271 44 271 44 287 49.5 c 128,-1,4
 303 55 303 55 319 52 c 0,5,6
 332 50 332 50 340.5 39 c 128,-1,7
 349 28 349 28 352 13 c 128,-1,8
 355 -2 355 -2 353 -20 c 128,-1,9
 351 -38 351 -38 344 -54 c 0,10,11
 339 -66 339 -66 335.5 -73.5 c 128,-1,12
 332 -81 332 -81 325 -89 c 0,13,14
 302 -115 302 -115 278 -129.5 c 128,-1,15
 254 -144 254 -144 215 -153 c 0,16,17
 161 -162 161 -162 121.5 -146 c 128,-1,18
 82 -130 82 -130 64 -98.5 c 128,-1,19
 46 -67 46 -67 53 -25.5 c 128,-1,20
 60 16 60 16 99 56 c 0,21,22
 111 68 111 68 125 77.5 c 128,-1,23
 139 87 139 87 153.5 97 c 128,-1,24
 168 107 168 107 180.5 118 c 128,-1,25
 193 129 193 129 201 143 c 0,26,27
 210 158 210 158 215 171.5 c 128,-1,28
 220 185 220 185 223 195 c 0,29,30
 226 206 226 206 227 216 c 1,31,-1
 287 217 l 1,32,33
 287 207 287 207 284 195 c 0,34,35
 282 184 282 184 275.5 169 c 128,-1,36
 269 154 269 154 258 134 c 0,37,38
 248 118 248 118 232 103.5 c 128,-1,39
 216 89 216 89 199 77 c 0,40,41
 180 63 180 63 159 51 c 1,42,43
 123 22 123 22 111 -8.5 c 128,-1,44
 99 -39 99 -39 104.5 -64.5 c 128,-1,45
 110 -90 110 -90 130.5 -106.5 c 128,-1,46
 151 -123 151 -123 180 -123 c 0,47,48
 189 -123 189 -123 204.5 -121.5 c 128,-1,49
 220 -120 220 -120 232 -114 c 1,50,51
 222 -110 222 -110 214 -103.5 c 128,-1,52
 206 -97 206 -97 202 -86.5 c 128,-1,53
 198 -76 198 -76 199.5 -61 c 128,-1,54
 201 -46 201 -46 209 -23 c 0,0,1
304 -47 m 0,55,56
 308 -38 308 -38 311 -27 c 128,-1,57
 314 -16 314 -16 315 -6 c 128,-1,58
 316 4 316 4 313.5 11 c 128,-1,59
 311 18 311 18 305 20 c 1,60,61
 299 21 299 21 291 17 c 128,-1,62
 283 13 283 13 275 6 c 128,-1,63
 267 -1 267 -1 260.5 -10 c 128,-1,64
 254 -19 254 -19 250 -28 c 0,65,66
 240 -46 240 -46 238.5 -65 c 128,-1,67
 237 -84 237 -84 251 -89 c 0,68,69
 265 -93 265 -93 280 -78.5 c 128,-1,70
 295 -64 295 -64 304 -47 c 0,55,56
266 261 m 1,71,72
 251 259 251 259 243.5 272 c 128,-1,73
 236 285 236 285 240 305 c 0,74,75
 245 324 245 324 257.5 337.5 c 128,-1,76
 270 351 270 351 285 351 c 0,77,78
 302 351 302 351 309.5 337.5 c 128,-1,79
 317 324 317 324 312 305 c 0,80,81
 308 285 308 285 294.5 272 c 128,-1,82
 281 259 281 259 266 261 c 1,71,72
EndSplineSet
EndChar
StartChar: Aring
Encoding: 197 197 134
Width: 521
Flags: W
Fore
440 383 m 0,0,1
 444 286 444 286 448 191 c 128,-1,2
 452 96 452 96 460 0 c 1,3,-1
 409 0 l 1,4,-1
 399 144 l 1,5,-1
 179 144 l 1,6,-1
 114 0 l 1,7,-1
 62 0 l 1,8,-1
 228 363 l 2,9,10
 249 403 249 403 270.5 435 c 128,-1,11
 292 467 292 467 328 478 c 1,12,13
 309 488 309 488 300.5 508 c 128,-1,14
 292 528 292 528 297 552 c 0,15,16
 305 585 305 585 332.5 607.5 c 128,-1,17
 360 630 360 630 392 630 c 0,18,19
 407 630 407 630 420 624 c 128,-1,20
 433 618 433 618 442 607 c 128,-1,21
 451 596 451 596 454.5 581.5 c 128,-1,22
 458 567 458 567 454 551 c 0,23,24
 449 526 449 526 430.5 506 c 128,-1,25
 412 486 412 486 389 477 c 1,26,27
 404 472 404 472 413.5 462 c 128,-1,28
 423 452 423 452 428.5 439.5 c 128,-1,29
 434 427 434 427 436.5 412.5 c 128,-1,30
 439 398 439 398 440 383 c 0,0,1
386 601 m 0,31,32
 368 600 368 600 355 584.5 c 128,-1,33
 342 569 342 569 339 552 c 0,34,35
 335 533 335 533 340.5 516 c 128,-1,36
 346 499 346 499 364 498 c 0,37,38
 382 498 382 498 395 515 c 128,-1,39
 408 532 408 532 413 552 c 0,40,41
 418 569 418 569 411 584.5 c 128,-1,42
 404 600 404 600 386 601 c 0,31,32
398 184 m 1,43,-1
 390 346 l 2,44,45
 387 365 387 365 385.5 380 c 128,-1,46
 384 395 384 395 380 408 c 0,47,48
 377 425 377 425 368 433 c 128,-1,49
 359 441 359 441 348.5 440.5 c 128,-1,50
 338 440 338 440 327 432 c 128,-1,51
 316 424 316 424 308 410 c 0,52,53
 302 400 302 400 298 392.5 c 128,-1,54
 294 385 294 385 290.5 378 c 128,-1,55
 287 371 287 371 283.5 363.5 c 128,-1,56
 280 356 280 356 275 346 c 2,57,-1
 199 184 l 1,58,-1
 398 184 l 1,43,-1
EndSplineSet
EndChar
StartChar: AE
Encoding: 198 198 135
Width: 759
Flags: W
Fore
666 439 m 2,0,1
 640 439 640 439 616.5 436 c 128,-1,2
 593 433 593 433 573 423.5 c 128,-1,3
 553 414 553 414 537.5 394.5 c 128,-1,4
 522 375 522 375 512 341 c 2,5,-1
 496 261 l 1,6,-1
 690 261 l 1,7,-1
 680 214 l 1,8,-1
 486 214 l 1,9,-1
 477 173 l 2,10,11
 467 137 467 137 471.5 114 c 128,-1,12
 476 91 476 91 491.5 78 c 128,-1,13
 507 65 507 65 531 59.5 c 128,-1,14
 555 54 555 54 584 53 c 2,15,-1
 722 53 l 1,16,-1
 711 1 l 1,17,-1
 575 1 l 2,18,19
 528 2 528 2 491.5 11.5 c 128,-1,20
 455 21 455 21 438 54 c 1,21,-1
 427 1 l 1,22,-1
 375 1 l 1,23,-1
 408 157 l 1,24,-1
 183 157 l 1,25,-1
 69 1 l 1,26,-1
 12 1 l 1,27,-1
 280 372 l 2,28,29
 296 395 296 395 313 417 c 128,-1,30
 330 439 330 439 350 456.5 c 128,-1,31
 370 474 370 474 393.5 484.5 c 128,-1,32
 417 495 417 495 444 495 c 0,33,34
 473 495 473 495 493.5 476.5 c 128,-1,35
 514 458 514 458 514 435 c 1,36,37
 544 468 544 468 588 479 c 128,-1,38
 632 490 632 490 679 491 c 2,39,-1
 815 491 l 1,40,-1
 804 439 l 1,41,-1
 666 439 l 2,0,1
451 355 m 2,42,43
 453 366 453 366 454.5 372.5 c 128,-1,44
 456 379 456 379 457.5 385 c 128,-1,45
 459 391 459 391 460 397.5 c 128,-1,46
 461 404 461 404 461 414 c 0,47,48
 462 432 462 432 452 439.5 c 128,-1,49
 442 447 442 447 426.5 446 c 128,-1,50
 411 445 411 445 393.5 436.5 c 128,-1,51
 376 428 376 428 364 413 c 0,52,53
 356 403 356 403 351 397 c 128,-1,54
 346 391 346 391 342.5 385 c 128,-1,55
 339 379 339 379 334.5 372 c 128,-1,56
 330 365 330 365 322 355 c 2,57,-1
 218 204 l 1,58,-1
 419 205 l 1,59,-1
 451 355 l 2,42,43
EndSplineSet
EndChar
StartChar: Eth
Encoding: 208 208 145
Width: 533
Flags: W
Fore
170 483 m 1,0,1
 217 483 217 483 263 481.5 c 128,-1,2
 309 480 309 480 350 473 c 128,-1,3
 391 466 391 466 425 450.5 c 128,-1,4
 459 435 459 435 480.5 408 c 128,-1,5
 502 381 502 381 509 339.5 c 128,-1,6
 516 298 516 298 504 239 c 0,7,8
 489 173 489 173 462.5 129 c 128,-1,9
 436 85 436 85 401 58 c 128,-1,10
 366 31 366 31 324.5 17.5 c 128,-1,11
 283 4 283 4 239 -1 c 128,-1,12
 195 -6 195 -6 150.5 -6 c 128,-1,13
 106 -6 106 -6 65 -6 c 1,14,-1
 111 210 l 1,15,-1
 44 210 l 1,16,-1
 54 257 l 1,17,-1
 121 257 l 1,18,-1
 170 483 l 1,0,1
134 39 m 1,19,20
 211 36 211 36 264 45.5 c 128,-1,21
 317 55 317 55 352.5 79 c 128,-1,22
 388 103 388 103 409 142.5 c 128,-1,23
 430 182 430 182 444 239 c 256,24,25
 458 296 458 296 452 335 c 128,-1,26
 446 374 446 374 418.5 397 c 128,-1,27
 391 420 391 420 341.5 429.5 c 128,-1,28
 292 439 292 439 219 438 c 1,29,-1
 180 257 l 1,30,-1
 321 257 l 1,31,-1
 311 210 l 1,32,-1
 170 210 l 1,33,-1
 134 39 l 1,19,20
EndSplineSet
EndChar
StartChar: multiply
Encoding: 215 215 152
Width: 450
Flags: W
Fore
366 -4 m 1,0,-1
 250 151 l 1,1,2
 223 128 223 128 199.5 108.5 c 128,-1,3
 176 89 176 89 154.5 71.5 c 128,-1,4
 133 54 133 54 112.5 36.5 c 128,-1,5
 92 19 92 19 70 0 c 1,6,-1
 28 24 l 1,7,-1
 223 185 l 1,8,-1
 99 355 l 1,9,-1
 149 379 l 1,10,-1
 268 215 l 1,11,-1
 462 377 l 1,12,-1
 496 350 l 1,13,-1
 292 182 l 1,14,-1
 416 20 l 1,15,-1
 366 -4 l 1,0,-1
EndSplineSet
EndChar
StartChar: Oslash
Encoding: 216 216 153
Width: 513
Flags: W
Fore
481 451 m 1,0,1
 504 436 504 436 515 413 c 128,-1,2
 526 390 526 390 519 360 c 2,3,-1
 467 114 l 2,4,5
 461 84 461 84 439.5 61 c 128,-1,6
 418 38 418 38 387.5 22.5 c 128,-1,7
 357 7 357 7 320.5 -1 c 128,-1,8
 284 -9 284 -9 247 -10 c 0,9,10
 224 -10 224 -10 204.5 -6.5 c 128,-1,11
 185 -3 185 -3 168 3 c 1,12,-1
 148 -25 l 1,13,-1
 87 -25 l 1,14,-1
 124 28 l 1,15,16
 103 45 103 45 95 67.5 c 128,-1,17
 87 90 87 90 92 114 c 2,18,-1
 145 360 l 2,19,20
 152 393 152 393 176 417.5 c 128,-1,21
 200 442 200 442 233 457.5 c 128,-1,22
 266 473 266 473 303 480 c 128,-1,23
 340 487 340 487 373 485 c 0,24,25
 390 483 390 483 406 480.5 c 128,-1,26
 422 478 422 478 436 473 c 1,27,-1
 453 497 l 1,28,-1
 513 497 l 1,29,-1
 481 451 l 1,0,1
152 127 m 2,30,31
 146 95 146 95 156 74 c 1,32,-1
 410 435 l 1,33,34
 383 442 383 442 348 442 c 0,35,36
 324 442 324 442 300 437.5 c 128,-1,37
 276 433 276 433 255.5 422 c 128,-1,38
 235 411 235 411 220 393 c 128,-1,39
 205 375 205 375 199 347 c 2,40,-1
 152 127 l 2,30,31
458 347 m 2,41,42
 463 367 463 367 460.5 381.5 c 128,-1,43
 458 396 458 396 450 407 c 1,44,-1
 195 42 l 1,45,46
 209 37 209 37 226 34.5 c 128,-1,47
 243 32 243 32 261 32 c 0,48,49
 285 32 285 32 309.5 36.5 c 128,-1,50
 334 41 334 41 354.5 51.5 c 128,-1,51
 375 62 375 62 390 80.5 c 128,-1,52
 405 99 405 99 411 127 c 2,53,-1
 458 347 l 2,41,42
EndSplineSet
EndChar
StartChar: Thorn
Encoding: 222 222 159
Width: 478
Flags: W
Fore
325 418 m 0,0,1
 376 417 376 417 408 400.5 c 128,-1,2
 440 384 440 384 456.5 356.5 c 128,-1,3
 473 329 473 329 474 293.5 c 128,-1,4
 475 258 475 258 465 220 c 0,5,6
 457 190 457 190 438 161.5 c 128,-1,7
 419 133 419 133 392 111.5 c 128,-1,8
 365 90 365 90 332 77 c 128,-1,9
 299 64 299 64 265 64 c 0,10,11
 236 64 236 64 217 68 c 128,-1,12
 198 72 198 72 185 78 c 128,-1,13
 172 84 172 84 162.5 91.5 c 128,-1,14
 153 99 153 99 143 107 c 1,15,-1
 121 4 l 1,16,-1
 68 4 l 1,17,-1
 170 478 l 1,18,-1
 222 478 l 1,19,-1
 200 372 l 1,20,21
 211 385 211 385 229.5 394 c 128,-1,22
 248 403 248 403 266.5 408.5 c 128,-1,23
 285 414 285 414 301.5 416.5 c 128,-1,24
 318 419 318 419 325 418 c 0,0,1
407 223 m 0,25,26
 416 252 416 252 415.5 278 c 128,-1,27
 415 304 415 304 404.5 324.5 c 128,-1,28
 394 345 394 345 372.5 359 c 128,-1,29
 351 373 351 373 318 377 c 0,30,31
 306 378 306 378 289.5 374 c 128,-1,32
 273 370 273 370 254.5 362 c 128,-1,33
 236 354 236 354 218 341.5 c 128,-1,34
 200 329 200 329 187 313 c 1,35,-1
 154 156 l 1,36,37
 163 145 163 145 173.5 135.5 c 128,-1,38
 184 126 184 126 197.5 119 c 128,-1,39
 211 112 211 112 228 108 c 128,-1,40
 245 104 245 104 267 105 c 0,41,42
 318 107 318 107 354.5 139.5 c 128,-1,43
 391 172 391 172 407 223 c 0,25,26
EndSplineSet
EndChar
StartChar: uni00DF
Encoding: 223 223 160
Width: 541
Flags: W
Fore
375 289 m 1,0,1
 392 285 392 285 417.5 279 c 128,-1,2
 443 273 443 273 464.5 258 c 128,-1,3
 486 243 486 243 498 216 c 128,-1,4
 510 189 510 189 501 143 c 0,5,6
 490 93 490 93 463 64.5 c 128,-1,7
 436 36 436 36 403 21 c 128,-1,8
 370 6 370 6 336.5 2 c 128,-1,9
 303 -2 303 -2 280 -2 c 2,10,-1
 202 -2 l 1,11,-1
 212 44 l 1,12,-1
 297 44 l 2,13,14
 317 44 317 44 339 48 c 128,-1,15
 361 52 361 52 381 63 c 128,-1,16
 401 74 401 74 417 94 c 128,-1,17
 433 114 433 114 440 146 c 0,18,19
 446 176 446 176 437.5 196.5 c 128,-1,20
 429 217 429 217 412 229.5 c 128,-1,21
 395 242 395 242 373.5 248 c 128,-1,22
 352 254 352 254 333 256 c 2,23,-1
 283 256 l 1,24,-1
 296 319 l 1,25,-1
 347 322 l 2,26,27
 362 322 362 322 377 326.5 c 128,-1,28
 392 331 392 331 405 339.5 c 128,-1,29
 418 348 418 348 427.5 359 c 128,-1,30
 437 370 437 370 440 384 c 0,31,32
 448 415 448 415 430 427 c 128,-1,33
 412 439 412 439 381 438 c 2,34,-1
 302 438 l 2,35,36
 264 439 264 439 243 422.5 c 128,-1,37
 222 406 222 406 212 357 c 0,38,39
 203 312 203 312 193 264 c 128,-1,40
 183 216 183 216 174 174 c 128,-1,41
 165 132 165 132 158.5 100.5 c 128,-1,42
 152 69 152 69 150 57 c 0,43,44
 143 16 143 16 132 -11.5 c 128,-1,45
 121 -39 121 -39 103 -55.5 c 128,-1,46
 85 -72 85 -72 60 -78.5 c 128,-1,47
 35 -85 35 -85 -1 -85 c 2,48,-1
 -17 -85 l 1,49,-1
 -8 -45 l 1,50,-1
 7 -45 l 2,51,52
 37 -45 37 -45 52.5 -36 c 128,-1,53
 68 -27 68 -27 75 -13 c 128,-1,54
 82 1 82 1 84 18.5 c 128,-1,55
 86 36 86 36 89 55 c 2,56,-1
 153 360 l 1,57,58
 156 368 156 368 162.5 388 c 128,-1,59
 169 408 169 408 184 429 c 128,-1,60
 199 450 199 450 223 466.5 c 128,-1,61
 247 483 247 483 284 483 c 2,62,-1
 391 483 l 2,63,64
 413 483 413 483 435 479 c 128,-1,65
 457 475 457 475 473.5 464.5 c 128,-1,66
 490 454 490 454 498 435 c 128,-1,67
 506 416 506 416 500 386 c 0,68,69
 495 360 495 360 481 343.5 c 128,-1,70
 467 327 467 327 449 316.5 c 128,-1,71
 431 306 431 306 411.5 299.5 c 128,-1,72
 392 293 392 293 375 289 c 1,0,1
EndSplineSet
EndChar
StartChar: ae
Encoding: 230 230 167
Width: 681
Flags: W
Fore
402 46 m 0,0,1
 420 34 420 34 448.5 29.5 c 128,-1,2
 477 25 477 25 507.5 28.5 c 128,-1,3
 538 32 538 32 566 46 c 128,-1,4
 594 60 594 60 610 86 c 1,5,-1
 642 65 l 1,6,7
 619 32 619 32 581.5 14.5 c 128,-1,8
 544 -3 544 -3 503 -7.5 c 128,-1,9
 462 -12 462 -12 424.5 -5 c 128,-1,10
 387 2 387 2 364 17 c 0,11,12
 363 18 363 18 359 21.5 c 128,-1,13
 355 25 355 25 350 30 c 128,-1,14
 345 35 345 35 340.5 40.5 c 128,-1,15
 336 46 336 46 335 51 c 1,16,17
 336 52 336 52 333 48.5 c 128,-1,18
 330 45 330 45 320 37 c 0,19,20
 307 26 307 26 288 15.5 c 128,-1,21
 269 5 269 5 246 -1.5 c 128,-1,22
 223 -8 223 -8 196.5 -10 c 128,-1,23
 170 -12 170 -12 142 -6 c 0,24,25
 124 -2 124 -2 107.5 5.5 c 128,-1,26
 91 13 91 13 79.5 24.5 c 128,-1,27
 68 36 68 36 62.5 51.5 c 128,-1,28
 57 67 57 67 61 87 c 0,29,30
 68 121 68 121 89 140.5 c 128,-1,31
 110 160 110 160 138 171 c 128,-1,32
 166 182 166 182 197.5 187.5 c 128,-1,33
 229 193 229 193 257 199 c 0,34,35
 266 201 266 201 281 204.5 c 128,-1,36
 296 208 296 208 311 214 c 128,-1,37
 326 220 326 220 338 228 c 128,-1,38
 350 236 350 236 352 247 c 0,39,40
 358 274 358 274 331 297 c 0,41,42
 316 310 316 310 291 314 c 128,-1,43
 266 318 266 318 237 315 c 128,-1,44
 208 312 208 312 178 303 c 128,-1,45
 148 294 148 294 124 283 c 1,46,-1
 149 325 l 1,47,48
 176 337 176 337 205.5 343.5 c 128,-1,49
 235 350 235 350 263.5 350.5 c 128,-1,50
 292 351 292 351 318 345.5 c 128,-1,51
 344 340 344 340 364 329 c 0,52,53
 387 318 387 318 394 296 c 1,54,55
 413 313 413 313 438 326 c 0,56,57
 459 337 459 337 486.5 342.5 c 128,-1,58
 514 348 514 348 542 347.5 c 128,-1,59
 570 347 570 347 596.5 340 c 128,-1,60
 623 333 623 333 643 320 c 0,61,62
 662 307 662 307 673.5 286.5 c 128,-1,63
 685 266 685 266 681 239 c 0,64,65
 676 210 676 210 666 191.5 c 128,-1,66
 656 173 656 173 636 163.5 c 128,-1,67
 616 154 616 154 584 151 c 128,-1,68
 552 148 552 148 503 150 c 2,69,-1
 386 150 l 1,70,-1
 374 94 l 1,71,72
 376 77 376 77 381.5 67 c 128,-1,73
 387 57 387 57 402 46 c 0,0,1
455 292 m 0,74,75
 435 281 435 281 424.5 271.5 c 128,-1,76
 414 262 414 262 406 244 c 1,77,-1
 406 241 l 1,78,-1
 394 187 l 1,79,-1
 511 187 l 2,80,81
 542 187 542 187 564 188 c 128,-1,82
 586 189 586 189 601 193.5 c 128,-1,83
 616 198 616 198 624.5 208 c 128,-1,84
 633 218 633 218 636 236 c 0,85,86
 638 247 638 247 630 265 c 128,-1,87
 622 283 622 283 609 293 c 0,88,89
 594 305 594 305 574.5 309.5 c 128,-1,90
 555 314 555 314 534 313 c 128,-1,91
 513 312 513 312 492.5 306.5 c 128,-1,92
 472 301 472 301 455 292 c 0,74,75
341 188 m 1,93,94
 318 177 318 177 296.5 171 c 128,-1,95
 275 165 275 165 252 161 c 256,96,97
 206 153 l 128,-1,98
 183 149 183 149 163.5 141.5 c 128,-1,99
 144 134 144 134 129.5 121.5 c 128,-1,100
 115 109 115 109 111 87 c 0,101,102
 105 60 105 60 118.5 46.5 c 128,-1,103
 132 33 132 33 158 30 c 0,104,105
 191 25 191 25 216.5 29.5 c 128,-1,106
 242 34 242 34 261.5 43 c 128,-1,107
 281 52 281 52 295.5 64 c 128,-1,108
 310 76 310 76 320 88 c 1,109,-1
 341 188 l 1,93,94
EndSplineSet
EndChar
StartChar: eth
Encoding: 240 240 177
Width: 497
Flags: W
Fore
465 205 m 0,0,1
 465 181 465 181 457 152.5 c 128,-1,2
 449 124 449 124 432 97.5 c 128,-1,3
 415 71 415 71 388.5 48.5 c 128,-1,4
 362 26 362 26 324 14 c 0,5,6
 310 9 310 9 287 6 c 128,-1,7
 264 3 264 3 238 3 c 128,-1,8
 212 3 212 3 187 8 c 128,-1,9
 162 13 162 13 145 24 c 0,10,11
 137 29 137 29 124.5 38.5 c 128,-1,12
 112 48 112 48 101.5 63 c 128,-1,13
 91 78 91 78 85 100 c 128,-1,14
 79 122 79 122 85 153 c 0,15,16
 90 181 90 181 103 202.5 c 128,-1,17
 116 224 116 224 131.5 239.5 c 128,-1,18
 147 255 147 255 162 264.5 c 128,-1,19
 177 274 177 274 186 278 c 0,20,21
 204 287 204 287 235 292.5 c 128,-1,22
 266 298 266 298 292 297 c 0,23,24
 331 295 331 295 362 280 c 128,-1,25
 393 265 393 265 410 253 c 1,26,27
 408 261 408 261 403 275.5 c 128,-1,28
 398 290 398 290 391.5 307 c 128,-1,29
 385 324 385 324 377.5 341 c 128,-1,30
 370 358 370 358 363 371 c 1,31,-1
 260 329 l 1,32,-1
 247 367 l 1,33,-1
 343 405 l 1,34,35
 330 429 330 429 319 447.5 c 128,-1,36
 308 466 308 466 291 490 c 1,37,-1
 347 490 l 1,38,39
 361 467 361 467 370 453 c 128,-1,40
 379 439 379 439 390 420 c 1,41,-1
 481 458 l 1,42,-1
 491 422 l 1,43,-1
 404 387 l 1,44,45
 421 360 421 360 434 330 c 0,46,47
 445 304 445 304 454.5 272 c 128,-1,48
 464 240 464 240 465 205 c 0,0,1
255 47 m 0,49,50
 293 46 293 46 319.5 55.5 c 128,-1,51
 346 65 346 65 364 80 c 128,-1,52
 382 95 382 95 392.5 113 c 128,-1,53
 403 131 403 131 408 148 c 128,-1,54
 413 165 413 165 414 178.5 c 128,-1,55
 415 192 415 192 415 197 c 1,56,57
 393 225 393 225 358.5 238 c 128,-1,58
 324 251 324 251 280 252 c 0,59,60
 248 253 248 253 219.5 244.5 c 128,-1,61
 191 236 191 236 169 216 c 0,62,63
 150 198 150 198 141.5 180 c 128,-1,64
 133 162 133 162 131.5 147 c 128,-1,65
 130 132 130 132 133 120 c 128,-1,66
 136 108 136 108 139 101 c 0,67,68
 148 82 148 82 163 71 c 128,-1,69
 178 60 178 60 194.5 55 c 128,-1,70
 211 50 211 50 227 48.5 c 128,-1,71
 243 47 243 47 255 47 c 0,49,50
EndSplineSet
EndChar
StartChar: divide
Encoding: 247 247 184
Width: 445
Flags: W
Fore
263 262 m 0,0,1
 246 262 246 262 238 277.5 c 128,-1,2
 230 293 230 293 235 315 c 256,3,4
 240 337 240 337 255 352.5 c 128,-1,5
 270 368 270 368 286 369 c 0,6,7
 303 368 303 368 311.5 352.5 c 128,-1,8
 320 337 320 337 314 315 c 0,9,10
 309 293 309 293 294 277.5 c 128,-1,11
 279 262 279 262 263 262 c 0,0,1
240 127 m 0,12,13
 257 126 257 126 265.5 110.5 c 128,-1,14
 274 95 274 95 269 73 c 256,15,16
 264 51 264 51 249 35.5 c 128,-1,17
 234 20 234 20 218 20 c 0,18,19
 201 20 201 20 193 35.5 c 128,-1,20
 185 51 185 51 190 73 c 256,21,22
 195 95 195 95 209.5 110.5 c 128,-1,23
 224 126 224 126 240 127 c 0,12,13
451 218 m 1,24,-1
 440 168 l 1,25,-1
 69 168 l 1,26,-1
 80 218 l 1,27,-1
 451 218 l 1,24,-1
EndSplineSet
EndChar
StartChar: oslash
Encoding: 248 248 185
Width: 426
Flags: W
Fore
416 221 m 0,0,1
 411 198 411 198 409 186.5 c 128,-1,2
 407 175 407 175 406 170 c 128,-1,3
 405 165 405 165 404.5 163 c 128,-1,4
 404 161 404 161 403.5 157 c 128,-1,5
 403 153 403 153 400.5 144 c 128,-1,6
 398 135 398 135 394 115 c 0,7,8
 385 77 385 77 359 50.5 c 128,-1,9
 333 24 333 24 298.5 9 c 128,-1,10
 264 -6 264 -6 225 -9 c 128,-1,11
 186 -12 186 -12 153 -3 c 1,12,-1
 137 -25 l 1,13,-1
 81 -25 l 1,14,-1
 110 16 l 1,15,16
 87 32 87 32 75 56.5 c 128,-1,17
 63 81 63 81 70 115 c 0,18,19
 71 124 71 124 74.5 140.5 c 128,-1,20
 78 157 78 157 81.5 174 c 128,-1,21
 85 191 85 191 88 205.5 c 128,-1,22
 91 220 91 220 92 225 c 0,23,24
 102 263 102 263 129 289 c 128,-1,25
 156 315 156 315 191 329 c 128,-1,26
 226 343 226 343 265 345.5 c 128,-1,27
 304 348 304 348 337 339 c 1,28,-1
 352 361 l 1,29,-1
 407 361 l 1,30,-1
 379 321 l 1,31,32
 402 305 402 305 413 280.5 c 128,-1,33
 424 256 424 256 416 221 c 0,0,1
312 304 m 1,34,35
 289 313 289 313 261.5 310.5 c 128,-1,36
 234 308 234 308 209 295 c 128,-1,37
 184 282 184 282 164 258 c 128,-1,38
 144 234 144 234 137 199 c 2,39,-1
 123 135 l 2,40,41
 113 84 113 84 137 55 c 1,42,-1
 312 304 l 1,34,35
175 29 m 1,43,44
 197 21 197 21 224.5 23.5 c 128,-1,45
 252 26 252 26 277 39.5 c 128,-1,46
 302 53 302 53 321.5 77 c 128,-1,47
 341 101 341 101 349 135 c 0,48,49
 352 150 352 150 353 153 c 128,-1,50
 354 156 354 156 354 158 c 128,-1,51
 354 160 354 160 355.5 167.5 c 128,-1,52
 357 175 357 175 362 198 c 0,53,54
 367 224 367 224 363.5 244 c 128,-1,55
 360 264 360 264 349 278 c 1,56,-1
 175 29 l 1,43,44
91 221 m 1,57,58
 93 226 93 226 93 227 c 128,-1,59
 93 228 93 228 92 225 c 1,60,61
 92 223 92 223 91 221 c 1,57,58
EndSplineSet
EndChar
StartChar: thorn
Encoding: 254 254 191
Width: 485
Flags: W
Fore
310 344 m 0,0,1
 361 343 361 343 393 326.5 c 128,-1,2
 425 310 425 310 441 282.5 c 128,-1,3
 457 255 457 255 458.5 219.5 c 128,-1,4
 460 184 460 184 450 146 c 0,5,6
 442 116 442 116 422.5 87.5 c 128,-1,7
 403 59 403 59 376 37.5 c 128,-1,8
 349 16 349 16 316 3 c 128,-1,9
 283 -10 283 -10 249 -10 c 0,10,11
 220 -10 220 -10 201 -6 c 128,-1,12
 182 -2 182 -2 169 4 c 128,-1,13
 156 10 156 10 147 17.5 c 128,-1,14
 138 25 138 25 128 33 c 1,15,-1
 90 -144 l 1,16,-1
 37 -145 l 1,17,-1
 170 479 l 1,18,-1
 223 480 l 1,19,-1
 184 298 l 1,20,21
 195 311 195 311 213.5 320 c 128,-1,22
 232 329 232 329 251 334.5 c 128,-1,23
 270 340 270 340 286 342.5 c 128,-1,24
 302 345 302 345 310 344 c 0,0,1
391 149 m 0,25,26
 400 178 400 178 400 204 c 128,-1,27
 400 230 400 230 389.5 250.5 c 128,-1,28
 379 271 379 271 357.5 285 c 128,-1,29
 336 299 336 299 302 303 c 0,30,31
 291 304 291 304 274 300 c 128,-1,32
 257 296 257 296 238.5 288 c 128,-1,33
 220 280 220 280 202 267.5 c 128,-1,34
 184 255 184 255 171 239 c 1,35,-1
 138 82 l 1,36,37
 156 60 156 60 182 44.5 c 128,-1,38
 208 29 208 29 251 31 c 0,39,40
 303 33 303 33 339.5 65.5 c 128,-1,41
 376 98 376 98 391 149 c 0,25,26
EndSplineSet
EndChar
StartChar: Lslash
Encoding: 321 321 193
Width: 406
Flags: W
Fore
67 0 m 1,0,-1
 107 201 l 1,1,2
 88 190 88 190 69 177.5 c 128,-1,3
 50 165 50 165 32 154 c 1,4,-1
 44 210 l 1,5,-1
 119 257 l 1,6,-1
 168 484 l 1,7,-1
 221 484 l 1,8,-1
 178 281 l 1,9,10
 207 298 207 298 237.5 316.5 c 128,-1,11
 268 335 268 335 297 352 c 1,12,-1
 285 295 l 1,13,-1
 166 225 l 1,14,-1
 130 54 l 1,15,-1
 374 54 l 1,16,-1
 365 0 l 1,17,-1
 67 0 l 1,0,-1
EndSplineSet
EndChar
StartChar: lslash
Encoding: 322 322 194
Width: 184
Flags: W
Fore
167 251 m 1,0,-1
 116 0 l 1,1,-1
 62 0 l 1,2,-1
 107 224 l 1,3,-1
 48 181 l 1,4,-1
 60 239 l 1,5,-1
 119 280 l 1,6,-1
 170 515 l 1,7,-1
 223 515 l 1,8,-1
 180 311 l 1,9,10
 194 321 194 321 210 331.5 c 128,-1,11
 226 342 226 342 239 352 c 1,12,-1
 227 294 l 1,13,-1
 167 251 l 1,0,-1
EndSplineSet
EndChar
StartChar: OE
Encoding: 338 338 195
Width: 726
Flags: W
Fore
639 439 m 2,0,1
 611 439 611 439 583 435.5 c 128,-1,2
 555 432 555 432 530 418.5 c 128,-1,3
 505 405 505 405 486 378 c 128,-1,4
 467 351 467 351 458 305 c 2,5,-1
 448 258 l 1,6,-1
 659 258 l 1,7,-1
 651 218 l 1,8,-1
 440 218 l 1,9,-1
 430 173 l 2,10,11
 419 126 419 126 427 99.5 c 128,-1,12
 435 73 435 73 454 59.5 c 128,-1,13
 473 46 473 46 499.5 42.5 c 128,-1,14
 526 39 526 39 554 39 c 2,15,-1
 689 39 l 1,16,-1
 683 0 l 1,17,-1
 549 0 l 2,18,19
 504 1 504 1 462.5 9.5 c 128,-1,20
 421 18 421 18 397 47 c 1,21,22
 372 24 372 24 337 12 c 128,-1,23
 302 0 302 0 266 -3 c 128,-1,24
 230 -6 230 -6 197.5 0 c 128,-1,25
 165 6 165 6 145 19 c 0,26,27
 135 25 135 25 124.5 36.5 c 128,-1,28
 114 48 114 48 106.5 63.5 c 128,-1,29
 99 79 99 79 96 99 c 128,-1,30
 93 119 93 119 98 143 c 2,31,-1
 142 346 l 2,32,33
 146 366 146 366 157 383.5 c 128,-1,34
 168 401 168 401 182 415 c 128,-1,35
 196 429 196 429 211 440 c 128,-1,36
 226 451 226 451 238 457 c 0,37,38
 264 470 264 470 299 476.5 c 128,-1,39
 334 483 334 483 369 480 c 128,-1,40
 404 477 404 477 434 465 c 128,-1,41
 464 453 464 453 479 430 c 1,42,43
 515 459 515 459 559.5 467.5 c 128,-1,44
 604 476 604 476 648 478 c 0,45,46
 653 478 653 478 672.5 478.5 c 128,-1,47
 692 479 692 479 714.5 479 c 128,-1,48
 737 479 737 479 757 478.5 c 128,-1,49
 777 478 777 478 782 478 c 1,50,-1
 774 439 l 1,51,-1
 639 439 l 2,0,1
176 56 m 0,52,53
 192 45 192 45 218.5 40 c 128,-1,54
 245 35 245 35 274.5 37 c 128,-1,55
 304 39 304 39 332.5 49 c 128,-1,56
 361 59 361 59 381 79 c 1,57,58
 369 115 369 115 382 175 c 2,59,-1
 409 303 l 2,60,61
 415 333 415 333 425 356.5 c 128,-1,62
 435 380 435 380 449 398 c 1,63,64
 438 417 438 417 413.5 427.5 c 128,-1,65
 389 438 389 438 360.5 440 c 128,-1,66
 332 442 332 442 303 436.5 c 128,-1,67
 274 431 274 431 254 420 c 0,68,69
 231 408 231 408 213 389 c 128,-1,70
 195 370 195 370 190 348 c 2,71,-1
 144 128 l 2,72,73
 139 106 139 106 149 87 c 128,-1,74
 159 68 159 68 176 56 c 0,52,53
EndSplineSet
EndChar
StartChar: oe
Encoding: 339 339 196
Width: 697
Flags: W
Fore
669 203 m 1,0,-1
 667 203 l 1,1,-1
 666 201 l 1,2,-1
 669 203 l 1,0,-1
441 48 m 0,3,4
 459 37 459 37 484.5 32.5 c 128,-1,5
 510 28 510 28 537 31.5 c 128,-1,6
 564 35 564 35 588.5 48 c 128,-1,7
 613 61 613 61 629 87 c 1,8,-1
 654 65 l 1,9,10
 633 35 633 35 597.5 18.5 c 128,-1,11
 562 2 562 2 524 -3 c 128,-1,12
 486 -8 486 -8 450.5 -2.5 c 128,-1,13
 415 3 415 3 393 18 c 2,14,15
 387 20 387 20 380.5 25.5 c 128,-1,16
 374 31 374 31 369 40 c 1,17,18
 343 19 343 19 309.5 8 c 128,-1,19
 276 -3 276 -3 241.5 -5 c 128,-1,20
 207 -7 207 -7 176.5 -1 c 128,-1,21
 146 5 146 5 127 18 c 0,22,23
 107 31 107 31 95 50.5 c 128,-1,24
 83 70 83 70 88 96 c 2,25,-1
 120 245 l 2,26,27
 125 271 125 271 146 290.5 c 128,-1,28
 167 310 167 310 192 323 c 0,29,30
 216 336 216 336 249.5 342 c 128,-1,31
 283 348 283 348 316 346 c 128,-1,32
 349 344 349 344 378 333 c 128,-1,33
 407 322 407 322 424 301 c 1,34,35
 441 314 441 314 458 323 c 0,36,37
 479 334 479 334 504.5 340.5 c 128,-1,38
 530 347 530 347 556 348 c 128,-1,39
 582 349 582 349 606.5 344 c 128,-1,40
 631 339 631 339 651 326 c 0,41,42
 670 313 670 313 683 288 c 128,-1,43
 696 263 696 263 692 237 c 0,44,45
 688 208 688 208 677 190.5 c 128,-1,46
 666 173 666 173 645.5 164 c 128,-1,47
 625 155 625 155 595 152 c 128,-1,48
 565 149 565 149 522 149 c 2,49,-1
 414 149 l 1,50,-1
 407 113 l 2,51,52
 404 99 404 99 405.5 88.5 c 128,-1,53
 407 78 407 78 412.5 70.5 c 128,-1,54
 418 63 418 63 425.5 57.5 c 128,-1,55
 433 52 433 52 441 48 c 0,3,4
422 187 m 1,56,-1
 530 187 l 2,57,58
 561 187 561 187 581.5 187 c 128,-1,59
 602 187 602 187 615.5 190 c 128,-1,60
 629 193 629 193 636 200.5 c 128,-1,61
 643 208 643 208 646 223 c 0,62,63
 649 242 649 242 644 260.5 c 128,-1,64
 639 279 639 279 626 289 c 0,65,66
 597 312 597 312 560.5 311 c 128,-1,67
 524 310 524 310 493 293 c 0,68,69
 470 281 470 281 453 265.5 c 128,-1,70
 436 250 436 250 431 228 c 2,71,-1
 422 187 l 1,56,-1
179 48 m 0,72,73
 195 37 195 37 219 32 c 128,-1,74
 243 27 243 27 268 30.5 c 128,-1,75
 293 34 293 34 316.5 46.5 c 128,-1,76
 340 59 340 59 356 83 c 1,77,78
 356 92 356 92 357 103 c 128,-1,79
 358 114 358 114 360 127 c 2,80,-1
 386 245 l 2,81,82
 388 256 388 256 394 267 c 1,83,84
 385 288 385 288 366 298.5 c 128,-1,85
 347 309 347 309 324 311.5 c 128,-1,86
 301 314 301 314 276 309 c 128,-1,87
 251 304 251 304 231 293 c 0,88,89
 208 281 208 281 191 267.5 c 128,-1,90
 174 254 174 254 169 232 c 2,91,-1
 143 109 l 2,92,93
 138 87 138 87 149.5 73.5 c 128,-1,94
 161 60 161 60 179 48 c 0,72,73
EndSplineSet
EndChar
StartChar: florin
Encoding: 402 402 202
Width: 280
Flags: W
Fore
351 474 m 1,0,-1
 337 436 l 1,1,-1
 319 436 l 2,2,3
 278 436 278 436 256.5 414 c 128,-1,4
 235 392 235 392 215 337 c 2,5,-1
 205 310 l 1,6,-1
 195 281 l 1,7,-1
 266 281 l 1,8,-1
 259 248 l 1,9,-1
 184 248 l 1,10,-1
 113 36 l 1,11,-1
 94 -22 l 1,12,13
 86 -36 86 -36 73.5 -47.5 c 128,-1,14
 61 -59 61 -59 47 -64 c 1,15,16
 43 -60 43 -60 28 -55.5 c 128,-1,17
 13 -51 13 -51 9 -44 c 1,18,19
 30 -31 30 -31 37 -19 c 128,-1,20
 44 -7 44 -7 49 9 c 2,21,-1
 131 245 l 1,22,-1
 67 245 l 1,23,-1
 74 281 l 1,24,-1
 141 281 l 1,25,-1
 159 333 l 2,26,27
 172 373 172 373 187 400 c 128,-1,28
 202 427 202 427 222 443.5 c 128,-1,29
 242 460 242 460 269 467 c 128,-1,30
 296 474 296 474 334 474 c 2,31,-1
 351 474 l 1,0,-1
EndSplineSet
EndChar
StartChar: circumflex
Encoding: 710 710 203
Width: 326
Flags: W
Fore
139 475 m 1,0,1
 160 487 160 487 182.5 503.5 c 128,-1,2
 205 520 205 520 226 538 c 128,-1,3
 247 556 247 556 264 574.5 c 128,-1,4
 281 593 281 593 290 609 c 1,5,6
 293 593 293 593 302 575 c 128,-1,7
 311 557 311 557 324.5 539 c 128,-1,8
 338 521 338 521 354 504.5 c 128,-1,9
 370 488 370 488 386 475 c 1,10,-1
 329 475 l 1,11,12
 318 489 318 489 311 498.5 c 128,-1,13
 304 508 304 508 299 516.5 c 128,-1,14
 294 525 294 525 290 533.5 c 128,-1,15
 286 542 286 542 281 553 c 1,16,17
 258 523 258 523 236 504.5 c 128,-1,18
 214 486 214 486 197 475 c 1,19,-1
 139 475 l 1,0,1
EndSplineSet
EndChar
StartChar: caron
Encoding: 711 711 204
Width: 346
Flags: W
Fore
420 595 m 1,0,1
 399 583 399 583 376 566.5 c 128,-1,2
 353 550 353 550 332 532 c 128,-1,3
 311 514 311 514 294 495.5 c 128,-1,4
 277 477 277 477 268 461 c 1,5,6
 265 477 265 477 256 495 c 128,-1,7
 247 513 247 513 234 531 c 128,-1,8
 221 549 221 549 205 565.5 c 128,-1,9
 189 582 189 582 173 595 c 1,10,-1
 226 595 l 1,11,12
 247 574 247 574 259.5 552.5 c 128,-1,13
 272 531 272 531 277 505 c 1,14,15
 292 531 292 531 314 553 c 128,-1,16
 336 575 336 575 364 595 c 1,17,-1
 420 595 l 1,0,1
EndSplineSet
EndChar
StartChar: breve
Encoding: 728 728 205
Width: 300
Flags: W
Fore
388 528 m 1,0,1
 383 506 383 506 370.5 486.5 c 128,-1,2
 358 467 358 467 336.5 451 c 128,-1,3
 315 435 315 435 287 426 c 128,-1,4
 259 417 259 417 236 417 c 0,5,6
 214 417 214 417 188 424.5 c 128,-1,7
 162 432 162 432 149.5 449 c 128,-1,8
 137 466 137 466 133 486 c 128,-1,9
 129 506 129 506 134 528 c 1,10,-1
 185 528 l 1,11,12
 178 494 178 494 194 471 c 128,-1,13
 210 448 210 448 243 448 c 256,14,15
 276 448 276 448 302.5 471 c 128,-1,16
 329 494 329 494 336 528 c 1,17,-1
 388 528 l 1,0,1
EndSplineSet
EndChar
StartChar: dotaccent
Encoding: 729 729 206
Width: 158
Flags: W
Fore
185 503 m 1,0,1
 201 505 201 505 208 492 c 128,-1,2
 215 479 215 479 210 459 c 0,3,4
 206 440 206 440 193 426.5 c 128,-1,5
 180 413 180 413 166 413 c 0,6,7
 149 413 149 413 141.5 426.5 c 128,-1,8
 134 440 134 440 139 459 c 0,9,10
 144 479 144 479 157.5 492 c 128,-1,11
 171 505 171 505 185 503 c 1,0,1
EndSplineSet
EndChar
StartChar: ring
Encoding: 730 730 207
Width: 276
Flags: W
Fore
160 474 m 0,0,1
 168 507 168 507 196 529.5 c 128,-1,2
 224 552 224 552 255 552 c 0,3,4
 285 552 285 552 304 529 c 128,-1,5
 323 506 323 506 316 473 c 0,6,7
 313 456 313 456 303.5 441.5 c 128,-1,8
 294 427 294 427 280.5 416.5 c 128,-1,9
 267 406 267 406 251.5 399.5 c 128,-1,10
 236 393 236 393 221 393 c 0,11,12
 187 393 187 393 170 417.5 c 128,-1,13
 153 442 153 442 160 474 c 0,0,1
200 474 m 0,14,15
 196 455 196 455 201.5 438 c 128,-1,16
 207 421 207 421 227 420 c 0,17,18
 244 420 244 420 257 437 c 128,-1,19
 270 454 270 454 275 474 c 0,20,21
 279 491 279 491 272.5 506.5 c 128,-1,22
 266 522 266 522 249 523 c 0,23,24
 230 522 230 522 217.5 506.5 c 128,-1,25
 205 491 205 491 200 474 c 0,14,15
EndSplineSet
EndChar
StartChar: tilde
Encoding: 732 732 209
Width: 251
Flags: W
Fore
328 472 m 1,0,1
 322 443 322 443 301 425 c 128,-1,2
 280 407 280 407 256 407 c 0,3,4
 244 407 244 407 232.5 411.5 c 128,-1,5
 221 416 221 416 210 421.5 c 128,-1,6
 199 427 199 427 190.5 431.5 c 128,-1,7
 182 436 182 436 176 436 c 0,8,9
 167 436 167 436 158.5 427.5 c 128,-1,10
 150 419 150 419 146 405 c 1,11,-1
 106 405 l 1,12,13
 111 431 111 431 132.5 452.5 c 128,-1,14
 154 474 154 474 179 475 c 0,15,16
 190 475 190 475 197 471.5 c 128,-1,17
 204 468 204 468 215 463 c 1,18,19
 214 464 214 464 220.5 460.5 c 128,-1,20
 227 457 227 457 228 456 c 1,21,22
 236 453 236 453 244 449.5 c 128,-1,23
 252 446 252 446 260 446 c 0,24,25
 266 446 266 446 275 450 c 128,-1,26
 284 454 284 454 290 472 c 1,27,-1
 326 472 l 1,28,-1
 328 472 l 1,0,1
EndSplineSet
EndChar
StartChar: uni0E01
Encoding: 3585 3585 212
Width: 456
Flags: W
Fore
200 357 m 1,0,1
 202 355 202 355 207.5 348.5 c 128,-1,2
 213 342 213 342 218.5 334.5 c 128,-1,3
 224 327 224 327 228 321 c 128,-1,4
 231 316 231 316 232 315 c 1,5,-1
 226 284 l 1,6,7
 221 281 221 281 215.5 278 c 128,-1,8
 210 275 210 275 206 271 c 0,9,10
 172 241 172 241 160 191 c 2,11,-1
 119 -1 l 1,12,-1
 67 -1 l 1,13,-1
 102 163 l 2,14,15
 110 202 110 202 133.5 242 c 128,-1,16
 157 282 157 282 195 304 c 1,17,-1
 144 367 l 1,18,-1
 143 367 l 1,19,-1
 147 394 l 1,20,-1
 233 396 l 2,21,22
 278 396 278 396 319.5 394 c 128,-1,23
 361 392 361 392 390.5 376 c 128,-1,24
 420 360 420 360 432.5 324 c 128,-1,25
 445 288 445 288 430 221 c 2,26,-1
 383 -1 l 1,27,-1
 334 -1 l 1,28,-1
 379 222 l 2,29,30
 390 263 390 263 387 289.5 c 128,-1,31
 384 316 384 316 371.5 330.5 c 128,-1,32
 359 345 359 345 339.5 351 c 128,-1,33
 320 357 320 357 296.5 358 c 128,-1,34
 273 359 273 359 248 357.5 c 128,-1,35
 223 356 223 356 200 357 c 1,0,1
EndSplineSet
EndChar
StartChar: uni0E02
Encoding: 3586 3586 213
Width: 360
Flags: W
Fore
206 398 m 0,0,1
 228 388 228 388 232 359 c 0,2,3
 234 326 234 326 228.5 302 c 128,-1,4
 223 278 223 278 213 259 c 128,-1,5
 203 240 203 240 190 224 c 128,-1,6
 177 208 177 208 164 191 c 128,-1,7
 151 174 151 174 140.5 154.5 c 128,-1,8
 130 135 130 135 124 108 c 0,9,10
 116 68 116 68 132.5 48 c 128,-1,11
 149 28 149 28 174.5 28.5 c 128,-1,12
 200 29 200 29 225.5 50.5 c 128,-1,13
 251 72 251 72 260 114 c 0,14,15
 274 183 274 183 289.5 255 c 128,-1,16
 305 327 305 327 320 396 c 1,17,-1
 372 396 l 1,18,-1
 309 99 l 2,19,20
 301 64 301 64 278 40.5 c 128,-1,21
 255 17 255 17 226 5 c 128,-1,22
 197 -7 197 -7 166 -7.5 c 128,-1,23
 135 -8 135 -8 111.5 3 c 128,-1,24
 88 14 88 14 75 37 c 128,-1,25
 62 60 62 60 70 95 c 0,26,27
 76 126 76 126 86.5 148 c 128,-1,28
 97 170 97 170 109.5 187.5 c 128,-1,29
 122 205 122 205 137 221 c 128,-1,30
 152 237 152 237 167 256 c 1,31,32
 158 250 158 250 149 248 c 0,33,34
 143 246 143 246 136.5 245 c 128,-1,35
 130 244 130 244 125 246 c 0,36,37
 105 252 105 252 101 278.5 c 128,-1,38
 97 305 97 305 112 337 c 0,39,40
 123 362 123 362 143.5 378.5 c 128,-1,41
 164 395 164 395 182 400 c 0,42,43
 195 404 195 404 206 398 c 0,0,1
156 281 m 0,44,45
 166 286 166 286 175 297 c 128,-1,46
 184 308 184 308 189 318 c 0,47,48
 196 331 196 331 195.5 348 c 128,-1,49
 195 365 195 365 186 369 c 1,50,51
 181 370 181 370 175 367 c 0,52,53
 164 362 164 362 155 350.5 c 128,-1,54
 146 339 146 339 141 329 c 0,55,56
 135 316 135 316 134.5 299 c 128,-1,57
 134 282 134 282 143 279 c 0,58,59
 148 278 148 278 156 281 c 0,44,45
EndSplineSet
EndChar
StartChar: uni0E03
Encoding: 3587 3587 214
Width: 400
Flags: W
Fore
241 355 m 1,0,-1
 257 399 l 1,1,-1
 276 399 l 1,2,-1
 286 358 l 1,3,4
 289 321 289 321 282 295.5 c 128,-1,5
 275 270 275 270 261.5 251 c 128,-1,6
 248 232 248 232 231 217.5 c 128,-1,7
 214 203 214 203 197.5 187.5 c 128,-1,8
 181 172 181 172 167.5 153.5 c 128,-1,9
 154 135 154 135 149 108 c 0,10,11
 141 66 141 66 160 46 c 128,-1,12
 179 26 179 26 207.5 27 c 128,-1,13
 236 28 236 28 264.5 50 c 128,-1,14
 293 72 293 72 302 114 c 0,15,16
 316 183 316 183 331.5 255.5 c 128,-1,17
 347 328 347 328 362 397 c 1,18,-1
 413 397 l 1,19,20
 396 320 396 320 381.5 248.5 c 128,-1,21
 367 177 367 177 350 99 c 0,22,23
 342 64 342 64 318 40 c 128,-1,24
 294 16 294 16 262.5 3.5 c 128,-1,25
 231 -9 231 -9 197 -9.5 c 128,-1,26
 163 -10 163 -10 137 1 c 128,-1,27
 111 12 111 12 97 35.5 c 128,-1,28
 83 59 83 59 90 95 c 256,29,30
 97 131 97 131 116 155 c 128,-1,31
 135 179 135 179 157.5 198.5 c 128,-1,32
 180 218 180 218 202.5 237 c 128,-1,33
 225 256 225 256 239 280 c 1,34,35
 246 303 246 303 240 317.5 c 128,-1,36
 234 332 234 332 223 346 c 1,37,38
 221 337 221 337 220.5 328 c 128,-1,39
 220 319 220 319 215 309 c 0,40,41
 209 295 209 295 199 281.5 c 128,-1,42
 189 268 189 268 176.5 258 c 128,-1,43
 164 248 164 248 150.5 243.5 c 128,-1,44
 137 239 137 239 124 243 c 0,45,46
 98 251 98 251 96.5 278 c 128,-1,47
 95 305 95 305 110 337 c 0,48,49
 117 353 117 353 128.5 366 c 128,-1,50
 140 379 140 379 152 387.5 c 128,-1,51
 164 396 164 396 176.5 400 c 128,-1,52
 189 404 189 404 200 401 c 0,53,54
 212 397 212 397 224.5 381.5 c 128,-1,55
 237 366 237 366 241 355 c 1,0,-1
138 331 m 0,56,57
 133 323 133 323 130 313.5 c 128,-1,58
 127 304 127 304 126 296 c 128,-1,59
 125 288 125 288 127.5 281.5 c 128,-1,60
 130 275 130 275 137 273 c 0,61,62
 150 269 150 269 164.5 283.5 c 128,-1,63
 179 298 179 298 187 315 c 0,64,65
 197 333 197 333 195.5 347 c 128,-1,66
 194 361 194 361 185 365 c 0,67,68
 174 370 174 370 160.5 359 c 128,-1,69
 147 348 147 348 138 331 c 0,56,57
EndSplineSet
EndChar
StartChar: uni0E04
Encoding: 3588 3588 215
Width: 488
Flags: W
Fore
450 374 m 0,0,1
 471 360 471 360 477 339.5 c 128,-1,2
 483 319 483 319 477 290 c 2,3,-1
 415 -1 l 1,4,-1
 362 -1 l 1,5,-1
 418 261 l 2,6,7
 423 287 423 287 425.5 305 c 128,-1,8
 428 323 428 323 410 337 c 0,9,10
 394 348 394 348 369.5 353.5 c 128,-1,11
 345 359 345 359 318 359 c 128,-1,12
 291 359 291 359 264.5 353.5 c 128,-1,13
 238 348 238 348 217 337 c 0,14,15
 204 330 204 330 197 322 c 128,-1,16
 190 314 190 314 186 304.5 c 128,-1,17
 182 295 182 295 180 284 c 128,-1,18
 178 273 178 273 175 261 c 2,19,-1
 163 204 l 1,20,21
 211 245 211 245 275 250 c 0,22,23
 280 251 280 251 284.5 251.5 c 128,-1,24
 289 252 289 252 294 252 c 0,25,26
 326 252 326 252 346 236.5 c 128,-1,27
 366 221 366 221 361 198 c 0,28,29
 356 176 356 176 329.5 160.5 c 128,-1,30
 303 145 303 145 271 145 c 256,31,32
 239 145 239 145 220 159.5 c 128,-1,33
 201 174 201 174 203 194 c 1,34,35
 195 189 195 189 188.5 183.5 c 128,-1,36
 182 178 182 178 176 173 c 0,37,38
 159 157 159 157 152 138 c 128,-1,39
 145 119 145 119 140 95 c 2,40,-1
 119 -1 l 1,41,-1
 67 -1 l 1,42,-1
 130 293 l 2,43,44
 136 318 136 318 151.5 339.5 c 128,-1,45
 167 361 167 361 192 374 c 0,46,47
 218 388 218 388 254 395 c 128,-1,48
 290 402 290 402 327 402 c 128,-1,49
 364 402 364 402 397 395 c 128,-1,50
 430 388 430 388 450 374 c 0,0,1
288 230 m 2,51,52
 266 230 266 230 253 219.5 c 128,-1,53
 240 209 240 209 237 198 c 256,54,55
 234 187 234 187 243.5 176.5 c 128,-1,56
 253 166 253 166 276 166 c 2,57,-1
 277 166 l 2,58,59
 300 166 300 166 313 177 c 128,-1,60
 326 188 326 188 329 199 c 0,61,62
 331 210 331 210 320.5 219.5 c 128,-1,63
 310 229 310 229 289 230 c 2,64,-1
 288 230 l 2,51,52
EndSplineSet
EndChar
StartChar: uni0E05
Encoding: 3589 3589 216
Width: 488
Flags: W
Fore
389 398 m 1,0,1
 407 395 407 395 424.5 384 c 128,-1,2
 442 373 442 373 455 357 c 128,-1,3
 468 341 468 341 474 321 c 128,-1,4
 480 301 480 301 476 282 c 2,5,-1
 416 -1 l 1,6,-1
 362 -1 l 1,7,-1
 419 264 l 2,8,9
 422 277 422 277 422 291 c 128,-1,10
 422 305 422 305 419 317.5 c 128,-1,11
 416 330 416 330 409 339.5 c 128,-1,12
 402 349 402 349 391 352 c 1,13,-1
 307 293 l 1,14,-1
 245 351 l 1,15,16
 221 340 221 340 202 320.5 c 128,-1,17
 183 301 183 301 176 269 c 2,18,-1
 162 205 l 1,19,20
 187 228 187 228 222.5 239 c 128,-1,21
 258 250 258 250 293 251 c 1,22,-1
 293 250 l 1,23,24
 295 251 295 251 299 251 c 0,25,26
 332 251 332 251 352 235.5 c 128,-1,27
 372 220 372 220 366 197 c 0,28,29
 361 175 361 175 335 159.5 c 128,-1,30
 309 144 309 144 275 144 c 0,31,32
 243 144 243 144 223 159.5 c 128,-1,33
 203 175 203 175 208 197 c 1,34,35
 209 198 209 198 209 200 c 1,36,37
 191 189 191 189 177 175 c 0,38,39
 159 160 159 160 151.5 140 c 128,-1,40
 144 120 144 120 139 96 c 2,41,-1
 118 -1 l 1,42,-1
 67 -1 l 1,43,-1
 128 286 l 2,44,45
 132 302 132 302 147.5 320.5 c 128,-1,46
 163 339 163 339 183.5 355.5 c 128,-1,47
 204 372 204 372 226 384 c 128,-1,48
 248 396 248 396 265 398 c 1,49,50
 277 383 277 383 292.5 366.5 c 128,-1,51
 308 350 308 350 316 338 c 1,52,-1
 389 398 l 1,0,1
334 198 m 256,53,54
 337 209 337 209 326 218.5 c 128,-1,55
 315 228 315 228 293 229 c 0,56,57
 271 229 271 229 257.5 218.5 c 128,-1,58
 244 208 244 208 241 197 c 256,59,60
 238 186 238 186 248 175.5 c 128,-1,61
 258 165 258 165 282 165 c 0,62,63
 305 165 305 165 318 176 c 128,-1,64
 331 187 331 187 334 198 c 256,53,54
EndSplineSet
EndChar
StartChar: uni0E06
Encoding: 3590 3590 217
Width: 494
Flags: W
Fore
78 92 m 0,0,1
 82 110 82 110 90 127.5 c 128,-1,2
 98 145 98 145 109.5 158 c 128,-1,3
 121 171 121 171 135.5 178.5 c 128,-1,4
 150 186 150 186 166 186 c 0,5,6
 179 186 179 186 187 180 c 1,7,8
 193 205 193 205 211 228 c 0,9,10
 221 241 221 241 229 253.5 c 128,-1,11
 237 266 237 266 246 282 c 1,12,13
 253 305 253 305 246.5 316 c 128,-1,14
 240 327 240 327 232 335 c 1,15,-1
 226 345 l 1,16,17
 223 329 223 329 215 311 c 0,18,19
 199 279 199 279 173.5 260 c 128,-1,20
 148 241 148 241 128 247 c 0,21,22
 109 253 109 253 105.5 279.5 c 128,-1,23
 102 306 102 306 117 338 c 0,24,25
 134 371 134 371 158.5 389.5 c 128,-1,26
 183 408 183 408 203 402 c 0,27,28
 209 400 209 400 217 395 c 128,-1,29
 225 390 225 390 233 383.5 c 128,-1,30
 241 377 241 377 246.5 370 c 128,-1,31
 252 363 252 363 254 357 c 1,32,-1
 271 400 l 1,33,-1
 300 400 l 1,34,-1
 300 360 l 2,35,36
 302 334 302 334 298.5 313.5 c 128,-1,37
 295 293 295 293 288 276 c 128,-1,38
 281 259 281 259 271.5 245 c 128,-1,39
 262 231 262 231 252 217 c 256,40,41
 242 203 242 203 236.5 186 c 128,-1,42
 231 169 231 169 228.5 151.5 c 128,-1,43
 226 134 226 134 226 118 c 128,-1,44
 226 102 226 102 226 92 c 1,45,46
 237 72 237 72 253.5 56.5 c 128,-1,47
 270 41 270 41 302 41 c 0,48,49
 344 41 344 41 366.5 59 c 128,-1,50
 389 77 389 77 400 127 c 0,51,52
 415 196 415 196 429.5 264 c 128,-1,53
 444 332 444 332 459 401 c 1,54,-1
 509 401 l 1,55,56
 501 363 501 363 493.5 329 c 128,-1,57
 486 295 486 295 478.5 261.5 c 128,-1,58
 471 228 471 228 464 194 c 128,-1,59
 457 160 457 160 449 123 c 0,60,61
 442 93 442 93 426 69.5 c 128,-1,62
 410 46 410 46 388.5 30 c 128,-1,63
 367 14 367 14 343 6.5 c 128,-1,64
 319 -1 319 -1 295 -1 c 0,65,66
 254 -1 254 -1 232.5 18.5 c 128,-1,67
 211 38 211 38 199 59 c 1,68,69
 188 33 188 33 167 15 c 128,-1,70
 146 -3 146 -3 126 -3 c 0,71,72
 94 -3 94 -3 82 25.5 c 128,-1,73
 70 54 70 54 78 92 c 0,0,1
143 331 m 256,74,75
 135 314 135 314 132 299 c 128,-1,76
 129 284 129 284 142 279 c 0,77,78
 155 275 155 275 168.5 287.5 c 128,-1,79
 182 300 182 300 190 317 c 256,80,81
 198 334 198 334 200.5 351 c 128,-1,82
 203 368 203 368 191 373 c 0,83,84
 178 378 178 378 164.5 363 c 128,-1,85
 151 348 151 348 143 331 c 256,74,75
114 92 m 256,86,87
 112 84 112 84 112.5 74 c 128,-1,88
 113 64 113 64 115 55 c 128,-1,89
 117 46 117 46 121.5 40.5 c 128,-1,90
 126 35 126 35 133 35 c 256,91,92
 140 35 140 35 147.5 41 c 128,-1,93
 155 47 155 47 161.5 55.5 c 128,-1,94
 168 64 168 64 172.5 74 c 128,-1,95
 177 84 177 84 179 92 c 256,96,97
 181 100 181 100 180.5 110 c 128,-1,98
 180 120 180 120 177 129 c 128,-1,99
 174 138 174 138 168.5 144 c 128,-1,100
 163 150 163 150 155 150 c 256,101,102
 147 150 147 150 140.5 144 c 128,-1,103
 134 138 134 138 129 129 c 128,-1,104
 124 120 124 120 120 110 c 128,-1,105
 116 100 116 100 114 92 c 256,86,87
EndSplineSet
EndChar
StartChar: uni0E07
Encoding: 3591 3591 218
Width: 356
Flags: W
Fore
326 401 m 1,0,1
 343 395 343 395 352 378 c 128,-1,2
 361 361 361 361 356 339 c 2,3,-1
 307 109 l 2,4,5
 302 86 302 86 287 66 c 128,-1,6
 272 46 272 46 251.5 30.5 c 128,-1,7
 231 15 231 15 206.5 5 c 128,-1,8
 182 -5 182 -5 158 -8 c 1,9,-1
 90 269 l 1,10,-1
 134 289 l 1,11,12
 151 231 151 231 167 167 c 128,-1,13
 183 103 183 103 197 40 c 1,14,15
 220 51 220 51 233.5 68.5 c 128,-1,16
 247 86 247 86 255 120 c 2,17,-1
 285 262 l 1,18,19
 274 252 274 252 260 249 c 0,20,21
 248 245 248 245 239 248 c 0,22,23
 219 254 219 254 215.5 280 c 128,-1,24
 212 306 212 306 227 338 c 0,25,26
 239 363 239 363 257 379.5 c 128,-1,27
 275 396 275 396 293 401 c 0,28,29
 298 403 298 403 309 403 c 128,-1,30
 320 403 320 403 325 401 c 1,31,32
 326 401 326 401 326 400 c 1,33,-1
 326 401 l 1,0,1
267 282 m 0,34,35
 276 287 276 287 285.5 298 c 128,-1,36
 295 309 295 309 299 319 c 0,37,38
 306 332 306 332 306 348.5 c 128,-1,39
 306 365 306 365 296 370 c 0,40,41
 291 372 291 372 286 368 c 1,42,43
 276 363 276 363 266.5 351.5 c 128,-1,44
 257 340 257 340 253 330 c 0,45,46
 246 317 246 317 245.5 300 c 128,-1,47
 245 283 245 283 255 280 c 0,48,49
 260 278 260 278 267 282 c 0,34,35
EndSplineSet
EndChar
StartChar: uni0E08
Encoding: 3592 3592 219
Width: 426
Flags: W
Fore
380 373 m 0,0,1
 400 359 400 359 411.5 341 c 128,-1,2
 423 323 423 323 418 297 c 2,3,-1
 376 99 l 2,4,5
 375 94 375 94 371 84 c 128,-1,6
 367 74 367 74 358 62 c 128,-1,7
 349 50 349 50 335.5 38 c 128,-1,8
 322 26 322 26 303 19 c 0,9,10
 289 13 289 13 274.5 8.5 c 128,-1,11
 260 4 260 4 243 -1 c 1,12,-1
 211 -1 l 1,13,-1
 233 103 l 1,14,15
 232 103 232 103 232 102 c 1,16,-1
 235 121 l 1,17,18
 225 113 225 113 215 110 c 0,19,20
 209 108 209 108 204 108.5 c 128,-1,21
 199 109 199 109 194 111 c 0,22,23
 178 116 178 116 168 133 c 128,-1,24
 158 150 158 150 156 174 c 0,25,26
 154 205 154 205 169 231.5 c 128,-1,27
 184 258 184 258 206 263 c 0,28,29
 217 266 217 266 226 263 c 0,30,31
 234 261 234 261 242.5 256.5 c 128,-1,32
 251 252 251 252 256 245 c 1,33,-1
 256 246 l 1,34,35
 261 239 261 239 264 229 c 0,36,37
 270 212 270 212 271 187.5 c 128,-1,38
 272 163 272 163 270 136 c 128,-1,39
 268 109 268 109 263 82 c 128,-1,40
 258 55 258 55 254 34 c 1,41,42
 288 40 288 40 303.5 58.5 c 128,-1,43
 319 77 319 77 324 99 c 2,44,-1
 359 266 l 2,45,46
 364 289 364 289 364.5 306.5 c 128,-1,47
 365 324 365 324 347 336 c 0,48,49
 330 347 330 347 306.5 352.5 c 128,-1,50
 283 358 283 358 257 358 c 128,-1,51
 231 358 231 358 205.5 352.5 c 128,-1,52
 180 347 180 347 160 336 c 0,53,54
 153 332 153 332 146.5 327.5 c 128,-1,55
 140 323 140 323 135 319 c 1,56,-1
 110 346 l 1,57,58
 115 354 115 354 124.5 360 c 128,-1,59
 134 366 134 366 145 373 c 0,60,61
 169 386 169 386 201 392.5 c 128,-1,62
 233 399 233 399 266 399 c 128,-1,63
 299 399 299 399 329 392.5 c 128,-1,64
 359 386 359 386 380 373 c 0,0,1
213 143 m 0,65,66
 224 146 224 146 230.5 163 c 128,-1,67
 237 180 237 180 237 193 c 1,68,69
 235 203 235 203 231 214 c 128,-1,70
 227 225 227 225 219 230 c 1,71,72
 215 234 215 234 210 232 c 0,73,74
 199 228 199 228 191.5 211.5 c 128,-1,75
 184 195 184 195 184 182 c 0,76,77
 185 172 185 172 189.5 161 c 128,-1,78
 194 150 194 150 201 145 c 1,79,80
 208 142 208 142 213 143 c 0,65,66
EndSplineSet
EndChar
StartChar: uni0E09
Encoding: 3593 3593 220
Width: 482
Flags: W
Fore
425 161 m 2,0,1
 454 161 454 161 462.5 135 c 128,-1,2
 471 109 471 109 463 72 c 0,3,4
 455 36 455 36 433 14 c 128,-1,5
 411 -8 411 -8 389 -9 c 2,6,-1
 385 -9 l 2,7,8
 366 -8 366 -8 358.5 4.5 c 128,-1,9
 351 17 351 17 349 32 c 0,10,11
 346 50 346 50 350 71 c 1,12,13
 337 45 337 45 316 27 c 128,-1,14
 295 9 295 9 271 0.5 c 128,-1,15
 247 -8 247 -8 223.5 -7 c 128,-1,16
 200 -6 200 -6 181 5 c 128,-1,17
 162 16 162 16 151 37.5 c 128,-1,18
 140 59 140 59 142 91 c 1,19,20
 141 92 141 92 141 102 c 1,21,22
 137 100 137 100 131 98 c 0,23,24
 121 95 121 95 109 98 c 0,25,26
 89 103 89 103 84.5 129.5 c 128,-1,27
 80 156 80 156 95 188 c 0,28,29
 106 212 106 212 125.5 228.5 c 128,-1,30
 145 245 145 245 164 250 c 0,31,32
 174 253 174 253 184 251 c 1,33,34
 198 246 198 246 205 232 c 128,-1,35
 212 218 212 218 208 198 c 2,36,-1
 190 114 l 2,37,38
 180 70 180 70 196.5 52 c 128,-1,39
 213 34 213 34 247 35 c 0,40,41
 277 37 277 37 308.5 64.5 c 128,-1,42
 340 92 340 92 352 147 c 2,43,-1
 379 275 l 2,44,45
 383 295 383 295 380.5 311.5 c 128,-1,46
 378 328 378 328 362 339 c 0,47,48
 346 349 346 349 319.5 354.5 c 128,-1,49
 293 360 293 360 263.5 360 c 128,-1,50
 234 360 234 360 205 354.5 c 128,-1,51
 176 349 176 349 156 339 c 0,52,53
 148 335 148 335 142.5 331 c 128,-1,54
 137 327 137 327 132 323 c 1,55,-1
 105 350 l 1,56,57
 113 358 113 358 121.5 364 c 128,-1,58
 130 370 130 370 141 376 c 0,59,60
 166 389 166 389 203 395.5 c 128,-1,61
 240 402 240 402 278 402 c 128,-1,62
 316 402 316 402 350 395.5 c 128,-1,63
 384 389 384 389 403 376 c 0,64,65
 421 363 421 363 431 345 c 128,-1,66
 441 327 441 327 435 301 c 0,67,68
 429 265 429 265 421 228.5 c 128,-1,69
 413 192 413 192 404 155 c 1,70,71
 413 159 413 159 421 161 c 1,72,-1
 425 161 l 2,0,1
138 131 m 1,73,74
 148 136 148 136 155.5 143 c 128,-1,75
 163 150 163 150 171 169 c 0,76,77
 178 182 178 182 177.5 199 c 128,-1,78
 177 216 177 216 168 219 c 0,79,80
 162 221 162 221 155 217 c 128,-1,81
 148 213 148 213 142 206.5 c 128,-1,82
 136 200 136 200 131.5 192.5 c 128,-1,83
 127 185 127 185 124 180 c 0,84,85
 117 167 117 167 116.5 150 c 128,-1,86
 116 133 116 133 126 129 c 0,87,88
 133 127 133 127 138 131 c 1,73,74
391 26 m 1,89,90
 404 24 404 24 416 38 c 128,-1,91
 428 52 428 52 433 72 c 0,92,93
 434 80 434 80 434.5 89.5 c 128,-1,94
 435 99 435 99 433 107 c 128,-1,95
 431 115 431 115 426.5 120 c 128,-1,96
 422 125 422 125 414 125 c 0,97,98
 408 125 408 125 402.5 119 c 128,-1,99
 397 113 397 113 392 105 c 128,-1,100
 387 97 387 97 383 88 c 128,-1,101
 379 79 379 79 378 72 c 0,102,103
 375 58 375 58 378 44 c 128,-1,104
 381 30 381 30 391 26 c 1,89,90
EndSplineSet
EndChar
StartChar: uni0E0A
Encoding: 3594 3594 221
Width: 361
Flags: W
Fore
388 417 m 1,0,1
 385 400 385 400 377 380.5 c 128,-1,2
 369 361 369 361 356 343.5 c 128,-1,3
 343 326 343 326 324.5 313.5 c 128,-1,4
 306 301 306 301 283 298 c 1,5,6
 312 279 312 279 323.5 262.5 c 128,-1,7
 335 246 335 246 335 224.5 c 128,-1,8
 335 203 335 203 327 173.5 c 128,-1,9
 319 144 319 144 310 99 c 0,10,11
 302 64 302 64 279.5 40.5 c 128,-1,12
 257 17 257 17 228 5 c 128,-1,13
 199 -7 199 -7 168 -7.5 c 128,-1,14
 137 -8 137 -8 113 3 c 128,-1,15
 89 14 89 14 76.5 37 c 128,-1,16
 64 60 64 60 71 95 c 0,17,18
 77 126 77 126 87 147.5 c 128,-1,19
 97 169 97 169 109.5 186.5 c 128,-1,20
 122 204 122 204 136.5 219.5 c 128,-1,21
 151 235 151 235 165 253 c 1,22,23
 158 247 158 247 149 246 c 0,24,25
 135 243 135 243 128 245 c 0,26,27
 108 251 108 251 105 277 c 128,-1,28
 102 303 102 303 117 335 c 0,29,30
 129 360 129 360 146.5 376.5 c 128,-1,31
 164 393 164 393 181 398 c 0,32,33
 192 401 192 401 202 398 c 0,34,35
 206 397 206 397 213 392 c 0,36,37
 219 387 219 387 224 378 c 128,-1,38
 229 369 229 369 231 357 c 0,39,40
 233 324 233 324 228 300 c 128,-1,41
 223 276 223 276 213.5 257.5 c 128,-1,42
 204 239 204 239 191 223 c 128,-1,43
 178 207 178 207 165.5 190.5 c 128,-1,44
 153 174 153 174 142.5 154.5 c 128,-1,45
 132 135 132 135 126 108 c 0,46,47
 118 68 118 68 134 48 c 128,-1,48
 150 28 150 28 174.5 28.5 c 128,-1,49
 199 29 199 29 224.5 50.5 c 128,-1,50
 250 72 250 72 261 114 c 0,51,52
 265 132 265 132 267 139.5 c 128,-1,53
 269 147 269 147 270.5 154 c 128,-1,54
 272 161 272 161 274 171 c 128,-1,55
 276 181 276 181 282 204 c 0,56,57
 286 223 286 223 285 235 c 128,-1,58
 284 247 284 247 278.5 257 c 128,-1,59
 273 267 273 267 263.5 277 c 128,-1,60
 254 287 254 287 242 302 c 1,61,62
 255 305 255 305 272 316 c 128,-1,63
 289 327 289 327 304 343 c 128,-1,64
 319 359 319 359 330 378 c 128,-1,65
 341 397 341 397 342 417 c 1,66,-1
 388 417 l 1,0,1
143 277 m 0,67,68
 152 275 152 275 160 279 c 128,-1,69
 168 283 168 283 175 290 c 128,-1,70
 182 297 182 297 187 304.5 c 128,-1,71
 192 312 192 312 194 316 c 0,72,73
 197 322 197 322 198.5 331.5 c 128,-1,74
 200 341 200 341 199.5 349.5 c 128,-1,75
 199 358 199 358 195.5 364.5 c 128,-1,76
 192 371 192 371 185 371 c 256,77,78
 178 371 178 371 175 369 c 0,79,80
 166 364 166 364 156 351 c 128,-1,81
 146 338 146 338 141 327 c 0,82,83
 134 314 134 314 133.5 297 c 128,-1,84
 133 280 133 280 143 277 c 0,67,68
EndSplineSet
EndChar
StartChar: uni0E0B
Encoding: 3595 3595 222
Width: 411
Flags: W
Fore
356 104 m 2,0,1
 348 69 348 69 324 45.5 c 128,-1,2
 300 22 300 22 269.5 10 c 128,-1,3
 239 -2 239 -2 205.5 -3 c 128,-1,4
 172 -4 172 -4 146 7.5 c 128,-1,5
 120 19 120 19 105.5 42 c 128,-1,6
 91 65 91 65 97 100 c 0,7,8
 104 140 104 140 120 165 c 128,-1,9
 136 190 136 190 155 208.5 c 128,-1,10
 174 227 174 227 193.5 243.5 c 128,-1,11
 213 260 213 260 227 285 c 0,12,13
 238 301 238 301 239 317.5 c 128,-1,14
 240 334 240 334 234 340 c 2,15,-1
 227 349 l 1,16,17
 225 340 225 340 223.5 331 c 128,-1,18
 222 322 222 322 218 312 c 0,19,20
 212 296 212 296 201.5 283 c 128,-1,21
 191 270 191 270 178.5 262 c 128,-1,22
 166 254 166 254 153.5 250.5 c 128,-1,23
 141 247 141 247 131 250 c 0,24,25
 111 255 111 255 107.5 281.5 c 128,-1,26
 104 308 104 308 119 340 c 0,27,28
 135 372 135 372 159.5 390.5 c 128,-1,29
 184 409 184 409 204 404 c 0,30,31
 216 400 216 400 229 384.5 c 128,-1,32
 242 369 242 369 246 358 c 1,33,-1
 261 402 l 1,34,-1
 280 402 l 1,35,-1
 281 361 l 2,36,37
 284 328 284 328 277 305 c 128,-1,38
 270 282 270 282 258.5 264.5 c 128,-1,39
 247 247 247 247 232 232.5 c 128,-1,40
 217 218 217 218 202.5 202.5 c 128,-1,41
 188 187 188 187 176 168.5 c 128,-1,42
 164 150 164 150 159 123 c 0,43,44
 152 93 152 93 159 72.5 c 128,-1,45
 166 52 166 52 180 42 c 128,-1,46
 194 32 194 32 213 32.5 c 128,-1,47
 232 33 232 33 250.5 44 c 128,-1,48
 269 55 269 55 284.5 76.5 c 128,-1,49
 300 98 300 98 307 130 c 0,50,51
 311 151 311 151 313.5 161.5 c 128,-1,52
 316 172 316 172 317 177 c 128,-1,53
 318 182 318 182 318.5 184 c 128,-1,54
 319 186 319 186 319.5 189 c 128,-1,55
 320 192 320 192 321.5 199 c 128,-1,56
 323 206 323 206 326 221 c 0,57,58
 331 244 331 244 330.5 258 c 128,-1,59
 330 272 330 272 325 281.5 c 128,-1,60
 320 291 320 291 311.5 299 c 128,-1,61
 303 307 303 307 292 318 c 1,62,63
 307 318 307 318 325.5 327.5 c 128,-1,64
 344 337 344 337 360 352 c 128,-1,65
 376 367 376 367 388 386 c 128,-1,66
 400 405 400 405 402 424 c 1,67,-1
 458 424 l 1,68,69
 453 407 453 407 445.5 389.5 c 128,-1,70
 438 372 438 372 425.5 357 c 128,-1,71
 413 342 413 342 393.5 330 c 128,-1,72
 374 318 374 318 345 314 c 1,73,74
 356 303 356 303 364 294.5 c 128,-1,75
 372 286 372 286 377 277 c 128,-1,76
 382 268 382 268 383.5 257 c 128,-1,77
 385 246 385 246 383 231 c 2,78,-1
 356 104 l 2,0,1
141 329 m 0,79,80
 134 315 134 315 133 298 c 128,-1,81
 132 281 132 281 146 278 c 0,82,83
 158 275 158 275 172 289.5 c 128,-1,84
 186 304 186 304 193 319 c 0,85,86
 196 326 196 326 198.5 335 c 128,-1,87
 201 344 201 344 201 352 c 128,-1,88
 201 360 201 360 198.5 366.5 c 128,-1,89
 196 373 196 373 190 375 c 1,90,91
 184 376 184 376 176.5 372 c 128,-1,92
 169 368 169 368 162.5 360.5 c 128,-1,93
 156 353 156 353 150 344.5 c 128,-1,94
 144 336 144 336 141 329 c 0,79,80
EndSplineSet
EndChar
StartChar: uni0E0C
Encoding: 3596 3596 223
Width: 664
Flags: W
Fore
677 396 m 1,0,1
 669 359 669 359 662 325.5 c 128,-1,2
 655 292 655 292 647.5 259 c 128,-1,3
 640 226 640 226 633 193 c 128,-1,4
 626 160 626 160 618 124 c 0,5,6
 611 94 611 94 594.5 71.5 c 128,-1,7
 578 49 578 49 556 34 c 128,-1,8
 534 19 534 19 509.5 11.5 c 128,-1,9
 485 4 485 4 463 4 c 0,10,11
 431 4 431 4 410.5 16 c 128,-1,12
 390 28 390 28 377 44 c 1,13,14
 364 26 364 26 347 14.5 c 128,-1,15
 330 3 330 3 315 3 c 0,16,17
 291 3 291 3 274.5 26.5 c 128,-1,18
 258 50 258 50 268 95 c 0,19,20
 277 138 277 138 302 163 c 128,-1,21
 327 188 327 188 354 188 c 0,22,23
 361 188 361 188 369 185 c 1,24,-1
 376 224 l 2,25,26
 392 285 392 285 379 313.5 c 128,-1,27
 366 342 366 342 337.5 351.5 c 128,-1,28
 309 361 309 361 271.5 359 c 128,-1,29
 234 357 234 357 201 358 c 1,30,31
 202 356 202 356 207 349.5 c 128,-1,32
 212 343 212 343 217.5 335.5 c 128,-1,33
 223 328 223 328 227 322 c 128,-1,34
 231 316 231 316 231 315 c 2,35,-1
 225 284 l 1,36,37
 220 281 220 281 214.5 278.5 c 128,-1,38
 209 276 209 276 205 272 c 0,39,40
 188 255 188 255 177 236 c 128,-1,41
 166 217 166 217 161 193 c 2,42,-1
 152 154 l 1,43,44
 164 158 164 158 175 155 c 0,45,46
 185 152 185 152 191.5 143.5 c 128,-1,47
 198 135 198 135 199.5 122.5 c 128,-1,48
 201 110 201 110 198.5 94.5 c 128,-1,49
 196 79 196 79 188 64 c 0,50,51
 173 33 173 33 147.5 16 c 128,-1,52
 122 -1 122 -1 102 4 c 0,53,54
 85 9 85 9 80 30 c 128,-1,55
 75 51 75 51 84 77 c 2,56,-1
 103 165 l 2,57,58
 110 204 110 204 133.5 243.5 c 128,-1,59
 157 283 157 283 195 305 c 1,60,-1
 143 367 l 1,61,-1
 148 395 l 1,62,-1
 232 396 l 2,63,64
 276 396 276 396 317.5 394 c 128,-1,65
 359 392 359 392 388.5 376 c 128,-1,66
 418 360 418 360 430 324.5 c 128,-1,67
 442 289 442 289 428 222 c 2,68,-1
 399 85 l 1,69,-1
 398 86 l 1,70,71
 398 85 398 85 397 84 c 1,72,73
 408 68 408 68 423 55.5 c 128,-1,74
 438 43 438 43 460 43 c 0,75,76
 501 43 501 43 528.5 61 c 128,-1,77
 556 79 556 79 567 129 c 2,78,-1
 624 396 l 1,79,-1
 677 396 l 1,0,1
159 124 m 1,80,81
 154 125 154 125 148 121.5 c 128,-1,82
 142 118 142 118 136 112 c 128,-1,83
 130 106 130 106 124.5 98.5 c 128,-1,84
 119 91 119 91 116 85 c 0,85,86
 110 72 110 72 109 55.5 c 128,-1,87
 108 39 108 39 118 36 c 256,88,89
 128 33 128 33 142.5 47 c 128,-1,90
 157 61 157 61 163 74 c 256,91,92
 169 87 169 87 169 103.5 c 128,-1,93
 169 120 169 120 159 124 c 1,80,81
325 43 m 1,94,95
 339 42 339 42 351 59.5 c 128,-1,96
 363 77 363 77 367 95 c 256,97,98
 371 113 371 113 366.5 131 c 128,-1,99
 362 149 362 149 345 149 c 256,100,101
 328 149 328 149 315.5 131 c 128,-1,102
 303 113 303 113 299 95 c 0,103,104
 297 86 297 86 297 76.5 c 128,-1,105
 297 67 297 67 300 59.5 c 128,-1,106
 303 52 303 52 309 47 c 128,-1,107
 315 42 315 42 325 43 c 1,94,95
EndSplineSet
EndChar
StartChar: uni0E0D
Encoding: 3597 3597 224
Width: 651
Flags: W
Fore
664 396 m 1,0,-1
 615 167 l 2,1,2
 602 107 602 107 579 72.5 c 128,-1,3
 556 38 556 38 525.5 21.5 c 128,-1,4
 495 5 495 5 459 1 c 128,-1,5
 423 -3 423 -3 384 -3 c 1,6,-1
 384 -4 l 1,7,-1
 333 -4 l 1,8,-1
 380 222 l 2,9,10
 390 263 390 263 387.5 289 c 128,-1,11
 385 315 385 315 372.5 330 c 128,-1,12
 360 345 360 345 340.5 351 c 128,-1,13
 321 357 321 357 298 358 c 128,-1,14
 275 359 275 359 250 358 c 128,-1,15
 225 357 225 357 203 358 c 1,16,17
 204 356 204 356 209 349 c 128,-1,18
 214 342 214 342 219.5 334.5 c 128,-1,19
 225 327 225 327 229 321 c 128,-1,20
 233 315 233 315 233 314 c 2,21,-1
 227 283 l 1,22,23
 222 280 222 280 216.5 277.5 c 128,-1,24
 211 275 211 275 207 271 c 0,25,26
 172 239 172 239 162 190 c 2,27,-1
 157 165 l 1,28,29
 161 168 161 168 165 168 c 2,30,31
 178 172 178 172 188 168 c 0,32,33
 199 165 199 165 205.5 156 c 128,-1,34
 212 147 212 147 214 133.5 c 128,-1,35
 216 120 216 120 212.5 103 c 128,-1,36
 209 86 209 86 201 69 c 0,37,38
 189 43 189 43 169 24 c 128,-1,39
 149 5 149 5 132 0 c 0,40,41
 115 -3 115 -3 107 -1 c 0,42,43
 92 4 92 4 85.5 20 c 128,-1,44
 79 36 79 36 81 58 c 1,45,-1
 81 57 l 1,46,-1
 103 162 l 2,47,48
 111 202 111 202 134.5 242 c 128,-1,49
 158 282 158 282 196 304 c 1,50,-1
 145 367 l 1,51,-1
 150 395 l 1,52,-1
 234 396 l 2,53,54
 264 396 264 396 293 395.5 c 128,-1,55
 322 395 322 395 347 390.5 c 128,-1,56
 372 386 372 386 392 375.5 c 128,-1,57
 412 365 412 365 424 345.5 c 128,-1,58
 436 326 436 326 438.5 295.5 c 128,-1,59
 441 265 441 265 431 220 c 2,60,-1
 391 31 l 1,61,62
 419 30 419 30 445.5 32.5 c 128,-1,63
 472 35 472 35 494.5 48 c 128,-1,64
 517 61 517 61 534.5 88.5 c 128,-1,65
 552 116 552 116 562 165 c 2,66,-1
 611 396 l 1,67,-1
 664 396 l 1,0,-1
158 132 m 0,68,69
 148 127 148 127 137.5 114.5 c 128,-1,70
 127 102 127 102 122 91 c 0,71,72
 119 84 119 84 116.5 75 c 128,-1,73
 114 66 114 66 114 57.5 c 128,-1,74
 114 49 114 49 116.5 42.5 c 128,-1,75
 119 36 119 36 125 35 c 0,76,77
 129 34 129 34 137 37 c 0,78,79
 148 43 148 43 158.5 55 c 128,-1,80
 169 67 169 67 174 78 c 0,81,82
 177 85 177 85 179 94 c 128,-1,83
 181 103 181 103 181 111 c 128,-1,84
 181 119 181 119 178.5 125.5 c 128,-1,85
 176 132 176 132 170 134 c 0,86,87
 165 136 165 136 158 132 c 0,68,69
458 -91 m 1,88,89
 478 -79 478 -79 494 -64 c 128,-1,90
 510 -49 510 -49 522 -35 c 1,91,-1
 571 -35 l 1,92,93
 550 -61 550 -61 525 -82.5 c 128,-1,94
 500 -104 500 -104 473 -118.5 c 128,-1,95
 446 -133 446 -133 418.5 -139.5 c 128,-1,96
 391 -146 391 -146 365 -140 c 0,97,98
 342 -136 342 -136 329 -123.5 c 128,-1,99
 316 -111 316 -111 320 -94 c 0,100,101
 324 -75 324 -75 346.5 -61.5 c 128,-1,102
 369 -48 369 -48 398 -48 c 0,103,104
 426 -48 426 -48 443 -61 c 128,-1,105
 460 -74 460 -74 458 -91 c 1,88,89
384 -117 m 0,106,107
 398 -117 398 -117 416.5 -110.5 c 128,-1,108
 435 -104 435 -104 438 -93 c 0,109,110
 439 -87 439 -87 435 -83 c 128,-1,111
 431 -79 431 -79 424 -76.5 c 128,-1,112
 417 -74 417 -74 408.5 -72.5 c 128,-1,113
 400 -71 400 -71 393 -71 c 0,114,115
 379 -71 379 -71 361.5 -77 c 128,-1,116
 344 -83 344 -83 340 -95 c 0,117,118
 338 -101 338 -101 342.5 -105 c 128,-1,119
 347 -109 347 -109 354 -111.5 c 128,-1,120
 361 -114 361 -114 369 -115.5 c 128,-1,121
 377 -117 377 -117 384 -117 c 0,106,107
EndSplineSet
Substitution: 0 65534 'L026' uni0E0D.alt1
Substitution: 0 65534 'L026' uni0E0D.alt1
EndChar
StartChar: uni0E0E
Encoding: 3598 3598 225
Width: 461
Flags: W
Fore
221 394 m 2,0,1
 251 394 251 394 281 393.5 c 128,-1,2
 311 393 311 393 338 388.5 c 128,-1,3
 365 384 365 384 387.5 374 c 128,-1,4
 410 364 410 364 424 344.5 c 128,-1,5
 438 325 438 325 441.5 294.5 c 128,-1,6
 445 264 445 264 436 220 c 2,7,-1
 346 -205 l 1,8,-1
 296 -205 l 1,9,-1
 296 -204 l 1,10,-1
 295 -204 l 1,11,12
 290 -188 290 -188 272 -175.5 c 128,-1,13
 254 -163 254 -163 233 -153 c 1,14,15
 212 -178 212 -178 185 -186 c 128,-1,16
 158 -194 158 -194 129 -194 c 0,17,18
 97 -194 97 -194 77.5 -181 c 128,-1,19
 58 -168 58 -168 62 -149 c 256,20,21
 66 -130 66 -130 91 -115 c 128,-1,22
 116 -100 116 -100 147 -100 c 0,23,24
 168 -98 168 -98 185.5 -102.5 c 128,-1,25
 203 -107 203 -107 222 -113 c 1,26,27
 228 -103 228 -103 232 -92 c 128,-1,28
 236 -81 236 -81 239 -70 c 1,29,-1
 279 -70 l 2,30,31
 280 -70 280 -70 277.5 -77 c 128,-1,32
 275 -84 275 -84 270.5 -93.5 c 128,-1,33
 266 -103 266 -103 261 -112 c 128,-1,34
 256 -121 256 -121 253 -124 c 1,35,36
 285 -138 285 -138 306 -158 c 1,37,-1
 384 222 l 2,38,39
 393 260 393 260 389.5 285 c 128,-1,40
 386 310 386 310 373.5 325 c 128,-1,41
 361 340 361 340 342 347 c 128,-1,42
 323 354 323 354 300 356 c 128,-1,43
 277 358 277 358 252.5 356.5 c 128,-1,44
 228 355 228 355 206 355 c 1,45,46
 207 353 207 353 210.5 348.5 c 128,-1,47
 214 344 214 344 217.5 339 c 128,-1,48
 221 334 221 334 223.5 330 c 128,-1,49
 226 326 226 326 226 325 c 2,50,-1
 172 74 l 2,51,52
 168 45 168 45 153.5 23.5 c 128,-1,53
 139 2 139 2 119 -3 c 0,54,55
 93 -10 93 -10 74.5 11 c 128,-1,56
 56 32 56 32 54 67 c 256,57,58
 52 102 52 102 67.5 131.5 c 128,-1,59
 83 161 83 161 109 167 c 0,60,61
 130 172 130 172 146 160 c 1,62,-1
 180 324 l 1,63,-1
 145 365 l 1,64,-1
 144 365 l 1,65,-1
 150 393 l 1,66,-1
 221 394 l 2,0,1
116 32 m 256,67,68
 122 34 122 34 127 40 c 128,-1,69
 132 46 132 46 135.5 54.5 c 128,-1,70
 139 63 139 63 140.5 72 c 128,-1,71
 142 81 142 81 142 88 c 256,72,73
 142 95 142 95 139.5 103.5 c 128,-1,74
 137 112 137 112 133 119 c 128,-1,75
 129 126 129 126 124 130 c 128,-1,76
 119 134 119 134 113 132 c 0,77,78
 106 130 106 130 101 123.5 c 128,-1,79
 96 117 96 117 92 109 c 128,-1,80
 88 101 88 101 86.5 92 c 128,-1,81
 85 83 85 83 85 76 c 256,82,83
 85 69 85 69 87.5 60.5 c 128,-1,84
 90 52 90 52 94.5 45 c 128,-1,85
 99 38 99 38 104.5 34 c 128,-1,86
 110 30 110 30 116 32 c 256,67,68
134 -171 m 0,87,88
 143 -171 143 -171 153 -168.5 c 128,-1,89
 163 -166 163 -166 172.5 -162 c 128,-1,90
 182 -158 182 -158 190 -153.5 c 128,-1,91
 198 -149 198 -149 203 -145 c 1,92,93
 186 -135 186 -135 165 -131.5 c 128,-1,94
 144 -128 144 -128 136 -128 c 0,95,96
 116 -130 116 -130 106.5 -134 c 128,-1,97
 97 -138 97 -138 95 -149 c 256,98,99
 93 -160 93 -160 105 -165.5 c 128,-1,100
 117 -171 117 -171 134 -171 c 0,87,88
EndSplineSet
Substitution: 0 65534 'L026' uni0E0E.alt1
Substitution: 0 65534 'L026' uni0E0E.alt1
EndChar
StartChar: uni0E0F
Encoding: 3599 3599 226
Width: 456
Flags: W
Fore
219 398 m 2,0,1
 264 398 264 398 308 396 c 128,-1,2
 352 394 352 394 384.5 378 c 128,-1,3
 417 362 417 362 431.5 326 c 128,-1,4
 446 290 446 290 432 223 c 2,5,-1
 342 -202 l 1,6,-1
 292 -202 l 1,7,-1
 292 -201 l 1,8,-1
 291 -201 l 1,9,-1
 245 -135 l 1,10,-1
 178 -201 l 1,11,12
 173 -190 173 -190 163.5 -179.5 c 128,-1,13
 154 -169 154 -169 146 -158 c 1,14,15
 108 -191 108 -191 64 -191 c 0,16,17
 35 -191 35 -191 18 -178 c 128,-1,18
 1 -165 1 -165 4 -147 c 0,19,20
 9 -128 9 -128 27.5 -117.5 c 128,-1,21
 46 -107 46 -107 63 -104 c 0,22,23
 85 -100 85 -100 104 -105.5 c 128,-1,24
 123 -111 123 -111 138 -122 c 1,25,26
 149 -111 149 -111 157.5 -97 c 128,-1,27
 166 -83 166 -83 171 -69 c 1,28,-1
 207 -69 l 1,29,30
 203.5 -76 l 130,-1,31
 200 -83 200 -83 194 -93 c 128,-1,32
 188 -103 188 -103 181 -114 c 128,-1,33
 174 -125 174 -125 168 -133 c 1,34,35
 173 -138 173 -138 179 -144 c 128,-1,36
 185 -150 185 -150 187 -156 c 1,37,-1
 255 -88 l 1,38,-1
 301 -153 l 1,39,-1
 379 225 l 2,40,41
 393 283 393 283 380 311.5 c 128,-1,42
 367 340 367 340 339 351 c 128,-1,43
 311 362 311 362 273.5 361 c 128,-1,44
 236 360 236 360 202 359 c 1,45,46
 203 357 203 357 206.5 352.5 c 128,-1,47
 210 348 210 348 213.5 343 c 128,-1,48
 217 338 217 338 219.5 334 c 128,-1,49
 222 330 222 330 222 329 c 2,50,-1
 169 77 l 2,51,52
 165 48 165 48 150.5 26.5 c 128,-1,53
 136 5 136 5 117 0 c 0,54,55
 91 -7 91 -7 71 14 c 128,-1,56
 51 35 51 35 49 70 c 0,57,58
 49 88 49 88 53 104.5 c 128,-1,59
 57 121 57 121 64.5 134.5 c 128,-1,60
 72 148 72 148 82.5 157.5 c 128,-1,61
 93 167 93 167 105 170 c 0,62,63
 126 175 126 175 141 163 c 1,64,-1
 177 328 l 1,65,-1
 141 369 l 1,66,-1
 147 397 l 1,67,-1
 219 398 l 2,0,1
112 35 m 0,68,69
 121 38 121 38 126.5 45 c 128,-1,70
 132 52 132 52 135 60 c 128,-1,71
 138 68 138 68 138.5 76.5 c 128,-1,72
 139 85 139 85 139 91 c 0,73,74
 139 98 139 98 137 106.5 c 128,-1,75
 135 115 135 115 131.5 122 c 128,-1,76
 128 129 128 129 122.5 133 c 128,-1,77
 117 137 117 137 108 135 c 0,78,79
 102 133 102 133 96.5 127 c 128,-1,80
 91 121 91 121 87.5 112.5 c 128,-1,81
 84 104 84 104 82 95 c 128,-1,82
 80 86 80 86 80 79 c 256,83,84
 80 72 80 72 82.5 63.5 c 128,-1,85
 85 55 85 55 89 48 c 128,-1,86
 93 41 93 41 99 37 c 128,-1,87
 105 33 105 33 112 35 c 0,68,69
67 -168 m 0,88,89
 82 -167 82 -167 98.5 -159.5 c 128,-1,90
 115 -152 115 -152 124 -139 c 1,91,92
 117 -132 117 -132 103.5 -128 c 128,-1,93
 90 -124 90 -124 76 -123 c 0,94,95
 58 -123 58 -123 47 -131.5 c 128,-1,96
 36 -140 36 -140 34 -147 c 256,97,98
 32 -154 32 -154 40.5 -161 c 128,-1,99
 49 -168 49 -168 67 -168 c 0,88,89
EndSplineSet
Substitution: 0 65534 'L026' uni0E0F.alt1
Substitution: 0 65534 'L026' uni0E0F.alt1
EndChar
